/* XPM */
static char * about_xpm[] = {
"32 32 174 2",
"  	c None",
". 	c #020204",
"+ 	c #FEFEFC",
"@ 	c #AEAEAC",
"# 	c #EEEEEC",
"$ 	c #EAEAEC",
"% 	c #EAEAE4",
"& 	c #E6E6E4",
"* 	c #E2E2DC",
"= 	c #DEDEDC",
"- 	c #DADADC",
"; 	c #DADAD4",
"> 	c #D6D6D4",
", 	c #D2D2D4",
"' 	c #D2D2CC",
") 	c #CECECC",
"! 	c #CACACC",
"~ 	c #CACAC4",
"{ 	c #C6C6C4",
"] 	c #C2C2C4",
"^ 	c #C2C2BC",
"/ 	c #BEBEBC",
"( 	c #BABABC",
"_ 	c #BABAB4",
": 	c #B6B6B4",
"< 	c #B2B2B4",
"[ 	c #767674",
"} 	c #B2B2AC",
"| 	c #828284",
"1 	c #5AD64C",
"2 	c #AAAAAC",
"3 	c #AAAAA4",
"4 	c #E2E2E4",
"5 	c #060204",
"6 	c #0A0204",
"7 	c #0E0604",
"8 	c #461E04",
"9 	c #662E04",
"0 	c #6E3204",
"a 	c #763604",
"b 	c #1A0A04",
"c 	c #7E3604",
"d 	c #BA5604",
"e 	c #BE5604",
"f 	c #C25A04",
"g 	c #C65A04",
"h 	c #A6A6A4",
"i 	c #924204",
"j 	c #D25E04",
"k 	c #AE5604",
"l 	c #AA5604",
"m 	c #AA5204",
"n 	c #AE5204",
"o 	c #92460C",
"p 	c #6A3A14",
"q 	c #6A6A6C",
"r 	c #BE5E0C",
"s 	c #BA5A04",
"t 	c #B65604",
"u 	c #AA4E04",
"v 	c #82460C",
"w 	c #4E2E14",
"x 	c #26160C",
"y 	c #261A14",
"z 	c #22160C",
"A 	c #3A3A3C",
"B 	c #4A4A44",
"C 	c #0A0604",
"D 	c #6A3204",
"E 	c #AE662C",
"F 	c #D69654",
"G 	c #CE7E3C",
"H 	c #AE4E04",
"I 	c #763A0C",
"J 	c #4A260C",
"K 	c #0A0A0C",
"L 	c #1E1E1C",
"M 	c #BA8E5C",
"N 	c #F6CE9C",
"O 	c #DEBE8C",
"P 	c #A26E44",
"Q 	c #562E14",
"R 	c #1A0E04",
"S 	c #060604",
"T 	c #1A1A1C",
"U 	c #1E1E14",
"V 	c #322E2C",
"W 	c #121214",
"X 	c #F2D2A4",
"Y 	c #F6D2A4",
"Z 	c #E6B674",
"` 	c #9E825C",
" .	c #0E0E0C",
"..	c #060A0C",
"+.	c #0A0A04",
"@.	c #564E34",
"#.	c #F2D29C",
"$.	c #1E1A14",
"%.	c #06060C",
"&.	c #866E44",
"*.	c #EACE9C",
"=.	c #62462C",
"-.	c #7E7254",
";.	c #9A8A6C",
">.	c #52463C",
",.	c #E6A254",
"'.	c #4A3E34",
").	c #D2AE7C",
"!.	c #FAE2AC",
"~.	c #3A362C",
"{.	c #221E14",
"].	c #2E2A1C",
"^.	c #16160C",
"/.	c #2A2A24",
"(.	c #867664",
"_.	c #826A54",
":.	c #F2C684",
"<.	c #F6D6AC",
"[.	c #F6D6A4",
"}.	c #4A422C",
"|.	c #36362C",
"1.	c #8E7E5C",
"2.	c #8E3614",
"3.	c #B65624",
"4.	c #C2722C",
"5.	c #EAC294",
"6.	c #6E5A44",
"7.	c #D6B284",
"8.	c #EECA9C",
"9.	c #FADAAC",
"0.	c #7A6A54",
"a.	c #564E3C",
"b.	c #F6D29C",
"c.	c #9E8A64",
"d.	c #C2AA84",
"e.	c #4A4A4C",
"f.	c #A68A6C",
"g.	c #8E7A5C",
"h.	c #625A44",
"i.	c #7A7E84",
"j.	c #A68E74",
"k.	c #BEA67C",
"l.	c #6E6244",
"m.	c #76624C",
"n.	c #968664",
"o.	c #968A7C",
"p.	c #FAD6A4",
"q.	c #423A2C",
"r.	c #E2C69C",
"s.	c #5E4E3C",
"t.	c #6A5644",
"u.	c #4E463C",
"v.	c #D2BA94",
"w.	c #FEDAA4",
"x.	c #E2C294",
"y.	c #AA8E6C",
"z.	c #3E2E24",
"A.	c #02020C",
"B.	c #3A3224",
"C.	c #E6C294",
"D.	c #FEDAAC",
"E.	c #EAC694",
"F.	c #9A7E64",
"G.	c #262624",
"H.	c #4E4E4C",
"I.	c #626264",
"J.	c #8E8E8C",
"K.	c #0A060C",
"L.	c #120E0C",
"M.	c #B29A74",
"N.	c #DEC294",
"O.	c #3E3E3C",
"P.	c #424244",
"Q.	c #868684",
"  . . . . . . . . . . . . . . . . . . . . . . . . . . . . . .   ",
". + + + + + + + + + + + + + + + + + + + + + + + + + + + + + @ . ",
". + # # # $ % & & * = = - ; > , ' ) ) ! ~ { ] ^ / / ( _ : < [ . ",
". + # # $ % & & * = = ; ; > > ' ) ) ~ ~ { { ^ / / _ _ : < } [ . ",
". + # # | | | | | | | | | | | | | | | | | | | | | | | & < @ [ . ",
". + # % | . . . . . . . . . . . . . . . . . . . . . . + } @ [ . ",
". + $ % | . 1 . . . . . . . . . . . . . . . . . . . . + @ @ [ . ",
". + & & | . . 1 . . . . . . . . . . . . . . . . . . . + 2 3 [ . ",
". + & 4 | . 1 . . 1 1 . . . . 5 6 7 8 9 0 a 0 9 8 6 . + 2 3 [ . ",
". + & & | . . . . . . . . . b c d d e d d f f g e a 5 + 3 h [ . ",
". + * = | . . . . . . . . . i j g e d k l m e e n o p ] q h [ . ",
". + 4 * | . . . . . . . . . 0 j g r s k l t u v w x y z A q B . ",
". + = - | . . . . . . . . . C D E F G H u I J 7 . . K K . K L . ",
". + = = | . . . . . . . . . . . M N O P Q R . . S T U V W . . . ",
". + - ; | . . . . . . . . . . . X Y Z `  .. . . S ... +.T +.. . ",
". + ; > | . . . . . . . . . . . @.@.N #.$. .. +.%.. . . W W . . ",
". + ; > | . . . . . . . . . S &.N X *.N =.V -.;.>.W . . . S . . ",
". + > , | . . . . . . . . . -.X X Y Y Y ,.'.).!.O ~.. {.].^.. . ",
". + > ' | . . . . . . . . . /.(._.:.<.[.:.}.@.@.N |.V 1.N 1. .. ",
". + ' , | . . . . . . . . . . 2.3.4.X 5.6.7.8.9.X @.0.N a.N $.. ",
". + ) ) | . . . . . . . . . . 5.*.N b.6.).X *.N <.8.9.c.d.X $.. ",
". + ' ) @ + + + + + + + + + + e.Y X f._.6.6.g.<.N [.[.[.X h.S . ",
". + ) ~ { { ] ^ / / _ : : < } @ e.e.i.j.k.l.N X m.8.X N Y n.C . ",
". + ! ! ~ { { / / _ ( _ : < } @ 2 3 h o.p.. q.q.r.9.N Y p.N s.. ",
". @ [ [ [ [ [ [ [ [ [ [ [ [ [ [ [ [ [ N p.j.@.8.*.).a.O Y ).t.. ",
"  . . . . . . . . . . . . . . . . u.v.w.x.y.z. .A.B.C.D.E.F..   ",
"                . G.A H.I.J.] + + e.B B e.$.K.  L.M.9.N c..     ",
"                . G.A H.I.J.] # + # / J.I.A . . N.Y . . .       ",
"          . . . O.P.P.P.P.P.P.O.O.O.P.P.P.P.P.. . .             ",
"        . ; = = = = = = = = = = = = = = = = = = = , .           ",
"        . Q.Q.Q.| | | Q.| | Q.Q.Q.| Q.| | | | | | Q..           ",
"        . . . . . . . . . . . . . . . . . . . . . . .           "};
