/* XPM */
static char * stack_dataset_xpm[] = {
"24 24 9 1",
" 	c None",
".	c #000000",
"+	c #CCCCFF",
"@	c #FFFFFF",
"#	c #999999",
"$	c #CCCCCC",
"%	c #CC0033",
"&	c #FF0033",
"*	c #666666",
"                        ",
"   .......              ",
"  ..+@@@+.              ",
" .@.+###+. ..           ",
"....+@@@+..$$..         ",
".++++###+.$$$$$..       ",
".@@@@@@@+.$$%$$$$..     ",
".@###@##+.$$&%$$$$$.    ",
".@@@@@@%%%&%%&%$$$@*.   ",
".@######+.@$%%$$$@**.   ",
".@@@@++++.$@&$$$@***.   ",
".@######+.$$$@$@****.   ",
".@+++++++.#$$$@*****.   ",
".++++++++..#$$@*****.** ",
"..........@.#$@*****.***",
"      .$$#.#$$@*****.***",
"      .$$$#$$$@*****.** ",
"      .$$$$$$$@****.**  ",
"       ..$$$$$@***.**   ",
"         ..$$$@**.**    ",
"           ..$@*.**     ",
"             ...        ",
"                        ",
"                        "};
