/* XPM */
static char * bootstrap_xpm[] = {
"32 32 25 1",
" 	c None",
".	c #000080",
"+	c #A0A0A4",
"@	c #2557FF",
"#	c #6BC6FF",
"$	c #0092DC",
"%	c #00DCDC",
"&	c #25FFFF",
"*	c #D4FFFF",
"=	c #8EFFD4",
"-	c #6BFF8F",
";	c #FFFF8E",
">	c #FFC7B1",
",	c #FFFFFF",
"'	c #E6E6E6",
")	c #DADADA",
"!	c #CECECE",
"~	c #C0C0C0",
"{	c #B6B6B6",
"]	c #929292",
"^	c #868686",
"/	c #7A7A7A",
"(	c #565656",
"_	c #0E0E0E",
":	c #000000",
"             ////////////////   ",
"            ^,,,,,,,,,,,,,,~^:  ",
"            ^,............,~^:  ",
"            ^,.###&*&*&##.,~^:  ",
"            ^,.##&*&*&##$.,~^:  ",
"            ^,.#&*&*&##$$.,~^:  ",
"            ^,.&*&*&##$$$.,~^:  ",
"            ^,.*&*&##$$$$.,~^:  ",
"         ^^^^^.&*&##$$$$@.,~^:  ",
"        ^,,,,:.*&##$$$$@@.,~^:  ",
"       ^((((::.&##$$$$@@@.,~^:  ",
"      ^((((:+:............,~^:  ",
" ^^^^^^^((:++:,,,,,,,,,,,,,~^:  ",
"  ^,,,,,(:+++:~~~~~~~~~~~~~~^:  ",
"   (((((:++++::::::::::::::::{_ ",
"   ^^^^^:++++:^^^^^^^^^^^^^^{^: ",
"   ^,,,,:++++:,,]]//,,,,,,,,,^: ",
"   ^,,,,:++++://-;>{((^^^^~~~^: ",
"   ^,,,,:++++($]-;>{{+(:::~~{^: ",
"   ^,,,,:+^+(%$$];>{++~(~~~~~:  ",
"   ^,,,,:^+^(%%$]-{{+~,(:::::   ",
"   ^,,,,:+^('=%%$((+~,))(       ",
"   ^,!,!:^+(''==(,,(,){{(       ",
"   ^!,!,:+^(!{{{(,,('{{{(       ",
"   ^,!,!:^+({{{{~(('''''(       ",
"   ^!,!,:+^:/{{~~!$==''(        ",
"   ^,!,!:^: ({~~~!$$===(        ",
"   ^!,!,::   (~~!!%$$=(         ",
"   ::::::     ((!!%$((          ",
"                ((((            ",
"                                ",
"                                "};
