/* XPM */
static char * connect_xpm[] = {
"32 32 297 2",
"  	c None",
". 	c #7D7676",
"+ 	c #99918C",
"@ 	c #9C9284",
"# 	c #A59683",
"$ 	c #9E917F",
"% 	c #9A9183",
"& 	c #8E8882",
"* 	c #7F7777",
"= 	c #8F8884",
"- 	c #CDB09B",
"; 	c #E3BDA5",
"> 	c #D9AF90",
", 	c #D0A684",
"' 	c #CEA481",
") 	c #D5AA89",
"! 	c #DBB092",
"~ 	c #E1BAA0",
"{ 	c #CBAA8F",
"] 	c #A59682",
"^ 	c #847E78",
"/ 	c #88837D",
"( 	c #DDB8A0",
"_ 	c #DEB396",
": 	c #9D8155",
"< 	c #4F5626",
"[ 	c #3A491C",
"} 	c #344619",
"| 	c #414F20",
"1 	c #5E5F2F",
"2 	c #927B4E",
"3 	c #C39A75",
"4 	c #DDB294",
"5 	c #DEB69C",
"6 	c #A4937B",
"7 	c #807C74",
"8 	c #A68E6E",
"9 	c #E0B69A",
"0 	c #8D784A",
"a 	c #233811",
"b 	c #213415",
"c 	c #2A3A21",
"d 	c #2D3D23",
"e 	c #293B1F",
"f 	c #213616",
"g 	c #1C330E",
"h 	c #2D4015",
"i 	c #6A6635",
"j 	c #B69269",
"k 	c #DEB597",
"l 	c #DBB296",
"m 	c #A79780",
"n 	c #6A695E",
"o 	c #C59C76",
"p 	c #2D4117",
"q 	c #38432F",
"r 	c #263B19",
"s 	c #2A3D14",
"t 	c #7B6F3F",
"u 	c #C9A07C",
"v 	c #E6BEA4",
"w 	c #B39471",
"x 	c #6A685D",
"y 	c #5C6148",
"z 	c #8F7A4C",
"A 	c #334323",
"B 	c #233815",
"C 	c #434F20",
"D 	c #AF8C62",
"E 	c #C9A17E",
"F 	c #73745C",
"G 	c #555D3E",
"H 	c #776C3D",
"I 	c #37442D",
"J 	c #253A12",
"K 	c #7E7041",
"L 	c #C89E7A",
"M 	c #7F7755",
"N 	c #4B5537",
"O 	c #877546",
"P 	c #293A1B",
"Q 	c #5A5D2D",
"R 	c #B38F66",
"S 	c #937F56",
"T 	c #57594B",
"U 	c #485237",
"V 	c #D1A785",
"W 	c #8D8363",
"X 	c #989589",
"Y 	c #8E8E8E",
"Z 	c #38462D",
"` 	c #414E1F",
" .	c #A4855A",
"..	c #D8AD8D",
"+.	c #AC8B60",
"@.	c #575D46",
"#.	c #4E5443",
"$.	c #A6875B",
"%.	c #BB946C",
"&.	c #E6BEA5",
"*.	c #C6A990",
"=.	c #98978E",
"-.	c #434D3B",
";.	c #2D4017",
">.	c #636848",
",.	c #62605C",
"'.	c #575C31",
").	c #CBA17E",
"!.	c #E1B89C",
"~.	c #E8C1A9",
"{.	c #E3BCA2",
"].	c #A79A81",
"^.	c #93928D",
"/.	c #4E5047",
"(.	c #2C3E1C",
"_.	c #717048",
":.	c #6A6962",
"<.	c #4C562E",
"[.	c #686534",
"}.	c #887647",
"|.	c #D6AC8C",
"1.	c #E3BA9E",
"2.	c #E8C0A7",
"3.	c #CDAB8D",
"4.	c #999481",
"5.	c #939390",
"6.	c #334127",
"7.	c #60602F",
"8.	c #BA936B",
"9.	c #68673C",
"0.	c #3D4829",
"a.	c #495323",
"b.	c #515828",
"c.	c #726A3A",
"d.	c #997F52",
"e.	c #E3BBA0",
"f.	c #B89B78",
"g.	c #948E74",
"h.	c #8A8C7F",
"i.	c #3F4A34",
"j.	c #535929",
"k.	c #B08D64",
"l.	c #D3A988",
"m.	c #706A3A",
"n.	c #444637",
"o.	c #36461D",
"p.	c #3B4A1C",
"q.	c #555A2A",
"r.	c #626131",
"s.	c #807141",
"t.	c #A48C65",
"u.	c #8D8971",
"v.	c #838572",
"w.	c #86887F",
"x.	c #4B5241",
"y.	c #475224",
"z.	c #AA895F",
"A.	c #434937",
"B.	c #464F34",
"C.	c #324318",
"D.	c #505727",
"E.	c #575B2B",
"F.	c #CCA380",
"G.	c #9F855A",
"H.	c #887D55",
"I.	c #85846A",
"J.	c #83877B",
"K.	c #585C51",
"L.	c #424F25",
"M.	c #A18458",
"N.	c #847445",
"O.	c #3F4931",
"P.	c #4E4C41",
"Q.	c #46512E",
"R.	c #37471A",
"S.	c #4D5525",
"T.	c #978054",
"U.	c #75795A",
"V.	c #73766F",
"W.	c #AFADA8",
"X.	c #AFAEA7",
"Y.	c #7E7F76",
"Z.	c #404E28",
"`.	c #9A8053",
" +	c #39442C",
".+	c #555846",
"++	c #39481F",
"@+	c #C69D78",
"#+	c #857A4F",
"$+	c #C2AE99",
"%+	c #D8B59A",
"&+	c #CCA586",
"*+	c #9B9680",
"=+	c #595753",
"-+	c #404C2B",
";+	c #967E50",
">+	c #5C5E30",
",+	c #58544C",
"'+	c #3C4A23",
")+	c #A9885D",
"!+	c #FFF3EF",
"~+	c #FFEBE1",
"{+	c #6C6737",
"]+	c #73776A",
"^+	c #5D5A56",
"/+	c #424E2F",
"(+	c #947C4F",
"_+	c #B4926C",
":+	c #59574D",
"<+	c #36461B",
"[+	c #595C2B",
"}+	c #B59068",
"|+	c #FAE0D3",
"1+	c #FFE8DD",
"2+	c #F5D6C5",
"3+	c #666433",
"4+	c #374826",
"5+	c #5E5B59",
"6+	c #454F31",
"7+	c #545941",
"8+	c #BE9770",
"9+	c #EFCBB5",
"0+	c #FDE6DB",
"a+	c #27361B",
"b+	c #605D5C",
"c+	c #424C33",
"d+	c #394721",
"e+	c #BD966F",
"f+	c #E5BDA3",
"g+	c #FDE5D9",
"h+	c #EBC6AF",
"i+	c #F7D9C9",
"j+	c #FCE3D6",
"k+	c #656B49",
"l+	c #666362",
"m+	c #646255",
"n+	c #3E4C1F",
"o+	c #6E6837",
"p+	c #786E3D",
"q+	c #656232",
"r+	c #FFF8F7",
"s+	c #E8D3C7",
"t+	c #A4A4A2",
"u+	c #69685A",
"v+	c #455128",
"w+	c #455021",
"x+	c #2B3F15",
"y+	c #2D4116",
"z+	c #626339",
"A+	c #AB8B62",
"B+	c #FFFFFF",
"C+	c #CDCDCD",
"D+	c #736C67",
"E+	c #52573D",
"F+	c #2B3E14",
"G+	c #192A0F",
"H+	c #323327",
"I+	c #79756A",
"J+	c #D2CDCA",
"K+	c #B8B8B8",
"L+	c #6E6B60",
"M+	c #4F562C",
"N+	c #2A3E14",
"O+	c #2F3422",
"P+	c #524944",
"Q+	c #929292",
"R+	c #B6B6B6",
"S+	c #D8D8D8",
"T+	c #ACACAC",
"U+	c #38402C",
"V+	c #C19972",
"W+	c #ABA7A7",
"X+	c #A1A1A1",
"Y+	c #A2A2A2",
"Z+	c #55504D",
"`+	c #1F3112",
" @	c #9E8356",
".@	c #706939",
"+@	c #2F3D1E",
"@@	c #484F34",
"#@	c #C2A78E",
"$@	c #F8F7F7",
"%@	c #FBFBFB",
"&@	c #A7A7A7",
"*@	c #3C3A31",
"=@	c #3E4C24",
"-@	c #414E23",
";@	c #4A4D3A",
">@	c #594D4C",
",@	c #8B8781",
"'@	c #A7A7A6",
")@	c #CFCFCF",
"!@	c #ECECEC",
"~@	c #B2B2B2",
"{@	c #524A46",
"]@	c #605A54",
"^@	c #A3A3A3",
"                                                                ",
"                                                                ",
"      . + @ # # $ % & *                                         ",
"    = - ; > , ' ) ! ~ { ] ^                                     ",
"  / ( _ : < [ } | 1 2 3 4 5 6 7                                 ",
"  8 9 0 a b c d e f g h i j k l m                               ",
"n ) o p               q r s t u v w x                           ",
"y _ z A                     B C D ! E F                         ",
"G 9 H                         I J K L ! M                       ",
"N 9 O                             P Q R k S T                   ",
"U V j W X Y                         Z `  ...+.@.                ",
"#.$.%._ &.*.=.                        -.;.2 V 3 >.              ",
",.'. .).!.~.{.].^.                      /.(.H o V _.            ",
":.<.[.}.R |.1.2.3.4.5.                      6.7.8.V 9.          ",
"0.a.b.Q c.d.3 ! e.1.f.g.h.                    i.j.k.l.m.        ",
"n.o.p.< q.r.s.k.) 1.e.! ).t.W u.v.w.            x.y.z.V K A.    ",
"    B.C.C D.E.H D ) 1.9 9 > > F.o G.H.I.J.        K.L.M., N.O.  ",
"      P.Q.R.S.q.t j > 9 ! _ > |.) ' L j T.U.V.  W.X.Y.Z.`.' O  +",
"          .+++D.Q 0 @+4 _ > |.|.V ' u 3 %.d.#+$+%+&+*+=+-+;+' >+",
"            ,+'+b.[.)+, ! > ..l.' F.@+8.+.e.!+~+) M.{+]+^+/+(+_+",
"              :+<+[+t }+l.....l.F.o +.V |+1+2+o `.2 3+4+  5+6+}.",
"                7+C 1 O k.).V ' 8+3 9+1+0+_ : M.R |.E.a+    b+c+",
"                  d+b.r.t M.e+%.f+g+1+h+}+M.: }.z i+j+k+      l+",
"                  m+n+D.Q o+p+1.g+|+F.M.z.`.s.7.q+M.k r+s+t+    ",
"                    u+v+D.b.Q 3 ..z.e+j d.t 7.w+x+y+z+A+B+B+C+  ",
"                      D+E+y.Q p+;+@+R k $.E.` F+G+H+  I+J+B+B+K+",
"                          L+M+b.)+%.o+1.j+}+N+O+P+      Q+R+S+T+",
"                            U+p.V+z {+H k.B+B+W+            X+Y+",
"                            Z+`+ @.@C +@@@#@$@B+%@&@            ",
"                              *@=@-@;@>@  ,@'@)@!@~@            ",
"                                {@]@          X+X+^@            ",
"                                                                "};
