/* XPM */
static char * delete_stack_item_xpm[] = {
"18 18 51 1",
" 	c None",
".	c #45372B",
"+	c #4F3939",
"@	c #E7D1AA",
"#	c #EBD7B9",
"$	c #D1B692",
"%	c #000000",
"&	c #F0DBB9",
"*	c #F0E7D9",
"=	c #F5EBDF",
"-	c #CDB18C",
";	c #050403",
">	c #4C3E31",
",	c #EFE4D7",
"'	c #FBF7F3",
")	c #FFFCF9",
"!	c #FDF6EF",
"~	c #554542",
"{	c #FF0000",
"]	c #55473A",
"^	c #FEFBF8",
"/	c #FEFAF7",
"(	c #FCF4EF",
"_	c #FAF3ED",
":	c #5A4A47",
"<	c #C00000",
"[	c #F9F1E7",
"}	c #FBF2E7",
"|	c #808080",
"1	c #A78568",
"2	c #4D3D30",
"3	c #F1E2CA",
"4	c #FCEFD9",
"5	c #FEF2DC",
"6	c #F5E5C7",
"7	c #F7E7C9",
"8	c #FCEED0",
"9	c #F6E6C8",
"0	c #AE9676",
"a	c #E5CFA8",
"b	c #E4CCA5",
"c	c #EFD8B6",
"d	c #FFFCFB",
"e	c #FFF8E9",
"f	c #E2C7A3",
"g	c #806553",
"h	c #BFA582",
"i	c #E1C6A2",
"j	c #836854",
"k	c #5D4B47",
"l	c #EFD8B0",
"      ...         ",
"     +@#$%%       ",
"     +&*=#-;%     ",
"     >,'))!#-~{   ",
"     ]{{^/(_:{<<  ",
"     {<<{{[}{<<|  ",
"    .1|<<<{<<<|   ",
"    2345|<<<<||   ",
"    .6789{<<{|    ",
" ...0abc{<<<{     ",
".defggh{<||<<{    ",
".-#deij{||h%<<|   ",
" %%-#d{<|k0% <<   ",
"   %%-{||:%   <|  ",
"     %{|:l%    |  ",
"       |%%        ",
"                  ",
"                  "};
