/* XPM */
static char * draw_data_xpm[] = {
"32 32 5 1",
" 	c None",
".	c #FFFF00",
"+	c #303030",
"@	c #FF0000",
"#	c #808080",
"..............+++........@.....#",
"...............+.........@.....#",
"...............+.........@.....#",
"..............+++........@.....#",
"...............+.........@.....#",
"........@@.....+.........@.....#",
".......@..@...+++........@.....#",
"......@....@...+.........@.....#",
"......@....@...+.........@.....#",
".....@......@.+++........@.....#",
".....@......@..+........@......#",
".....@......@..+........@......#",
".....@.......@+++.......@......#",
".....@.......@.+........@......#",
"+..+@.+..+..+@.+..+..+..@..+..+#",
"++++@+++++++++@+++++++++@++++++#",
"+..+@.+..+..+.@+..+..+..@..+..+#",
"....@..........@.......@.......#",
"....@.........+@+......@.......#",
"....@..........@.......@.......#",
"....@..........+@......@.......#",
"...@..........++@......@.......#",
"...@...........+@......@.......#",
"...@...........+.@....@........#",
"...@..........+++@....@........#",
"...@...........+..@..@.........#",
"...@...........+...@@..........#",
"...@..........+++..............#",
"...@...........+...............#",
"...@...........+...............#",
"...@..........+++..............#",
"################################"};
