/* XPM */
static char * durham_xpm[] = {
"32 32 423 2",
"  	c None",
". 	c #C3C1C3",
"+ 	c #E1E0E1",
"@ 	c #DFDEDF",
"# 	c #DFDDDF",
"$ 	c #DEDCDE",
"% 	c #DDDBDD",
"& 	c #DCDADC",
"* 	c #DBDADB",
"= 	c #DBD9DB",
"- 	c #D1D0D1",
"; 	c #908D90",
"> 	c #C0BEC0",
", 	c #F8F8F8",
"' 	c #EBEBEB",
") 	c #E0DFE0",
"! 	c #939093",
"~ 	c #929092",
"{ 	c #BFBDBF",
"] 	c #F7F6F7",
"^ 	c #E6E5E6",
"/ 	c #979597",
"( 	c #B6B5B6",
"_ 	c #989598",
": 	c #BEBBBE",
"< 	c #F7F7F7",
"[ 	c #E7E6E7",
"} 	c #9A989A",
"| 	c #C4C2C4",
"1 	c #B7B5B7",
"2 	c #928F92",
"3 	c #BDBABD",
"4 	c #E8E6E8",
"5 	c #DCDBDC",
"6 	c #9D9B9D",
"7 	c #CFCECF",
"8 	c #C7C5C7",
"9 	c #999699",
"0 	c #BCB9BC",
"a 	c #F8F7F8",
"b 	c #E9E8E9",
"c 	c #DDDCDD",
"d 	c #9E9C9E",
"e 	c #D5D4D5",
"f 	c #CFCFCF",
"g 	c #C6C4C6",
"h 	c #B8B6B8",
"i 	c #E9E9E9",
"j 	c #DEDDDE",
"k 	c #9F9C9F",
"l 	c #D7D6D7",
"m 	c #D1CFD1",
"n 	c #C9C7C9",
"o 	c #B9B7B9",
"p 	c #969396",
"q 	c #BAB7BA",
"r 	c #EAEAEA",
"s 	c #DEDEDE",
"t 	c #999799",
"u 	c #B5B4B5",
"v 	c #B4B2B4",
"w 	c #AFAEAF",
"x 	c #A6A4A6",
"y 	c #9A979A",
"z 	c #737073",
"A 	c #B9B6B9",
"B 	c #EBEAEB",
"C 	c #CAC9CA",
"D 	c #BAB8BA",
"E 	c #AEACAE",
"F 	c #AAA8AA",
"G 	c #6C6A6C",
"H 	c #B8B5B8",
"I 	c #F9F9F9",
"J 	c #EDECED",
"K 	c #ECEBEC",
"L 	c #EAE9EA",
"M 	c #D3D1D3",
"N 	c #777577",
"O 	c #C4C2C6",
"P 	c #F5F7F8",
"Q 	c #E7EAF1",
"R 	c #ECEDEE",
"S 	c #EAEBEC",
"T 	c #EDEDED",
"U 	c #343434",
"V 	c #000000",
"W 	c #1A1A1A",
"X 	c #ECECEC",
"Y 	c #1A191A",
"Z 	c #303030",
"` 	c #D6D5D6",
" .	c #777677",
"..	c #D5DDF7",
"+.	c #B8C3F4",
"@.	c #C1CCFB",
"#.	c #CAD2F9",
"$.	c #CAD3FB",
"%.	c #C4CDF9",
"&.	c #C4CEF5",
"*.	c #DCE0EF",
"=.	c #E6E6E8",
"-.	c #EFEEEF",
";.	c #858485",
">.	c #BAB9BA",
",.	c #B1B1B1",
"'.	c #929192",
").	c #D7D5D7",
"!.	c #767576",
"~.	c #C4CEF6",
"{.	c #C9D0F5",
"].	c #DFE1F5",
"^.	c #E3E6F6",
"/.	c #E4E7F8",
"(.	c #E0E3F3",
"_.	c #DEE1F3",
":.	c #CBD2F6",
"<.	c #C9D2F5",
"[.	c #D6DBE7",
"}.	c #EEEDEE",
"|.	c #6A696A",
"1.	c #E2E0E2",
"2.	c #636363",
"3.	c #191919",
"4.	c #D8D6D8",
"5.	c #767476",
"6.	c #CAD3F3",
"7.	c #B4BFF2",
"8.	c #C2C8E9",
"9.	c #CACDE7",
"0.	c #CBCFE8",
"a.	c #CED2EC",
"b.	c #CED2ED",
"c.	c #CACEE8",
"d.	c #C7CBEB",
"e.	c #BAC4F1",
"f.	c #D5D9E4",
"g.	c #E5E5E6",
"h.	c #F0EFF0",
"i.	c #E3E1E3",
"j.	c #646364",
"k.	c #E0DEE0",
"l.	c #D9D7D9",
"m.	c #757475",
"n.	c #9EAAE4",
"o.	c #B0B3DA",
"p.	c #B2B5DC",
"q.	c #B8BDE4",
"r.	c #BDC4EB",
"s.	c #C9D0F9",
"t.	c #BCC0E8",
"u.	c #B1B3DA",
"v.	c #A5AFE3",
"w.	c #C2C7D6",
"x.	c #B2B1B2",
"y.	c #989798",
"z.	c #CAC8CA",
"A.	c #E2E1E2",
"B.	c #DAD8DA",
"C.	c #9CABE3",
"D.	c #8B92CE",
"E.	c #A5A8D9",
"F.	c #B5BCED",
"G.	c #BFC8FA",
"H.	c #C2CCFE",
"I.	c #C3CCFE",
"J.	c #ADB3E4",
"K.	c #9EA1D1",
"L.	c #9FA2D2",
"M.	c #9FA1D1",
"N.	c #9095CE",
"O.	c #A4AFDE",
"P.	c #CACBCD",
"Q.	c #E4E3E4",
"R.	c #333333",
"S.	c #666666",
"T.	c #4C4C4C",
"U.	c #333233",
"V.	c #E5E3E5",
"W.	c #DAD9DA",
"X.	c #757375",
"Y.	c #BCCBEB",
"Z.	c #6974C0",
"`.	c #8E96D3",
" +	c #B8C3FE",
".+	c #B9C3FE",
"++	c #ABB3EE",
"@+	c #9094CD",
"#+	c #9095CD",
"$+	c #8F93CC",
"%+	c #949AD3",
"&+	c #8D90C9",
"*+	c #898CC4",
"=+	c #8084BF",
"-+	c #6E78C3",
";+	c #BBC3D4",
">+	c #D8D8D8",
",+	c #818181",
"'+	c #9A999A",
")+	c #E6E6E6",
"!+	c #747274",
"~+	c #99A7DE",
"{+	c #616BB8",
"]+	c #9AA4E7",
"^+	c #B2BEFE",
"/+	c #B1BDFD",
"(+	c #9EA7E7",
"_+	c #8084C3",
":+	c #797CBB",
"<+	c #797CBA",
"[+	c #7A7EBC",
"}+	c #7C80BE",
"|+	c #797DBA",
"1+	c #7478B7",
"2+	c #5961A9",
"3+	c #A6B3DB",
"4+	c #C8C9CD",
"5+	c #E8E8E8",
"6+	c #737273",
"7+	c #808ECD",
"8+	c #818DDA",
"9+	c #A7B4FC",
"0+	c #ADBAFE",
"a+	c #ACB9FD",
"b+	c #8289CC",
"c+	c #696DAF",
"d+	c #6A6DAF",
"e+	c #6468AC",
"f+	c #545CA2",
"g+	c #8692CB",
"h+	c #B9BDC6",
"i+	c #696969",
"j+	c #737173",
"k+	c #808DCB",
"l+	c #616BB1",
"m+	c #7984C9",
"n+	c #A5AFF1",
"o+	c #B2BDFE",
"p+	c #A3ACED",
"q+	c #6D70B2",
"r+	c #696BAE",
"s+	c #6A71B5",
"t+	c #575FA4",
"u+	c #7682BD",
"v+	c #B0B6C3",
"w+	c #BBBBBB",
"x+	c #D4D3D4",
"y+	c #6D76B3",
"z+	c #5960A1",
"A+	c #6D72B2",
"B+	c #A0A8E5",
"C+	c #BAC4FE",
"D+	c #A5ACE8",
"E+	c #8488C6",
"F+	c #6D6EAE",
"G+	c #6E6EAE",
"H+	c #777CBC",
"I+	c #7179BA",
"J+	c #7A83C4",
"K+	c #808CC5",
"L+	c #ABB1BF",
"M+	c #E3E3E3",
"N+	c #F2F2F2",
"O+	c #F2F1F2",
"P+	c #F1F1F1",
"Q+	c #F1F0F1",
"R+	c #F0F0F0",
"S+	c #727172",
"T+	c #707BB4",
"U+	c #5C63A1",
"V+	c #5E64A2",
"W+	c #6D72AF",
"X+	c #B8C0F7",
"Y+	c #C1C9FE",
"Z+	c #9BA0D9",
"`+	c #7172AE",
" @	c #6E70AC",
".@	c #7378B4",
"+@	c #A6B0EA",
"@@	c #7D84C1",
"#@	c #7880BC",
"$@	c #A3B0E6",
"%@	c #AAB0BF",
"&@	c #E5E4E5",
"*@	c #F4F4F4",
"=@	c #F4F3F4",
"-@	c #F3F3F3",
";@	c #F3F2F3",
">@	c #727072",
",@	c #7781B7",
"'@	c #6167A1",
")@	c #6268A2",
"!@	c #8E97CE",
"~@	c #C1CCFE",
"{@	c #C4CEFE",
"]@	c #C5CEFE",
"^@	c #A7AFE1",
"/@	c #6A6DA7",
"(@	c #666AA4",
"_@	c #656AA4",
":@	c #9199D0",
"<@	c #BDC8FA",
"[@	c #7D85BD",
"}@	c #A1AADF",
"|@	c #AEBBE9",
"1@	c #AAB0BC",
"2@	c #F6F6F6",
"3@	c #F6F5F6",
"4@	c #F5F5F5",
"5@	c #F5F4F5",
"6@	c #717071",
"7@	c #7E8ABC",
"8@	c #6569A1",
"9@	c #7A80B5",
"0@	c #B4BDEC",
"a@	c #C8D2FE",
"b@	c #B2BAE9",
"c@	c #7075AB",
"d@	c #656AA1",
"e@	c #C1C9F6",
"f@	c #C8D2FD",
"g@	c #676BA2",
"h@	c #6D72A8",
"i@	c #A0ADD4",
"j@	c #AFB4BC",
"k@	c #F9F8F9",
"l@	c #8A9FCD",
"m@	c #6E72A5",
"n@	c #858ABB",
"o@	c #D1D9FE",
"p@	c #D2D9FE",
"q@	c #D2DAFE",
"r@	c #CFD7FB",
"s@	c #959AC8",
"t@	c #8B90BE",
"u@	c #BCC3EA",
"v@	c #C1C8EF",
"w@	c #C1C9EF",
"x@	c #7B80B0",
"y@	c #787DAE",
"z@	c #9FADCA",
"A@	c #C2C3C4",
"B@	c #FAFAFA",
"C@	c #706F70",
"D@	c #818CBA",
"E@	c #A8ADD5",
"F@	c #D9DFFE",
"G@	c #D9E0FE",
"H@	c #DAE0FE",
"I@	c #CED4F4",
"J@	c #D1D7F6",
"K@	c #CAD0F0",
"L@	c #C8CEEE",
"M@	c #ABB7DE",
"N@	c #A0A8B6",
"O@	c #D6D6D6",
"P@	c #FCFCFC",
"Q@	c #FBFBFB",
"R@	c #E3E2E3",
"S@	c #706E70",
"T@	c #7F94C2",
"U@	c #979FC6",
"V@	c #E2E8FE",
"W@	c #E3E8FE",
"X@	c #E3E9FE",
"Y@	c #E4E9FE",
"Z@	c #D3DCF7",
"`@	c #9CAAC8",
" #	c #C2C2C2",
".#	c #EEEEEE",
"+#	c #8BA0CD",
"@#	c #E6EBFD",
"##	c #EAEEFE",
"$#	c #EBEEFE",
"%#	c #EBEFFE",
"&#	c #E7EDFD",
"*#	c #A0B1D2",
"=#	c #A6ABB3",
"-#	c #E0E0E0",
";#	c #FEFEFE",
">#	c #95ABD2",
",#	c #D5DFF2",
"'#	c #DFE2EE",
")#	c #C9CBDD",
"!#	c #D6D8E7",
"~#	c #E2E4F0",
"{#	c #DADCEA",
"]#	c #E5E7F3",
"^#	c #F4F7FE",
"/#	c #F5F7FE",
"(#	c #D4DEF1",
"_#	c #9EAFCF",
":#	c #ADAFB4",
"<#	c #D9D9D9",
"[#	c #FFFFFF",
"}#	c #6F6D6F",
"|#	c #7991B8",
"1#	c #9CAFD3",
"2#	c #A7AEC8",
"3#	c #9E9EB8",
"4#	c #999AB5",
"5#	c #9090AD",
"6#	c #A9A9C1",
"7#	c #CAD1E3",
"8#	c #B0C2E1",
"9#	c #8290AB",
"0#	c #888C94",
"a#	c #C7C6C7",
"b#	c #CFCDCF",
"c#	c #CECDCE",
"d#	c #CECCCE",
"e#	c #CDCCCD",
"f#	c #CDCBCD",
"g#	c #CCCBCC",
"h#	c #CCCACC",
"i#	c #CBC9CB",
"j#	c #666466",
"k#	c #496390",
"l#	c #6883AF",
"m#	c #728AB3",
"n#	c #718AB2",
"o#	c #657FAA",
"p#	c #3A5075",
"              . + @ # # $ $ % % & & * = - ;                     ",
"              > , ' ' ' ' ' ' ' ' ' ' ' ) ! ~                   ",
"              { ] ^ ^ ^ ^ ^ ^ ^ ^ ^ ^ ^ * / ( _                 ",
"              : < [ [ [ [ [ [ [ [ [ [ [ * } | 1 2               ",
"              3 < 4 4 4 4 4 4 4 4 4 4 4 5 6 7 8 1 9             ",
"              0 a b b b b b b b b b b b c d e f g h !           ",
"              0 , i i i i i i i i i i i j k l l m n o p         ",
"              q , r r r r r r r r r r r s t u u v w x y z       ",
"              A , B B B B B B B B B B B b C D q o o h E F G     ",
"              H I J J J J J J J J J J J K L L L L L ) e M N     ",
"              O P Q Q R S K T T T T U V W T T T X Y V Z `  .    ",
"            ..+.@.#.$.%.&.*.=.K -.-.;.V V >.-.T ,.V V '.).!.    ",
"          ~.{.].^.^./.(._.:.<.[.[ }.-.V V |.b 1.2.V 3.$ 4.5.    ",
"      6.7.8.9.0.a.b.c.9.9.9.d.e.f.g.h.|.V W i.1.3.V j.k.l.m.    ",
"      n.o.p.q.r.s.t.o.o.o.u.u.u.v.w.@ x.V V ,.y.V V z.A.B.m.    ",
"    C.D.E.F.G.H.I.J.K.K.K.L.K.M.N.O.P.Q.R.V S.T.V U.V.Q.W.X.    ",
"  Y.Z.`. + + +.+++@+#+$+%+&+*+*+=+-+;+>+,+V W V V '+)+)+* !+    ",
"  ~+{+]+^+^+/+(+_+:+<+[+}+|+|+|+1+2+3+4+i V V V W b 5+5+5 6+    ",
"  7+8+9+0+0+a+b+c+c+c+c+c+c+d+d+e+f+g+h+[ |.V V i+K K B c j+    ",
"  k+l+m+n+o+o+p+q+r+r+r+r+r+r+r+s+t+u+v+Q.w+V V x+}.}.J j j+    ",
"  y+z+z+A+B+C+C+++D+E+F+F+G+F+H+I+J+K+L+M+N+O+O+P+Q+R+h.@ S+    ",
"  T+U+U+V+W+X+Y+Y+Y+Z+`+`+ @.@+@@@#@$@%@&@*@=@-@-@;@N+O+) >@    ",
"  ,@'@'@)@!@~@H.{@]@^@/@(@_@:@<@[@}@|@1@b < ] 2@3@4@5@*@+ 6@    ",
"  7@8@8@9@0@a@a@a@a@b@c@d@c@e@f@g@h@i@j@T I k@, a < ] 2@+ 6@    ",
"  l@m@n@o@o@p@p@q@q@r@s@t@u@v@w@x@y@z@A@4@B@B@B@B@B@I I A.C@    ",
"    D@E@F@F@F@F@G@G@H@I@J@H@K@K@L@M@N@O@B@P@P@P@P@P@Q@Q@R@S@    ",
"    T@U@V@V@W@W@W@W@W@X@X@X@Y@Y@Z@`@ #.#P@P@P@P@P@P@P@P@Q.S@    ",
"      +#@###########$#%#%#%#%#&#*#=#-#B@;#;#;#;#;#;#;#;#&@S@    ",
"        >#,#'#)#!#~#{#]#^#/#(#_#:#<#Q@[#[#[#[#[#[#[#[#[#&@}#    ",
"          |#1#2#3#4#5#6#7#8#9#0#w a#b#b#c#d#e#f#g#h#h#i#: j#    ",
"              k#l#m#n#o#p#                                      ",
"                                                                "};
