/* XPM */
static char * fit_xpm[] = {
"32 32 399 2",
"  	c None",
". 	c #B9B9B9",
"+ 	c #8E8E8E",
"@ 	c #646464",
"# 	c #363737",
"$ 	c #1D1D1D",
"% 	c #404040",
"& 	c #353637",
"* 	c #2C2D2E",
"= 	c #2C2C2D",
"- 	c #606161",
"; 	c #5C5C5C",
"> 	c #19191A",
", 	c #1B1D1F",
"' 	c #2E3034",
") 	c #3F4247",
"! 	c #4F535A",
"~ 	c #656A72",
"{ 	c #838891",
"] 	c #9BA1AE",
"^ 	c #B0B7C6",
"/ 	c #74808B",
"( 	c #0E1011",
"_ 	c #DCDCDC",
": 	c #333434",
"< 	c #414348",
"[ 	c #9EA4B1",
"} 	c #B7BECD",
"| 	c #B9C0CF",
"1 	c #AEB6C4",
"2 	c #BBC2D1",
"3 	c #CED6E8",
"4 	c #D0D8E9",
"5 	c #D0D9EA",
"6 	c #B6C7D7",
"7 	c #5B6F79",
"8 	c #121619",
"9 	c #AAAAAA",
"0 	c #272828",
"a 	c #4C4E55",
"b 	c #C4CBDB",
"c 	c #9DA3AE",
"d 	c #818993",
"e 	c #B0B7C3",
"f 	c #CED6E7",
"g 	c #C0CCDD",
"h 	c #8FAEBF",
"i 	c #3C4C54",
"j 	c #13181A",
"k 	c #797979",
"l 	c #2E2E2F",
"m 	c #5C6067",
"n 	c #C6CDDD",
"o 	c #D3DBEB",
"p 	c #D6DEEC",
"q 	c #D9E1EF",
"r 	c #DDE4EF",
"s 	c #E3EAF2",
"t 	c #E8EFF4",
"u 	c #EFF4F7",
"v 	c #B8CAD6",
"w 	c #85A8B8",
"x 	c #586D78",
"y 	c #1B2226",
"z 	c #4B4B4B",
"A 	c #898989",
"B 	c #2F3133",
"C 	c #E1E6EC",
"D 	c #F0F3F8",
"E 	c #F3F6FA",
"F 	c #F3F8FB",
"G 	c #F7FBFD",
"H 	c #F6FEFF",
"I 	c #F9FCFC",
"J 	c #A1A4A4",
"K 	c #747676",
"L 	c #DEDFDF",
"M 	c #CBDCE2",
"N 	c #83A4B4",
"O 	c #82A3B3",
"P 	c #313F45",
"Q 	c #1F1F1F",
"R 	c #7C7D7D",
"S 	c #4B4D4D",
"T 	c #DBDDDD",
"U 	c #565757",
"V 	c #5A5C5C",
"W 	c #E5E8E8",
"X 	c #F8FFFF",
"Y 	c #F9FFFF",
"Z 	c #E8EDEC",
"` 	c #0E0E0E",
" .	c #030303",
"..	c #787B7B",
"+.	c #DAE7EB",
"@.	c #85A6B6",
"#.	c #85A7B7",
"$.	c #45575F",
"%.	c #4D4D4D",
"&.	c #929292",
"*.	c #353638",
"=.	c #A1A4A6",
"-.	c #0A0B0B",
";.	c #BFC2C2",
">.	c #F1F6F6",
",.	c #4E5051",
"'.	c #1F2121",
").	c #AFB1B1",
"!.	c #E4EEF1",
"~.	c #8DABBA",
"{.	c #86A7B8",
"].	c #576C77",
"^.	c #3F3F3F",
"/.	c #252627",
"(.	c #D5DADB",
"_.	c #636565",
":.	c #6A6D6E",
"<.	c #EAEDED",
"[.	c #F7FFFF",
"}.	c #F7FBFB",
"|.	c #EEF4F4",
"1.	c #FBFEFE",
"2.	c #EBF2F4",
"3.	c #92B0BE",
"4.	c #69828F",
"5.	c #2D2D2D",
"6.	c #2B2B2B",
"7.	c #DADDDD",
"8.	c #F2F4F4",
"9.	c #F2F6F7",
"0.	c #F0F6F7",
"a.	c #9BB8C4",
"b.	c #7694A3",
"c.	c #1C1C1C",
"d.	c #353535",
"e.	c #BFC1C1",
"f.	c #F8FEFE",
"g.	c #FAFFFF",
"h.	c #F3F9FA",
"i.	c #9EB5BF",
"j.	c #7D9CAB",
"k.	c #82A3B2",
"l.	c #101314",
"m.	c #3E3E3E",
"n.	c #A2A3A3",
"o.	c #FAFEFE",
"p.	c #F8FCFC",
"q.	c #F8FFFE",
"r.	c #F4F9F9",
"s.	c #BFC3C3",
"t.	c #BABFC0",
"u.	c #96A5AB",
"v.	c #617985",
"w.	c #81A1B1",
"x.	c #111314",
"y.	c #2A2B2B",
"z.	c #848889",
"A.	c #E1E5E5",
"B.	c #868989",
"C.	c #B2B4B4",
"D.	c #F8FDFD",
"E.	c #C3C5C5",
"F.	c #1E1E1E",
"G.	c #0F0F0F",
"H.	c #B7BCBB",
"I.	c #ACB7BB",
"J.	c #576D77",
"K.	c #485A63",
"L.	c #383838",
"M.	c #6C7071",
"N.	c #838586",
"O.	c #040404",
"P.	c #D7D8D8",
"Q.	c #C9CBCB",
"R.	c #2D2E2E",
"S.	c #191A1B",
"T.	c #CFDDE3",
"U.	c #596C76",
"V.	c #171819",
"W.	c #777777",
"X.	c #646565",
"Y.	c #7B7D7D",
"Z.	c #989898",
"`.	c #505050",
" +	c #595B5B",
".+	c #A2A6A6",
"++	c #474848",
"@+	c #E7EBEB",
"#+	c #F9FEFE",
"$+	c #F9FAFA",
"%+	c #CACCCC",
"&+	c #C4C5C6",
"*+	c #AEBDC3",
"=+	c #636363",
"-+	c #202021",
";+	c #2F3134",
">+	c #3D3F44",
",+	c #34363A",
"'+	c #222326",
")+	c #161617",
"!+	c #151515",
"~+	c #252525",
"{+	c #363636",
"]+	c #434444",
"^+	c #555555",
"/+	c #7B7B7B",
"(+	c #8C8C8C",
"_+	c #2E2F2F",
":+	c #CED0D0",
"<+	c #DDE1E1",
"[+	c #D4D5D5",
"}+	c #C5C6C6",
"|+	c #ADB0B1",
"1+	c #929696",
"2+	c #767979",
"3+	c #5A5D5D",
"4+	c #393939",
"5+	c #1D1E1E",
"6+	c #1A1B1B",
"7+	c #555656",
"8+	c #838383",
"9+	c #1D1E1F",
"0+	c #404348",
"a+	c #9EA5B2",
"b+	c #B6BDCD",
"c+	c #818691",
"d+	c #8E939A",
"e+	c #BEC5CE",
"f+	c #BDC4D4",
"g+	c #C0C7D6",
"h+	c #5F636A",
"i+	c #5B5F67",
"j+	c #60656C",
"k+	c #1C1D1E",
"l+	c #626262",
"m+	c #323333",
"n+	c #343535",
"o+	c #3E3F3F",
"p+	c #2A2A2A",
"q+	c #1E1F1F",
"r+	c #202020",
"s+	c #444444",
"t+	c #636464",
"u+	c #868686",
"v+	c #919192",
"w+	c #717171",
"x+	c #202123",
"y+	c #81868F",
"z+	c #989EA9",
"A+	c #747881",
"B+	c #80848A",
"C+	c #898F9A",
"D+	c #C9D1E2",
"E+	c #C6CDDE",
"F+	c #A8AEBD",
"G+	c #A8B1C0",
"H+	c #A2B9C9",
"I+	c #2B3338",
"J+	c #787878",
"K+	c #5A5A5A",
"L+	c #8F8F8F",
"M+	c #C0C1C1",
"N+	c #7F8283",
"O+	c #F6FAFB",
"P+	c #E8EDEF",
"Q+	c #E9EEF3",
"R+	c #E4E9EF",
"S+	c #E3EAF4",
"T+	c #E2EAF4",
"U+	c #E3EBF7",
"V+	c #B6BEC8",
"W+	c #7B7F85",
"X+	c #9AA0AB",
"Y+	c #C9D4E5",
"Z+	c #8BA1AF",
"`+	c #4B5E67",
" @	c #1A2124",
".@	c #AAAFB0",
"+@	c #818485",
"@@	c #343636",
"#@	c #ADB1B1",
"$@	c #F7FCFD",
"%@	c #F5F9FA",
"&@	c #EFF3F4",
"*@	c #ECEFF2",
"=@	c #9BACB7",
"-@	c #44555D",
";@	c #36454B",
">@	c #171C1E",
",@	c #292A2A",
"'@	c #B6BCBC",
")@	c #323434",
"!@	c #000000",
"~@	c #FBFFFF",
"{@	c #748288",
"]@	c #3A4A51",
"^@	c #5D7480",
"/@	c #1C1E1F",
"(@	c #191919",
"_@	c #DDE2E2",
":@	c #5C5E5F",
"<@	c #C7CACA",
"[@	c #F1F5F6",
"}@	c #72848C",
"|@	c #7694A2",
"1@	c #708C9A",
"2@	c #282A2B",
"3@	c #141515",
"4@	c #F2F8F9",
"5@	c #F8FEFF",
"6@	c #F6FAFA",
"7@	c #B9BCBC",
"8@	c #A3A5A5",
"9@	c #EEF1F1",
"0@	c #EFF5F6",
"a@	c #8DAAB8",
"b@	c #667E8A",
"c@	c #313333",
"d@	c #262727",
"e@	c #FBFEFF",
"f@	c #D3D9DA",
"g@	c #161616",
"h@	c #080808",
"i@	c #949897",
"j@	c #E8F2F6",
"k@	c #8AAABA",
"l@	c #586C76",
"m@	c #3D3E3E",
"n@	c #848484",
"o@	c #3C3F3F",
"p@	c #FCFFFF",
"q@	c #DCE1E0",
"r@	c #161717",
"s@	c #ACAFAF",
"t@	c #E0EAF0",
"u@	c #7896A5",
"v@	c #37444B",
"w@	c #464647",
"x@	c #656565",
"y@	c #E7EAEA",
"z@	c #DCDFE0",
"A@	c #EEF2F2",
"B@	c #EFF3F3",
"C@	c #D2E1E6",
"D@	c #6A8592",
"E@	c #3D4D54",
"F@	c #182023",
"G@	c #272829",
"H@	c #494949",
"I@	c #727576",
"J@	c #DDDFDF",
"K@	c #434646",
"L@	c #4D4F4F",
"M@	c #EAEBEB",
"N@	c #BDCBD0",
"O@	c #354249",
"P@	c #3E4D55",
"Q@	c #464646",
"R@	c #8A8E8E",
"S@	c #A7A9A9",
"T@	c #060606",
"U@	c #A4B2B8",
"V@	c #131618",
"W@	c #989A9A",
"X@	c #484848",
"Y@	c #4F5252",
"Z@	c #D1D4D4",
"`@	c #E4E6E6",
" #	c #ECEEEE",
".#	c #F3F6F6",
"+#	c #E8ECEC",
"@#	c #6A6C6C",
"##	c #757676",
"$#	c #A5B9C2",
"%#	c #4E636D",
"&#	c #1E2225",
"*#	c #9F9F9F",
"=#	c #424242",
"-#	c #161819",
";#	c #242525",
">#	c #373838",
",#	c #494B4B",
"'#	c #595C5C",
")#	c #707373",
"!#	c #898A8B",
"~#	c #A6A7A7",
"{#	c #BBBDBD",
"]#	c #C1C5C7",
"^#	c #63727A",
"/#	c #16191B",
"(#	c #727272",
"_#	c #CDCDCD",
":#	c #B4B4B4",
"<#	c #8F9090",
"[#	c #696A6A",
"}#	c #303030",
"|#	c #474747",
"1#	c #3D3D3D",
"2#	c #2E2F30",
"                                                                ",
"            . + @ # $ % & * = -                                 ",
"        ; > , ' ) ! ~ { ] ^ / ( _                               ",
"      : < [ } | 1 2 3 4 5 6 7 8 9                               ",
"    0 a b 4 4 c d e f f g h i j k                               ",
"  l m n o o p q r s t u v w x y z                               ",
"A B C D E F G H I J K L M N O P Q                               ",
"R S T U V W X Y Z `  ...+.@.#.$.%.                              ",
"&.*.=.-. .;.Y X >.,.'.).!.~.{.].^.                              ",
"  /.(._.:.<.X [.X }.|.1.2.3.{.4.5.                              ",
"  6.7.8.9.X [.[.[.[.X [.0.a.#.b.c.                              ",
"  d.e.Y [.[.[.[.[.[.f.g.h.i.j.k.l.                              ",
"  m.n.o.p.q.[.[.[.r.s.t.9.u.v.w.x.                              ",
"  y.z.A.B.C.D.[.X E.F.G.H.I.J.K.L.                              ",
"  y.M.N.O.y.P.[.X Q.R.S.;.T.U.V.        W.X.Y.Z.                ",
"  `. +.+` ++@+#+#+$+%+&+8.*+y =+    z -+;+>+,+'+)+!+~+{+]+^+/+  ",
"  (+_+:+<+[+}+|+1+2+3+4+5+6+7+  8+9+0+a+b+c+d+e+f+g+] h+i+j+k+l+",
"    m+n+o+: p+q+r+s+t+u+v+    w+x+y+z+A+] f b+B+C+D+E+F+G+H+I+J+",
"      l+K+L+M+                z N+O+P+Q+R+S+T+U+V+W+X+Y+Z+`+ @L+",
"                              4+.@+@@@#@o.X f.$@%@&@*@=@-@;@>@  ",
"                              ,@'@)@!@t+~@[.[.[.[.[.%@{@]@^@/@  ",
"                              (@_@n.:@<@~@Y X [.[.[.[@}@|@1@2@  ",
"                              3@4@~@5@6@7@8@9@[.[.X 0@a@{.b@c@  ",
"                            Z.d@e@X Y f@g@h@i@o.[.f.j@k@{.l@m@  ",
"                            n@o@p@[.X q@_+r@s@o.[.Y t@#.u@v@w@  ",
"                            x@3+p@[.[.#+y@z@o.A@B@#+C@D@E@F@G@  ",
"                            H@I@p@[.[.[.X Y J@K@L@M@N@O@P@y Q@  ",
"                            y.R@p@[.[.[.[.g.S@O.T@e.U@-@].V@W@  ",
"                            X@Y@Z@T `@ #.#p.+#@###[@$#%#&#=+    ",
"                            *#=#-#;#>#,#'#)#!#~#{#]#^#/#(#      ",
"                                _#:#<#[#=#}#|#1#{+2#: J+        ",
"                                                                "};
