/* XPM */
static char * link_selections_xpm[] = {
"24 24 10 1",
" 	g None",
".	g #C3C3C3",
"+	g #FFFFFF",
"@	g #DCDCDC",
"#	g #303030",
"$	g #A0A0A0",
"%	g #000000",
"&	g #808080",
"*	g #383838",
"=	g #585858",
"       .+               ",
"    @+ #.+              ",
"   +$.+ %.+             ",
"  +&*%.+ %.+            ",
" @$#  %.+ #.+           ",
"+.%    %.+ #.+          ",
".+   +  %.+ %.+         ",
"=.+ %.+  %.+ %.+        ",
" #.@ #.+  %.+ %.+       ",
"  %.+ %.+  %.+ %.+      ",
"   #.+ #.+  %.+ %.+     ",
"    *.+ #.+  %.+ %.+    ",
"     #.+ %.+  %.+ %.+   ",
"      %.+ %.+  %+  %.+  ",
"       *.+ *.+ &.   .=  ",
"        #.+ #...%   .*  ",
"         %.+ %%%    .#  ",
"          #.+       .#  ",
"           *.+      .#  ",
"            #.+     .#  ",
"             %.+++@+.*  ",
"              ####*#*%  ",
"                        ",
"                        "};
