/* XPM */
static char * neugen_config_xpm[] = {
"32 32 527 2",
"  	c None",
". 	c #412019",
"+ 	c #492017",
"@ 	c #481E14",
"# 	c #471D14",
"$ 	c #491E14",
"% 	c #4B1F14",
"& 	c #4D1F15",
"* 	c #49180D",
"= 	c #3C1006",
"- 	c #1A0C09",
"; 	c #A5503E",
"> 	c #D24B2D",
", 	c #D04727",
"' 	c #CC4424",
") 	c #CE4425",
"! 	c #D14525",
"~ 	c #D44524",
"{ 	c #D94726",
"] 	c #D94321",
"^ 	c #D4411F",
"/ 	c #7C2715",
"( 	c #250E09",
"_ 	c #1E1D1B",
": 	c #898885",
"< 	c #52504C",
"[ 	c #904738",
"} 	c #DE4827",
"| 	c #BE3B1E",
"1 	c #C73818",
"2 	c #C23719",
"3 	c #C63B1C",
"4 	c #C93B1C",
"5 	c #D43F1E",
"6 	c #DA3E1C",
"7 	c #E14421",
"8 	c #E94F2C",
"9 	c #F15837",
"0 	c #B54026",
"a 	c #2A100B",
"b 	c #060505",
"c 	c #DEDCD7",
"d 	c #A09D98",
"e 	c #000000",
"f 	c #9C3F2B",
"g 	c #C76C57",
"h 	c #A2361D",
"i 	c #CC3918",
"j 	c #BF3718",
"k 	c #C63A1C",
"l 	c #CC3C1D",
"m 	c #DC411F",
"n 	c #E74D2B",
"o 	c #ED4520",
"p 	c #F3502B",
"q 	c #F85D3B",
"r 	c #FA603D",
"s 	c #8A301C",
"t 	c #100502",
"u 	c #F1F0EF",
"v 	c #646463",
"w 	c #973F2B",
"x 	c #DD806B",
"y 	c #994B3B",
"z 	c #C93918",
"A 	c #C83919",
"B 	c #BE3518",
"C 	c #CF3B1A",
"D 	c #DD3F1D",
"E 	c #E84927",
"F 	c #F3502C",
"G 	c #F74C27",
"H 	c #F85632",
"I 	c #F85F3D",
"J 	c #B9482E",
"K 	c #816962",
"L 	c #DDDAD5",
"M 	c #D5D4D1",
"N 	c #4A4948",
"O 	c #52514E",
"P 	c #787773",
"Q 	c #953E2A",
"R 	c #CF5438",
"S 	c #8C402F",
"T 	c #C03517",
"U 	c #BA3517",
"V 	c #CD3A1A",
"W 	c #DC3F1D",
"X 	c #E8421F",
"Y 	c #F25532",
"Z 	c #F64F29",
"` 	c #F8522D",
" .	c #F75A37",
"..	c #705048",
"+.	c #BFBDB8",
"@.	c #B5B2AB",
"#.	c #B8B5B0",
"$.	c #B8B6B0",
"%.	c #9F9B95",
"&.	c #20201F",
"*.	c #913D2A",
"=.	c #C3533B",
"-.	c #8F3825",
";.	c #A62E13",
">.	c #B63315",
",.	c #B93416",
"'.	c #CA3818",
").	c #DA3F1B",
"!.	c #E7431E",
"~.	c #F04D28",
"{.	c #F55430",
"].	c #DB4724",
"^.	c #6F4A41",
"/.	c #E0DFDC",
"(.	c #A8A7A6",
"_.	c #55443F",
":.	c #1C0A05",
"<.	c #040404",
"[.	c #8F3B29",
"}.	c #C06450",
"|.	c #97311A",
"1.	c #A42C12",
"2.	c #AF2F13",
"3.	c #B93315",
"4.	c #C53717",
"5.	c #D83D19",
"6.	c #E3401C",
"7.	c #EE4722",
"8.	c #F35836",
"9.	c #8F6960",
"0.	c #C5C4C0",
"a.	c #B3B1B0",
"b.	c #4D4D4C",
"c.	c #B6482F",
"d.	c #973620",
"e.	c #BB6452",
"f.	c #A2331A",
"g.	c #AC2F14",
"h.	c #B33013",
"i.	c #B93214",
"j.	c #A72E14",
"k.	c #952912",
"l.	c #A02F15",
"m.	c #8F685F",
"n.	c #DBD9D4",
"o.	c #B2B1AF",
"p.	c #52413D",
"q.	c #BA472C",
"r.	c #EF6343",
"s.	c #EF5D3C",
"t.	c #6C2819",
"u.	c #8E3A28",
"v.	c #B75E4B",
"w.	c #A32E14",
"x.	c #B13114",
"y.	c #AC2F15",
"z.	c #AC2F13",
"A.	c #641A0A",
"B.	c #A89690",
"C.	c #A4A3A2",
"D.	c #A3A09E",
"E.	c #C0BCB6",
"F.	c #A5A39F",
"G.	c #444443",
"H.	c #B93D20",
"I.	c #EE542F",
"J.	c #EE5F3F",
"K.	c #EF6443",
"L.	c #BC4E36",
"M.	c #2E1711",
"N.	c #8C3C2A",
"O.	c #B45A46",
"P.	c #A62F14",
"Q.	c #B63114",
"R.	c #AF3014",
"S.	c #87260F",
"T.	c #82746D",
"U.	c #A9958D",
"V.	c #7B7871",
"W.	c #AFAAA0",
"X.	c #D4D0CB",
"Y.	c #695751",
"Z.	c #A63E27",
"`.	c #EA4B28",
" +	c #EB4F2B",
".+	c #EB5A38",
"++	c #EC6243",
"@+	c #E77156",
"#+	c #7C3727",
"$+	c #8D4131",
"%+	c #A34C39",
"&+	c #B03014",
"*+	c #B83215",
"=+	c #B23014",
"-+	c #9D2B12",
";+	c #5B3D36",
">+	c #762513",
",+	c #8E2E18",
"'+	c #5C5954",
")+	c #CAC7C2",
"!+	c #49231A",
"~+	c #C54C30",
"{+	c #E95130",
"]+	c #E94D2A",
"^+	c #EA5230",
"/+	c #EA5A3A",
"(+	c #EC684A",
"_+	c #D7664D",
":+	c #9C665A",
"<+	c #9A351E",
"[+	c #C03315",
"}+	c #BD3E21",
"|+	c #B53B1F",
"1+	c #B53A1F",
"2+	c #BB3C20",
"3+	c #CC4123",
"4+	c #A53117",
"5+	c #5D5B57",
"6+	c #95928D",
"7+	c #46180D",
"8+	c #DF4E2C",
"9+	c #E85332",
"0+	c #EA5433",
"a+	c #EA5534",
"b+	c #E95A39",
"c+	c #EA6446",
"d+	c #EA6C50",
"e+	c #9C3A24",
"f+	c #39140C",
"g+	c #CA7966",
"h+	c #A02E14",
"i+	c #B53113",
"j+	c #B13B1F",
"k+	c #AD381D",
"l+	c #AC381C",
"m+	c #B0391E",
"n+	c #93311B",
"o+	c #51423B",
"p+	c #92908C",
"q+	c #3F3E3C",
"r+	c #962E17",
"s+	c #CB4527",
"t+	c #CD482A",
"u+	c #CE4B2D",
"v+	c #CF4F32",
"w+	c #C35941",
"x+	c #BB5740",
"y+	c #C25239",
"z+	c #4A2921",
"A+	c #F47053",
"B+	c #C47665",
"C+	c #3C3C3C",
"D+	c #525252",
"E+	c #434343",
"F+	c #4C4C4C",
"G+	c #5F5F5F",
"H+	c #555555",
"I+	c #666666",
"J+	c #4A4A4A",
"K+	c #383838",
"L+	c #676767",
"M+	c #616161",
"N+	c #515151",
"O+	c #717171",
"P+	c #736865",
"Q+	c #6C4941",
"R+	c #843827",
"S+	c #C55E47",
"T+	c #EA795F",
"U+	c #E76C4F",
"V+	c #4B2921",
"W+	c #E0684E",
"X+	c #ED6A4D",
"Y+	c #844031",
"Z+	c #3F3F3F",
"`+	c #4D4D4D",
" @	c #808080",
".@	c #949494",
"+@	c #9F9F9F",
"@@	c #C9C9C9",
"#@	c #BDBDBD",
"$@	c #AFAFAF",
"%@	c #B0B0B0",
"&@	c #ABABAB",
"*@	c #BBBBBB",
"=@	c #9D9694",
"-@	c #683B31",
";@	c #BA5B45",
">@	c #DF6F56",
",@	c #E9765C",
"'@	c #E55C3D",
")@	c #E34E2C",
"!@	c #48261E",
"~@	c #FE7658",
"{@	c #FB7052",
"]@	c #E74926",
"^@	c #AF3115",
"/@	c #564642",
"(@	c #818181",
"_@	c #A5A5A5",
":@	c #BCBCBC",
"<@	c #C6C6C6",
"[@	c #CBCBCB",
"}@	c #C5C5C5",
"|@	c #C3C3C3",
"1@	c #B1B1B1",
"2@	c #67605E",
"3@	c #8E4939",
"4@	c #DD6A50",
"5@	c #EA694C",
"6@	c #E86446",
"7@	c #E34B27",
"8@	c #E2431E",
"9@	c #E0411D",
"0@	c #45231B",
"a@	c #E3694F",
"b@	c #FE7556",
"c@	c #FC5732",
"d@	c #E8431E",
"e@	c #C73718",
"f@	c #5E2B1F",
"g@	c #727272",
"h@	c #C2C2C2",
"i@	c #B8B8B8",
"j@	c #B6B6B6",
"k@	c #B4B4B4",
"l@	c #8A8A8A",
"m@	c #9E9E9E",
"n@	c #685D5B",
"o@	c #8D4A3B",
"p@	c #E57C64",
"q@	c #E9674A",
"r@	c #E75F40",
"s@	c #E5502D",
"t@	c #E2421E",
"u@	c #E1421D",
"v@	c #D33D1C",
"w@	c #3B3A3A",
"x@	c #D0563B",
"y@	c #AF6352",
"z@	c #B67060",
"A@	c #DD5638",
"B@	c #EA421E",
"C@	c #D03C1A",
"D@	c #752918",
"E@	c #756C6A",
"F@	c #999999",
"G@	c #9A9A9A",
"H@	c #828282",
"I@	c #909090",
"J@	c #864A3C",
"K@	c #E47E65",
"L@	c #DA654B",
"M@	c #B85641",
"N@	c #BB6D5C",
"O@	c #CF5235",
"P@	c #DF411D",
"Q@	c #6D2D1F",
"R@	c #A95F4F",
"S@	c #E0CFCB",
"T@	c #EDE9E8",
"U@	c #E8B6AA",
"V@	c #EC4520",
"W@	c #D93E1B",
"X@	c #A93015",
"Y@	c #A55544",
"Z@	c #AB6758",
"`@	c #B66655",
" #	c #BC6B58",
".#	c #BB6B58",
"+#	c #BA5D49",
"@#	c #A04A38",
"##	c #64352A",
"$#	c #803F30",
"%#	c #E56A4E",
"&#	c #EA6748",
"*#	c #A95644",
"=#	c #D6C4C0",
"-#	c #EFECEB",
";#	c #E5B6AC",
">#	c #DF4B29",
",#	c #982D14",
"'#	c #A9422B",
")#	c #BB7869",
"!#	c #E7E3E2",
"~#	c #CFCFCF",
"{#	c #E5DDDC",
"]#	c #EF6444",
"^#	c #E3411D",
"/#	c #D74F31",
"(#	c #DC654A",
"_#	c #D23D1D",
":#	c #C63A1B",
"<#	c #CE3E1E",
"[#	c #CC3E1E",
"}#	c #D23E1D",
"|#	c #EB4520",
"1#	c #D84524",
"2#	c #E75738",
"3#	c #E85837",
"4#	c #DE4B29",
"5#	c #B46B5B",
"6#	c #F1EDEC",
"7#	c #D9D9D9",
"8#	c #EDE5E4",
"9#	c #E25B3D",
"0#	c #DE411D",
"a#	c #942B13",
"b#	c #DF694F",
"c#	c #E8B7AC",
"d#	c #D6CECD",
"e#	c #E7AFA2",
"f#	c #F56443",
"g#	c #ED441E",
"h#	c #DD401C",
"i#	c #B0351A",
"j#	c #A0341B",
"k#	c #AE381E",
"l#	c #C0452A",
"m#	c #BE492F",
"n#	c #A1341C",
"o#	c #D64523",
"p#	c #E94C29",
"q#	c #E95736",
"r#	c #E6512F",
"s#	c #E24521",
"t#	c #C54E33",
"u#	c #E2B5AB",
"v#	c #D7CFCE",
"w#	c #E8B0A4",
"x#	c #E05434",
"y#	c #A83F29",
"z#	c #F8603F",
"A#	c #F26344",
"B#	c #F58067",
"C#	c #F26E50",
"D#	c #F54720",
"E#	c #F2461F",
"F#	c #D43D1B",
"G#	c #AE3D24",
"H#	c #CF4728",
"I#	c #C74122",
"J#	c #D85032",
"K#	c #D95739",
"L#	c #AF3C22",
"M#	c #C54325",
"N#	c #E74B27",
"O#	c #E75331",
"P#	c #E54C29",
"Q#	c #E3441F",
"R#	c #E34D2B",
"S#	c #E05D40",
"T#	c #DF684D",
"U#	c #E16245",
"V#	c #DE421F",
"W#	c #8A2812",
"X#	c #A13922",
"Y#	c #F85C39",
"Z#	c #F65C3A",
"`#	c #A73B24",
" $	c #6D2211",
".$	c #CD3C1B",
"+$	c #F34720",
"@$	c #E14725",
"#$	c #DB6145",
"$$	c #DA6247",
"%$	c #D65C40",
"&$	c #E1674C",
"*$	c #E56B4E",
"=$	c #C6583F",
"-$	c #D76147",
";$	c #E64723",
">$	c #E54B27",
",$	c #D24120",
"'$	c #822611",
")$	c #7F2D1A",
"!$	c #CD4D30",
"~$	c #DF4C2B",
"{$	c #DF4420",
"]$	c #CC3C1B",
"^$	c #691F0D",
"/$	c #2A0B05",
"($	c #722413",
"_$	c #A4331A",
":$	c #545454",
"<$	c #E9E9E9",
"[$	c #451409",
"}$	c #A12F15",
"|$	c #9F331A",
"1$	c #9E3119",
"2$	c #9D2E15",
"3$	c #9C321A",
"4$	c #9B2E15",
"5$	c #9B2D14",
"6$	c #9A2D14",
"7$	c #992D14",
"8$	c #982D15",
"9$	c #72210F",
"0$	c #B6A8A5",
"a$	c #9D9290",
"b$	c #6C1F0E",
"c$	c #7A2310",
"d$	c #2C2C2C",
"e$	c #A9A9A9",
"f$	c #737171",
"g$	c #ACAAAA",
"h$	c #636363",
"i$	c #959595",
"j$	c #838383",
"k$	c #8D8D8D",
"l$	c #4B4B4B",
"m$	c #A0A0A0",
"n$	c #2F2F2F",
"o$	c #5E5E5E",
"p$	c #969696",
"q$	c #929292",
"r$	c #747474",
"s$	c #121212",
"t$	c #1C1C1C",
"u$	c #414141",
"v$	c #8B8B8B",
"w$	c #090909",
"x$	c #494949",
"y$	c #1E1E1E",
"z$	c #111111",
"A$	c #1A1A1A",
"B$	c #353535",
"                                                                ",
"                                                                ",
"                  . + @ # $ % & * =                             ",
"              - ; > , ' ) ! ~ { ] ^ / (     _ : <               ",
"              [ } | 1 2 3 4 5 6 7 8 9 0 a b c d e               ",
"              f g h i j k l m n o p q r s t u v                 ",
"              w x y z A B C D E F G H I J K L M N O P           ",
"              Q R S T 2 U V W X Y Z `  ...+.@.#.$.%.&.          ",
"              *.=.-.;.>.,.'.).!.~.{.].^./.(._.:.<.              ",
"              [.}.|.1.2.3.4.5.6.7.8.9.0.a.b.c.d.                ",
"              [.e.f.g.g.h.i.j.k.l.m.n.o.p.q.r.s.t.              ",
"              u.v.w.x.y.z.A.B.C.D.E.F.G.H.I.J.K.L.M.            ",
"              N.O.P.Q.R.S.T.U.V.W.X.Y.Z.`. +.+++@+#+            ",
"              $+%+&+*+=+-+;+>+,+'+)+!+~+{+]+^+/+(+_+            ",
"              :+<+[+}+|+1+2+3+4+5+6+7+8+9+0+a+b+c+d+e+          ",
"            f+g+h+i+j+k+l+m+n+o+p+q+r+s+t+u+v+R w+x+y+          ",
"          z+A+B+C+D+E+F+G+H+I+J+K+L+M+N+O+P+Q+R+S+T+U+          ",
"        V+W+X+Y+Z+`+O+ @.@+@@@#@$@%@&@*@=@-@;@>@,@'@)@          ",
"      !@~@{@]@^@/@(@_@:@<@[@}@|@1@+@.@2@3@4@5@6@7@8@9@          ",
"    0@a@b@c@d@e@f@g@h@*@i@j@k@h@l@m@n@o@p@q@r@s@t@u@v@          ",
"  w@x@y@z@A@B@C@D@E@F@(@ @ @(@G@H@I@J@K@L@M@N@O@P@P@l.          ",
"  Q@R@S@T@U@V@W@X@Y@Z@`@ #.#+#@###$#%#&#*#=#-#;#>#P@,#          ",
"  '#)#!#~#{#]#^#/#(#_#:#<#[#}#|#1#2#3#4#5#6#7#8#9#0#a#          ",
"  '#b#c#d#e#f#g#h#i#j#k#l#m#n#o#p#q#r#s#t#u#v#w#x#0#a#          ",
"  y#z#A#B#C#D#E#F#G#H#I#J#K#L#M#N#O#P#Q#R#S#T#U#V#0#W#          ",
"  X#Y#Z#`# $.$+$@$#$$$%$&$*$=$-$;$>$,$'$)$!$~${$]$^$/$          ",
"  K+($_$:$<$[$}$l.|$1$2$3$4$5$6$7$8$9$0$a$b$a#c$d$e$e           ",
"  e$e$e$:$i@K+e$e$e$e$e$e$e$e$e$e$e$f$g$h$O+e$e$i$j$e           ",
"  O+k$k$l$m$n$k$k$k$k$k$k$k$k$k$k$k$o$p$H+o$q$:@r$s$            ",
"  e t$t$u$v$w$t$t$t$t$t$t$t$t$t$t$t$s$j$x$s$y$n$z$              ",
"        A$J+                          B$n$                      ",
"                                                                "};
