/* XPM */
static char * neugen_input_card_xpm[] = {
"32 32 385 2",
"  	c None",
". 	c #908370",
"+ 	c #8E8270",
"@ 	c #8A7F6E",
"# 	c #867C6C",
"$ 	c #82796A",
"% 	c #7F7668",
"& 	c #7B7366",
"* 	c #777064",
"= 	c #736D61",
"- 	c #70695F",
"; 	c #6B665C",
"> 	c #666159",
", 	c #605D56",
"' 	c #6B6965",
") 	c #838383",
"! 	c #ADA79E",
"~ 	c #CDCDCD",
"{ 	c #CFCFCF",
"] 	c #C7C7C7",
"^ 	c #BFBFBE",
"/ 	c #ACABAB",
"( 	c #90908F",
"_ 	c #818181",
": 	c #787878",
"< 	c #5D5D5D",
"[ 	c #ACA69D",
"} 	c #E9E9E9",
"| 	c #FFFFFF",
"1 	c #FDFDFD",
"2 	c #F7F7F6",
"3 	c #E7E7E6",
"4 	c #C9C9C9",
"5 	c #9C9C9C",
"6 	c #8C8C8C",
"7 	c #5E5E5E",
"8 	c #141414",
"9 	c #ABA59D",
"0 	c #FEFEFE",
"a 	c #FCFCFC",
"b 	c #F5F5F5",
"c 	c #E3E3E3",
"d 	c #ACACAC",
"e 	c #9B9B9B",
"f 	c #B8B8B8",
"g 	c #585858",
"h 	c #181818",
"i 	c #AAA49C",
"j 	c #F8F8F8",
"k 	c #BEBEBE",
"l 	c #A2A2A2",
"m 	c #EDEDED",
"n 	c #575757",
"o 	c #1A1A1A",
"p 	c #A9A39B",
"q 	c #FAEFEF",
"r 	c #F9EDED",
"s 	c #C1C1C1",
"t 	c #969696",
"u 	c #F9F9F9",
"v 	c #A8A29A",
"w 	c #E9C0C0",
"x 	c #E7B8B8",
"y 	c #868686",
"z 	c #ECECEC",
"A 	c #5A5A5A",
"B 	c #515151",
"C 	c #A7A19A",
"D 	c #D99090",
"E 	c #D48181",
"F 	c #C0C0C0",
"G 	c #7C7C7C",
"H 	c #909090",
"I 	c #A3A3A3",
"J 	c #9E9E9E",
"K 	c #898989",
"L 	c #6C6C6C",
"M 	c #7A7A7A",
"N 	c #A6A199",
"O 	c #C96161",
"P 	c #C24B4B",
"Q 	c #DEDEDE",
"R 	c #939392",
"S 	c #787876",
"T 	c #73726F",
"U 	c #74736E",
"V 	c #74726E",
"W 	c #73716F",
"X 	c #666564",
"Y 	c #717070",
"Z 	c #A5A098",
"` 	c #B93131",
" .	c #B01515",
"..	c #EEEEEE",
"+.	c #DAD9D8",
"@.	c #CACAC6",
"#.	c #B8B6B2",
"$.	c #A3A09A",
"%.	c #898780",
"&.	c #6E6B67",
"*.	c #585654",
"=.	c #A49F98",
"-.	c #C75A5A",
";.	c #AD0B0B",
">.	c #A90000",
",.	c #CE6D6D",
"'.	c #E8E8E8",
").	c #DDDCDB",
"!.	c #CDCCC9",
"~.	c #C1BDB5",
"{.	c #A9A59C",
"].	c #88827C",
"^.	c #46433F",
"/.	c #A39E97",
"(.	c #ECC6C6",
"_.	c #B42020",
":.	c #E9BDBD",
"<.	c #FCFCFA",
"[.	c #F7F6F3",
"}.	c #EEECE9",
"|.	c #E6E3DF",
"1.	c #D9D5D0",
"2.	c #CAC6BE",
"3.	c #BBB6AE",
"4.	c #999389",
"5.	c #423F3A",
"6.	c #A19D96",
"7.	c #EECECE",
"8.	c #B11717",
"9.	c #ECC7C7",
"0.	c #FCFCFB",
"a.	c #FBF9F5",
"b.	c #F8F4EF",
"c.	c #F1EDE7",
"d.	c #EBE6DF",
"e.	c #E2DCD5",
"f.	c #D3CDC5",
"g.	c #C9C4BB",
"h.	c #A7A095",
"i.	c #44413C",
"j.	c #9F9B95",
"k.	c #F1D6D6",
"l.	c #EFD1D1",
"m.	c #FEFDFD",
"n.	c #FBFAF8",
"o.	c #FAF8F5",
"p.	c #F9F5F0",
"q.	c #F8F2EB",
"r.	c #F3EDE5",
"s.	c #ECE7DD",
"t.	c #E7E0D7",
"u.	c #DFD7CD",
"v.	c #CFC8BC",
"w.	c #B0A797",
"x.	c #46433C",
"y.	c #9A9590",
"z.	c #E1E1E1",
"A.	c #F7F7F7",
"B.	c #F7F6F6",
"C.	c #F4F2F1",
"D.	c #F3F0ED",
"E.	c #F1EEE8",
"F.	c #F0EBE4",
"G.	c #EEE8E0",
"H.	c #EBE4DB",
"I.	c #E8E0D6",
"J.	c #E6DED3",
"K.	c #E1D9CC",
"L.	c #D4CCBE",
"M.	c #B6AA98",
"N.	c #47433C",
"O.	c #3B3A3A",
"P.	c #3F3F3E",
"Q.	c #737373",
"R.	c #747474",
"S.	c #747473",
"T.	c #747373",
"U.	c #737372",
"V.	c #A9A59E",
"W.	c #DDD5C8",
"X.	c #E2D9CA",
"Y.	c #DDD3C3",
"Z.	c #BDB09C",
"`.	c #48443D",
" +	c #757575",
".+	c #FAFAFA",
"++	c #F2F2F2",
"@+	c #F6F6F6",
"#+	c #989898",
"$+	c #79746D",
"%+	c #CFC5B6",
"&+	c #DDD1C1",
"*+	c #DDD1BD",
"=+	c #BEAF98",
"-+	c #48443C",
";+	c #FBFBFB",
">+	c #B3B3B3",
",+	c #2F2F2F",
"'+	c #707070",
")+	c #E5E5E5",
"!+	c #F0F0F0",
"~+	c #8A8A8A",
"{+	c #736D66",
"]+	c #C4B9A9",
"^+	c #D8CDB9",
"/+	c #DED0BB",
"(+	c #BEAE96",
"_+	c #F3F3F3",
":+	c #EBEBEB",
"<+	c #C3C3C3",
"[+	c #8D8D8D",
"}+	c #DFDFDF",
"|+	c #E2E2E2",
"1+	c #E4E4E4",
"2+	c #959595",
"3+	c #393939",
"4+	c #D1D1D1",
"5+	c #DDDDDD",
"6+	c #706A61",
"7+	c #C1B5A2",
"8+	c #D8CBB5",
"9+	c #E4D5BC",
"0+	c #C3B096",
"a+	c #49443C",
"b+	c #BCBCBC",
"c+	c #EAEAEA",
"d+	c #343434",
"e+	c #717171",
"f+	c #D4D4D4",
"g+	c #6F685F",
"h+	c #C1B29F",
"i+	c #D7C7AF",
"j+	c #E2D2B7",
"k+	c #C4B093",
"l+	c #49443B",
"m+	c #D9D9D9",
"n+	c #B6B6B6",
"o+	c #CECECE",
"p+	c #B1B1B1",
"q+	c #CCCCCC",
"r+	c #6E675D",
"s+	c #BFB19B",
"t+	c #D6C6AA",
"u+	c #E1D0B1",
"v+	c #C7B292",
"w+	c #4A443B",
"x+	c #D0D0D0",
"y+	c #B0B0B0",
"z+	c #373737",
"A+	c #151515",
"B+	c #777777",
"C+	c #6F6F6F",
"D+	c #6D665C",
"E+	c #BEAF97",
"F+	c #D7C5A8",
"G+	c #E2CFAF",
"H+	c #C6B08E",
"I+	c #B5B5B5",
"J+	c #DADADA",
"K+	c #E6E6E6",
"L+	c #ABABAB",
"M+	c #BABABA",
"N+	c #6B6B6B",
"O+	c #6D655A",
"P+	c #BDAC93",
"Q+	c #D6C2A4",
"R+	c #E2CCAC",
"S+	c #C6AE8B",
"T+	c #4A443A",
"U+	c #AAAAAA",
"V+	c #676767",
"W+	c #6D6458",
"X+	c #BDAB90",
"Y+	c #D5C0A0",
"Z+	c #E1C9A6",
"`+	c #C7AD88",
" @	c #6E6E6E",
".@	c #3A3A3A",
"+@	c #655B4E",
"@@	c #BEAB8E",
"#@	c #D5BE9C",
"$@	c #DFC6A0",
"%@	c #C7AB83",
"&@	c #4A4339",
"*@	c #302F2D",
"=@	c #4F4E4D",
"-@	c #737270",
";@	c #7B7874",
">@	c #7A7772",
",@	c #7A7670",
"'@	c #79756E",
")@	c #78746C",
"!@	c #78726A",
"~@	c #787268",
"{@	c #777066",
"]@	c #766F65",
"^@	c #766E62",
"/@	c #756D60",
"(@	c #756C5F",
"_@	c #746B5D",
":@	c #6F6455",
"<@	c #92836C",
"[@	c #C4AE8F",
"}@	c #D7BE9A",
"|@	c #E0C49D",
"1@	c #C6A880",
"2@	c #4A4338",
"3@	c #787674",
"4@	c #BCB9B4",
"5@	c #CAC5BC",
"6@	c #C8C2B7",
"7@	c #C8C0B3",
"8@	c #C7BEB0",
"9@	c #C6BBAC",
"0@	c #C5B9A9",
"a@	c #C4B8A5",
"b@	c #C3B5A0",
"c@	c #C2B49E",
"d@	c #C1B29A",
"e@	c #BFAF97",
"f@	c #BFAD93",
"g@	c #BEAC90",
"h@	c #BFAC8E",
"i@	c #C5AF8F",
"j@	c #D0B895",
"k@	c #DCC19D",
"l@	c #E1C59E",
"m@	c #C5A87D",
"n@	c #878583",
"o@	c #D3D0CB",
"p@	c #E2DCD2",
"q@	c #E0DACF",
"r@	c #DFD7CB",
"s@	c #E1D4C3",
"t@	c #DED3C0",
"u@	c #DBD3C2",
"v@	c #DECFBB",
"w@	c #DBCBB4",
"x@	c #DACBB1",
"y@	c #D9C7AC",
"z@	c #D7C4A7",
"A@	c #D6C3A5",
"B@	c #D7C0A1",
"C@	c #D6BF9E",
"D@	c #D7BF9C",
"E@	c #DBC19B",
"F@	c #DFC49D",
"G@	c #E2C69E",
"H@	c #C5A779",
"I@	c #4A4237",
"J@	c #8C8982",
"K@	c #CAC5BB",
"L@	c #CEC6BC",
"M@	c #CCC3B5",
"N@	c #CCC0B1",
"O@	c #CCBEAB",
"P@	c #CBBEA7",
"Q@	c #C9BBA6",
"R@	c #CAB9A1",
"S@	c #C8B79C",
"T@	c #C8B498",
"U@	c #C8B295",
"V@	c #C6B090",
"W@	c #C6AE8C",
"X@	c #C5AB89",
"Y@	c #C5AA86",
"Z@	c #C4A982",
"`@	c #C5A87F",
" #	c #C5A87C",
".#	c #C5A679",
"+#	c #AB8D62",
"@#	c #453E33",
"##	c #4C4A45",
"$#	c #4B4843",
"%#	c #4B4842",
"&#	c #4B4741",
"*#	c #4B4740",
"=#	c #4B473F",
"-#	c #4B463F",
";#	c #4B463E",
">#	c #4A463D",
",#	c #4A453D",
"'#	c #4B453C",
")#	c #4A433A",
"!#	c #34312C",
"                . + @ # $ % & * = - ; > , ' )                   ",
"                ! ~ { { { { { { { ] ^ / ( _ : <                 ",
"                [ } | | | | | | | 1 2 3 4 5 6 7 8               ",
"                9 } | | | | | | | 0 a b c d e f g h             ",
"                i } | | | | | | | 0 | 0 j k l m f n o           ",
"                p } | | | | q r | 0 | | 0 s t u m f n o         ",
"                v } | | | | w x | 0 | | | s y c u z f A B       ",
"                C } | | | | D E | 0 | | | F 7 G H I J K L M     ",
"                N } | | | | O P | 0 | | | Q R S T U V W X Y     ",
"                Z } | | | | `  .| | | | | a ..+.@.#.$.%.&.*.    ",
"                =.} | | E -.;.>.-.,.| | | 0 b '.).!.~.{.].^.    ",
"                /.} | | (._.>.>.;.:.| | 0 <.[.}.|.1.2.3.4.5.    ",
"                6.} | | | 7.8.>.9.| | 0 0.a.b.c.d.e.f.g.h.i.    ",
"                j.'.0 0 0 0 k.l.0 0 m.n.o.p.q.r.s.t.u.v.w.x.    ",
"                y.z.A.A.A.A.A.A.A.B.C.D.E.F.G.H.I.J.K.L.M.N.    ",
"L L L L L L L O.P.Q.R.R.R.R.R.R.R.R.R.R.S.T.T.U.V.W.X.Y.Z.`.    ",
" +| | | .+++@+@+@+@+@+@+@+@+@+@+| | | | | | 0 #+$+%+&+*+=+-+    ",
" +| ;+j >+,+'+'+'+'+'+'+'+'+'+'+j j j ++)+j !+~+{+]+^+/+(+-+    ",
" +0 _+:+<+[+}+|+|+|+|+|+|+|+|+|+:+:+1+2+3+4+5+G 6+7+8+9+0+a+    ",
" +1 ..|+b+[+c+| | | | | | | | | |+|+<+d+d+e+f+: g+h+i+j+k+l+    ",
" +1 '.m+n+[+c+| | | | | | | | | m+m+o+e e p+q+R.r+s+t+u+v+w+    ",
" +a c x+y+[+c+| | | | | | | | | x+x+f z+A+B+<+C+D+E+F+G+H+w+    ",
" +a 5+] I+I J+K+K+K+K+K+K+K+K+K+] ] ] L+Q.] M+N+O+P+Q+R+S+T+    ",
" +.+x+p+p+p+p+p+p+p+p+p+p+p+p+p+p+p+p+p+p+p+U+V+W+X+Y+Z+`+T+    ",
" @K e+7 7 7 7 7 7 7 7 7 7 7 7 7 7 7 7 7 7 7 7 .@+@@@#@$@%@&@    ",
"              *@=@-@;@>@,@'@)@!@~@{@]@^@/@(@_@:@<@[@}@|@1@2@    ",
"                3@4@5@6@7@8@9@0@a@b@c@d@e@f@g@h@i@j@k@l@m@2@    ",
"                n@o@p@q@r@s@t@u@v@w@x@y@z@A@B@C@D@E@F@G@H@I@    ",
"                J@K@L@M@N@O@P@Q@R@S@T@U@V@W@X@Y@Z@`@ #.#+#@#    ",
"                ##$#$#%#&#*#=#-#;#>#,#'#w+w+)#)#&@2@2@I@@#!#    ",
"                                                                ",
"                                                                "};
