/* XPM */
static char * tux_config_xpm[] = {
"32 32 317 2",
"  	c None",
". 	c #111111",
"+ 	c #070707",
"@ 	c #0B0B0B",
"# 	c #0F0F0F",
"$ 	c #3F3F3F",
"% 	c #282828",
"& 	c #343434",
"* 	c #191919",
"= 	c #252525",
"- 	c #424242",
"; 	c #242424",
"> 	c #3D3D3D",
", 	c #060606",
"' 	c #0C0C0C",
") 	c #0A0A0A",
"! 	c #131313",
"~ 	c #313131",
"{ 	c #1E1E1E",
"] 	c #090909",
"^ 	c #545454",
"/ 	c #363636",
"( 	c #484848",
"_ 	c #5B5B5B",
": 	c #171717",
"< 	c #5A5A5A",
"[ 	c #949493",
"} 	c #AFB1B0",
"| 	c #1A1818",
"1 	c #464645",
"2 	c #C2C2C4",
"3 	c #B1B2B3",
"4 	c #5B5C5A",
"5 	c #070808",
"6 	c #7A797F",
"7 	c #65645F",
"8 	c #57472D",
"9 	c #6F674C",
"0 	c #74726B",
"a 	c #434246",
"b 	c #989A95",
"c 	c #0E0E0F",
"d 	c #877B66",
"e 	c #977523",
"f 	c #E4B91B",
"g 	c #D8BC27",
"h 	c #AC992A",
"i 	c #98844C",
"j 	c #817567",
"k 	c #0A070B",
"l 	c #595959",
"m 	c #70706E",
"n 	c #706F6A",
"o 	c #92712A",
"p 	c #DFA617",
"q 	c #F0C11B",
"r 	c #F1D329",
"s 	c #F3D122",
"t 	c #DDBC29",
"u 	c #7A672B",
"v 	c #0C0909",
"w 	c #59595A",
"x 	c #706F6C",
"y 	c #95938B",
"z 	c #989897",
"A 	c #81611E",
"B 	c #D5A51B",
"C 	c #E7C01C",
"D 	c #E5BD25",
"E 	c #D0A31B",
"F 	c #C99C29",
"G 	c #795F39",
"H 	c #161311",
"I 	c #606060",
"J 	c #767676",
"K 	c #B2AFA6",
"L 	c #5B5A57",
"M 	c #685947",
"N 	c #AE9146",
"O 	c #BF941F",
"P 	c #BD8A1A",
"Q 	c #BA9842",
"R 	c #CDB386",
"S 	c #A39894",
"T 	c #25201D",
"U 	c #232222",
"V 	c #98968E",
"W 	c #9C9B9A",
"X 	c #B1AEA4",
"Y 	c #595855",
"Z 	c #3E4549",
"` 	c #5F5F5C",
" .	c #D4D1C2",
"..	c #B6A684",
"+.	c #BDAA89",
"@.	c #D8CDC4",
"#.	c #E8E5E4",
"$.	c #EDEAEA",
"%.	c #7B7C7E",
"&.	c #142E40",
"*.	c #2B6286",
"=.	c #6090B0",
"-.	c #7B7A74",
";.	c #B5B2A8",
">.	c #93918A",
",.	c #979796",
"'.	c #295571",
").	c #BDBAB9",
"!.	c #F4F4F6",
"~.	c #E9E8E7",
"{.	c #E8E7E6",
"].	c #F5F5F7",
"^.	c #F8F9FA",
"/.	c #F7F6F7",
"(.	c #7A96AA",
"_.	c #337FAC",
":.	c #327BA6",
"<.	c #1B3B51",
"[.	c #414A51",
"}.	c #9C9A92",
"|.	c #C0BDB5",
"1.	c #112532",
"2.	c #3385B4",
"3.	c #6B91AB",
"4.	c #EAE7E6",
"5.	c #FEFEFE",
"6.	c #E3E8EC",
"7.	c #5C89A8",
"8.	c #3383B1",
"9.	c #183549",
"0.	c #000000",
"a.	c #60605D",
"b.	c #BCBAB1",
"c.	c #C6D4DF",
"d.	c #4081A9",
"e.	c #2F7DA8",
"f.	c #0D1D27",
"g.	c #636260",
"h.	c #C5C2BB",
"i.	c #717171",
"j.	c #313B41",
"k.	c #507E9C",
"l.	c #A8B9C4",
"m.	c #F9F8FA",
"n.	c #FDFDFE",
"o.	c #FDFDFD",
"p.	c #A9BAC6",
"q.	c #3385B3",
"r.	c #577F9B",
"s.	c #42474B",
"t.	c #545351",
"u.	c #3E3E3E",
"v.	c #0A161E",
"w.	c #437999",
"x.	c #4B80A4",
"y.	c #F2EFEF",
"z.	c #F3F0F0",
"A.	c #588BAC",
"B.	c #338ABA",
"C.	c #3F7BA2",
"D.	c #417B9D",
"E.	c #0F212D",
"F.	c #383838",
"G.	c #2C2C29",
"H.	c #A19F96",
"I.	c #212121",
"J.	c #010405",
"K.	c #1C425A",
"L.	c #6EA1BE",
"M.	c #6B9EBB",
"N.	c #356C90",
"O.	c #337AA6",
"P.	c #4982A5",
"Q.	c #5188AB",
"R.	c #88B7CE",
"S.	c #328FC0",
"T.	c #2C7097",
"U.	c #0B1820",
"V.	c #040404",
"W.	c #5E5C57",
"X.	c #050C10",
"Y.	c #276488",
"Z.	c #5B98BB",
"`.	c #5996B9",
" +	c #337DAA",
".+	c #7FB1CA",
"++	c #4784AA",
"@+	c #6DAACA",
"#+	c #3080AC",
"$+	c #142E3D",
"%+	c #222222",
"&+	c #0B0A0A",
"*+	c #696762",
"=+	c #49616F",
"-+	c #3388B7",
";+	c #3380AD",
">+	c #3379A4",
",+	c #3389B8",
"'+	c #62A2C3",
")+	c #328EBE",
"!+	c #3378A3",
"~+	c #3287B7",
"{+	c #1C435B",
"]+	c #444441",
"^+	c #B3B1A9",
"/+	c #3376A1",
"(+	c #3381AF",
"_+	c #328DBE",
":+	c #3283B1",
"<+	c #1B3F56",
"[+	c #5BA1C6",
"}+	c #579EC2",
"|+	c #569CC1",
"1+	c #59A0C5",
"2+	c #4E91B8",
"3+	c #328EBF",
"4+	c #3288B7",
"5+	c #2B688C",
"6+	c #0E212C",
"7+	c #5B9CBF",
"8+	c #5798BB",
"9+	c #5697BA",
"0+	c #599BBE",
"a+	c #4E8DB3",
"b+	c #328CBC",
"c+	c #0E1F29",
"d+	c #020406",
"e+	c #5F5E5A",
"f+	c #B7B4AA",
"g+	c #3386B5",
"h+	c #3281AF",
"i+	c #337BA7",
"j+	c #337CA8",
"k+	c #337CA7",
"l+	c #03080B",
"m+	c #1C1C1C",
"n+	c #62615F",
"o+	c #C2BFB7",
"p+	c #83827E",
"q+	c #6095B7",
"r+	c #327BA7",
"s+	c #3377A2",
"t+	c #337BA6",
"u+	c #3284B2",
"v+	c #327EAA",
"w+	c #255574",
"x+	c #7C8A93",
"y+	c #737371",
"z+	c #8A8881",
"A+	c #A7A49B",
"B+	c #7D7C7A",
"C+	c #6088A4",
"D+	c #3381AE",
"E+	c #337AA5",
"F+	c #337DA9",
"G+	c #3280AD",
"H+	c #4A82A8",
"I+	c #807E78",
"J+	c #8D9BA4",
"K+	c #3289B8",
"L+	c #3286B4",
"M+	c #3282B0",
"N+	c #327EAB",
"O+	c #779FBA",
"P+	c #83827B",
"Q+	c #6092B3",
"R+	c #327BA8",
"S+	c #327AA7",
"T+	c #33739D",
"U+	c #767674",
"V+	c #9D9B93",
"W+	c #33749E",
"X+	c #3277A1",
"Y+	c #8DB2C9",
"Z+	c #33759F",
"`+	c #8EB0C7",
" @	c #6A6864",
".@	c #B5B081",
"+@	c #718780",
"@@	c #6E8378",
"#@	c #B2AA77",
"$@	c #868B64",
"%@	c #6F8379",
"&@	c #7E8E7A",
"*@	c #D4C899",
"=@	c #E8C062",
"-@	c #F1C652",
";@	c #F1C54E",
">@	c #F0C34C",
",@	c #F2CF6C",
"'@	c #F6D072",
")@	c #F1C55D",
"!@	c #E7B63A",
"~@	c #EDC151",
"{@	c #F2C762",
"]@	c #F6D478",
"^@	c #F1C95F",
"/@	c #F1C34B",
"(@	c #EEC459",
"_@	c #E4AD28",
":@	c #F6CE5E",
"<@	c #FBD97A",
"[@	c #FAD568",
"}@	c #F1C75A",
"|@	c #EFC85D",
"1@	c #EAC361",
"2@	c #F0C85D",
"3@	c #F4CB5D",
"4@	c #FBD66A",
"5@	c #FAD777",
"6@	c #F4CA57",
"7@	c #EBC15A",
"8@	c #E7B43A",
"9@	c #E6B230",
"0@	c #EFD085",
"a@	c #E7B332",
"b@	c #E7B338",
"                                . + @ #                         ",
"                            $ % & * = - ; >                     ",
"                            , ' , ) ! ~ { ]                     ",
"                          ^ = / + @ ( _ : , <                   ",
"                          ^ [ } | 1 2 3 4 5 _                   ",
"                          ^ 6 7 8 9 0 a b c _                   ",
"                          ^ d e f g h i j k l                   ",
"            m n           ^ o p q r s t u v w                   ",
"              x y z       ^ A B C D E F G H I                   ",
"              J K L       ^ M N O P Q R S T U                   ",
"      J V W W V X Y       Z `  ...+.@.#.$.%.&.*.=.              ",
"        -.V V ;.>.,.      '.).!.~.{.].^./.(._.:.<.[.            ",
"          J }.|.J       1.2.3.4.5.5.5.5.6.7.8.9.0.0.            ",
"            a.b.J       1.2.3.4.5.5.5.5.c.d.e.f.0.0.^           ",
"            g.h.J   i.0.j.k.2.l.m.n.n.o.p.q.r.s.0.0.0.          ",
"            t.h.u.^ 0.v.w.x.2.l.y.z.z.y.A.B.C.D.E.0.0.F.        ",
"          F.G.H.I.0.J.K.q.L.M.N.O.P.O.O.Q.R.O.S.T.U.0.0.        ",
"          0.V.W.I.0.X.Y.q.Z.`. +S..+S.S.++@+O.S.#+$+0.0.^       ",
"          %+&+*+I.F.=+-+S.;+>+,+S.'+S.)+q.!+S.S.~+{+0.0.^       ",
"            ]+^+<     -+S.;+/+!+O.O.O.>+/+(+S._+:+<+0.0.^       ",
"            g.h.J     -+S.O.[+}+|+|+[+1+2+ +3+4+5+6+0.0.        ",
"            g.h.J     -+S.O.7+8+9+9+7+0+a+ +b+_.c+d+0.0.        ",
"            e+f+J     g+S.O.h+h+h+h+h+h+i+j+~+k+l+0.m+          ",
"            n+o+p+J   q+S.O.r+r+r+r+r+r+s+t+u+v+w+x+            ",
"          y+;.;.z+A+B+C+S.D+E+E+E+E+E+E+!+F+G+r+H+              ",
"          I+;.-.  B+z+J+_.K+K+K+K+K+K+K+L+M+N+r+O+              ",
"          P+z+          Q+O.R+R+R+r+S+r+R+R+R+T+                ",
"          U+V+y+          W+X+X+W+Y+  Q+Z+X+Z+`+                ",
"            U+ @          .@+@@@#@      $@%@&@*@                ",
"                  =@-@;@>@,@'@)@!@    =@~@{@]@^@/@;@(@=@        ",
"                _@:@<@[@}@|@=@=@        =@=@1@2@3@4@5@6@=@      ",
"                  7@8@9@                        0@a@b@0@        "};
