/* XPM */
static char * kfm_xpm[] = {
"32 32 195 2",
"  	c None",
". 	c #000000",
"+ 	c #D0D0D0",
"@ 	c #CCCCCC",
"# 	c #BCBCBC",
"$ 	c #B0B0B0",
"% 	c #AEAEAE",
"& 	c #ACACAC",
"* 	c #A7A7A7",
"= 	c #A2A2A2",
"- 	c #9D9D9D",
"; 	c #999999",
"> 	c #949494",
", 	c #909090",
"' 	c #8B8B8B",
") 	c #868686",
"! 	c #818181",
"~ 	c #7D7D7D",
"{ 	c #4D4D4D",
"] 	c #1F1F1F",
"^ 	c #B9B9B9",
"/ 	c #C5C5C5",
"( 	c #D2D2D2",
"_ 	c #B6B6B6",
": 	c #A6A6A6",
"< 	c #8F8F8F",
"[ 	c #8A8A8A",
"} 	c #777777",
"| 	c #6D6D6D",
"1 	c #444444",
"2 	c #121212",
"3 	c #B4B4B4",
"4 	c #B1B1B1",
"5 	c #AAAAAA",
"6 	c #A3A3A3",
"7 	c #9F9F9F",
"8 	c #9C9C9C",
"9 	c #959595",
"0 	c #929292",
"a 	c #8E8E8E",
"b 	c #696969",
"c 	c #161616",
"d 	c #154615",
"e 	c #C6C6C6",
"f 	c #D9D9D9",
"g 	c #D8D8D8",
"h 	c #D7D7D7",
"i 	c #D6D6D6",
"j 	c #D5D5D5",
"k 	c #D3D3D3",
"l 	c #464646",
"m 	c #454545",
"n 	c #434343",
"o 	c #166B16",
"p 	c #95F095",
"q 	c #005500",
"r 	c #ADADAD",
"s 	c #ABABAB",
"t 	c #BABABA",
"u 	c #535353",
"v 	c #484848",
"w 	c #494949",
"x 	c #181818",
"y 	c #3FD43F",
"z 	c #95C695",
"A 	c #7FA97F",
"B 	c #557155",
"C 	c #8D0000",
"D 	c #F00000",
"E 	c #710000",
"F 	c #A9A9A9",
"G 	c #A8A8A8",
"H 	c #B7B7B7",
"I 	c #1B1B1B",
"J 	c #222222",
"K 	c #242424",
"L 	c #282828",
"M 	c #0E0E0E",
"N 	c #159C15",
"O 	c #6A1C15",
"P 	c #704E2D",
"Q 	c #A97543",
"R 	c #712716",
"S 	c #FE0000",
"T 	c #A90000",
"U 	c #A5A5A5",
"V 	c #292929",
"W 	c #2D2D2D",
"X 	c #2F2F2F",
"Y 	c #0F0F0F",
"Z 	c #007F00",
"` 	c #7F0000",
" .	c #543A21",
"..	c #FDCC8F",
"+.	c #FDD9A3",
"@.	c #FDC788",
"#.	c #544836",
"$.	c #1C130B",
"%.	c #A4A4A4",
"&.	c #A1A1A1",
"*.	c #D1D1D1",
"=.	c #6C6C6C",
"-.	c #919191",
";.	c #30271F",
">.	c #91806C",
",.	c #918573",
"'.	c #91775E",
").	c #585047",
"!.	c #A0A0A0",
"~.	c #9E9E9E",
"{.	c #CFCFCF",
"].	c #6B6B6B",
"^.	c #7B7B7B",
"/.	c #505050",
"(.	c #1E1E1E",
"_.	c #AFAFAF",
":.	c #D4D4D4",
"<.	c #CECECE",
"[.	c #C9C9C9",
"}.	c #C2C2C2",
"|.	c #BDBDBD",
"1.	c #B2B2B2",
"2.	c #9B9B9B",
"3.	c #CDCDCD",
"4.	c #545454",
"5.	c #474747",
"6.	c #898989",
"7.	c #989898",
"8.	c #878787",
"9.	c #C7C7C7",
"0.	c #C0C0C0",
"a.	c #BBBBBB",
"b.	c #B5B5B5",
"c.	c #9A9A9A",
"d.	c #CBCBCB",
"e.	c #7F7F7F",
"f.	c #5B5B5B",
"g.	c #626262",
"h.	c #707070",
"i.	c #848484",
"j.	c #BA6565",
"k.	c #5C5C5C",
"l.	c #979797",
"m.	c #969696",
"n.	c #7E7E7E",
"o.	c #828282",
"p.	c #939393",
"q.	c #858585",
"r.	c #CACACA",
"s.	c #585858",
"t.	c #5E5E5E",
"u.	c #5F5F5F",
"v.	c #C4C4C4",
"w.	c #BFBFBF",
"x.	c #B3B3B3",
"y.	c #C8C8C8",
"z.	c #C3C3C3",
"A.	c #757575",
"B.	c #808080",
"C.	c #3D3D3D",
"D.	c #3B3B3B",
"E.	c #393939",
"F.	c #373737",
"G.	c #353535",
"H.	c #333333",
"I.	c #8D8D8D",
"J.	c #8C8C8C",
"K.	c #5D5D5D",
"L.	c #727272",
"M.	c #888888",
"N.	c #C1C1C1",
"O.	c #717171",
"P.	c #BEBEBE",
"Q.	c #838383",
"R.	c #3A3A3A",
"S.	c #686868",
"T.	c #7C7C7C",
"U.	c #7A7A7A",
"V.	c #787878",
"W.	c #747474",
"X.	c #737373",
"Y.	c #616161",
"Z.	c #383838",
"`.	c #797979",
" +	c #B8B8B8",
".+	c #767676",
"++	c #6A6A6A",
"@+	c #363636",
"#+	c #646464",
"$+	c #6F6F6F",
"%+	c #6E6E6E",
"&+	c #4A4A4A",
"*+	c #343434",
"=+	c #252525",
"-+	c #111111",
"                                                                ",
"    . . . . . . . . . . . . . . . .                             ",
"  . + @ # $ % & * = - ; > , ' ) ! ~ { ]                         ",
"  . % ^ / ( _ & : = - ; > < [ ) ! ~ } | 1 2                     ",
"  . % % % & + @ # 3 4 % 5 * 6 7 8 ; 9 0 a a b c d d             ",
"  . % % % % % ^ e f g h i j k ( l m m m 1 1 n o p p q           ",
"  . % % r & & s t h u m m v w x y z A A B C D E A A q .         ",
"  . s 5 5 F F G H j m I J K L M N O E P Q R S D T T T C         ",
"  . * * : : U U 3 k w L V W X Y Z `  ...+.@.#.#.#.#.#.#. .$.    ",
"  . %.%.6 6 = &.4 *.=.-.X X X Y Z ` ;.>.,.,.,.,.,.,.,.,.'.).    ",
"  . &.!.!.7 ~.~.% {.].' $ ^./.Y Z ` (._.f :.<.[.}.|.H 1.s : .   ",
"  . ~.- - 8 2.2.& 3.4.5.6.9 7.8.Z ` (._.g ( @ 9.0.a.b._.F %..   ",
"  . c.c.; ; 7.7.G d.e.e.f.g.h.i.% j.w _.j {.& ' 9 0 k.&.: &..   ",
"  . l.l.m.m.9 > : [.e.e.n.f.v m ! < o.% k 3.9.: p., ' 7 %.7 .   ",
"  . > p.p.0 -.-.6 e q.f i *.r./ s.t.u.& + r.v.w.^ x.r G &.8 .   ",
"  . -., , < a a !./ q.f :.<.y.z.|.l.A.A.! B.~ u C.D.E.F.G.H.    ",
"  . I.I.J.J.' [ - }.q.h *.@ ~ l.p.K.l.F = L.3 D.                ",
"  . [ [ 6.M.M.8.c.N.i.j {.[.b.9 -.I.> * !.O.1.D.                ",
"  . 8.) q.q.i.i.l.P.Q.( @ 9.0.a.b._.F %.- h.$ R.                ",
"  . i.Q.Q.o.! ! > |.S.o.B.n.T.U.V.} W.X.h.Y.% R.                ",
"  . B.B.e.e.n.~ 0 t c.; 7.7.l.m.m.9 > p.0 0 & E.                ",
"  . ~ ~ T.^.^.U.< ^ } _.& F U = ~.c.m.p.< ].5 Z.                ",
"  . U.`.V.V.} } J._ q.g k <.y.z.|. +1.r * X.G F.                ",
"  . } .+A.A.W.W.6.3 q.i + d.' 0.t i._.5 %.L.: F.                ",
"  . X.X.L.O.O.h.) 1.i.k 3.y.* =.++S.~ * &.O.%.@+                ",
"  . #+$+$+$+$+%+q.$ Q.*.d.e 0.a.b.$ 5 U 7 h.= G.                ",
"    2 n S.%+%+%+i.% A.G %.!.8 ; 9 0 a [ ) S.!.G.                ",
"        (.&+%+%+Q.& , < a a I.J.J.' [ 6.M.M.~.*+                ",
"            2 n ~ 5 F G * U U 6 = &.!.7 ~.8 2.H.                ",
"                =+Z.Z.F.F.F.@+@+G.G.G.*+*+*+H.-+                ",
"                    . . . . . . . . . . . . . .                 ",
"                                                                "};
