/* XPM */
static char * parsing_xpm[] = {
"32 32 630 2",
"  	c None",
". 	c #000000",
"+ 	c #101007",
"@ 	c #231101",
"# 	c #010102",
"$ 	c #000001",
"% 	c #0D0D0C",
"& 	c #141412",
"* 	c #10100D",
"= 	c #27270F",
"- 	c #6D6B1E",
"; 	c #4C4B19",
"> 	c #13130A",
", 	c #070705",
"' 	c #291402",
") 	c #130A03",
"! 	c #010103",
"~ 	c #0D0703",
"{ 	c #190C02",
"] 	c #45453F",
"^ 	c #B1B199",
"/ 	c #A3A38A",
"( 	c #111110",
"_ 	c #68685E",
": 	c #BBBBAB",
"< 	c #29290F",
"[ 	c #A3A22A",
"} 	c #949226",
"| 	c #6E6C23",
"1 	c #343313",
"2 	c #282824",
"3 	c #190D03",
"4 	c #040201",
"5 	c #030303",
"6 	c #6B6B54",
"7 	c #E4E4CC",
"8 	c #A8A895",
"9 	c #6F6F64",
"0 	c #9A9A8E",
"a 	c #EFEFDB",
"b 	c #FDFDE9",
"c 	c #23230D",
"d 	c #939226",
"e 	c #9F9F29",
"f 	c #A5A42A",
"g 	c #A1A025",
"h 	c #6C6A21",
"i 	c #2B2B13",
"j 	c #0F0F04",
"k 	c #231916",
"l 	c #151012",
"m 	c #080608",
"n 	c #2F2426",
"o 	c #3D2E30",
"p 	c #2D2422",
"q 	c #0D0603",
"r 	c #070300",
"s 	c #010101",
"t 	c #2D2D27",
"u 	c #949487",
"v 	c #ADAD95",
"w 	c #87877C",
"x 	c #A0A093",
"y 	c #F5F5E3",
"z 	c #FBFBE8",
"A 	c #F9E8D6",
"B 	c #DAD9C8",
"C 	c #1D1D0C",
"D 	c #868421",
"E 	c #7F7E1B",
"F 	c #A4A22B",
"G 	c #9F9D29",
"H 	c #86851F",
"I 	c #3E3C13",
"J 	c #050502",
"K 	c #7F6057",
"L 	c #493836",
"M 	c #191314",
"N 	c #B18584",
"O 	c #E5ACAB",
"P 	c #AC8380",
"Q 	c #090503",
"R 	c #120D08",
"S 	c #6A6A3C",
"T 	c #929280",
"U 	c #7B7A6C",
"V 	c #ACAC95",
"W 	c #E1E1D1",
"X 	c #F0ECDA",
"Y 	c #E4D5C5",
"Z 	c #F19589",
"` 	c #D4D0C1",
" .	c #0D0D0B",
"..	c #78771F",
"+.	c #A4A22A",
"@.	c #898922",
"#.	c #7F7E1E",
"$.	c #9D9B28",
"%.	c #A3A12B",
"&.	c #949127",
"*.	c #3B3912",
"=.	c #816360",
"-.	c #F7BAB3",
";.	c #5A4444",
">.	c #36292B",
",.	c #C39595",
"'.	c #FCBFC0",
").	c #EDB2B2",
"!.	c #977473",
"~.	c #50503C",
"{.	c #87876D",
"].	c #7F7F72",
"^.	c #ADAD9F",
"/.	c #FDFDEA",
"(.	c #F1C4B1",
"_.	c #E4A595",
":.	c #E3736B",
"<.	c #E1A99B",
"[.	c #F0A698",
"}.	c #C0C0B2",
"|.	c #5F5E1D",
"1.	c #A2A12A",
"2.	c #939327",
"3.	c #8A8922",
"4.	c #97962A",
"5.	c #858522",
"6.	c #4F4431",
"7.	c #DDA9A6",
"8.	c #E4ACAD",
"9.	c #DEA8A9",
"0.	c #CC9A9A",
"a.	c #B68988",
"b.	c #9B7E7E",
"c.	c #5F5C56",
"d.	c #9B9B90",
"e.	c #C4C4B5",
"f.	c #EFEFDD",
"g.	c #FCFCE3",
"h.	c #F7F3DB",
"i.	c #E8DFCD",
"j.	c #E8685E",
"k.	c #E5645B",
"l.	c #EC6B62",
"m.	c #F6BEAA",
"n.	c #F6DCC4",
"o.	c #ABAB9F",
"p.	c #53511C",
"q.	c #989827",
"r.	c #A4A32B",
"s.	c #A09F29",
"t.	c #807F21",
"u.	c #898821",
"v.	c #9D9D29",
"w.	c #7B7920",
"x.	c #876E5C",
"y.	c #AF8A82",
"z.	c #A88A88",
"A.	c #6D6760",
"B.	c #84847A",
"C.	c #CACABA",
"D.	c #F2F2DF",
"E.	c #F9F9E6",
"F.	c #F0E4D3",
"G.	c #EFC2B4",
"H.	c #D5A89B",
"I.	c #ED574F",
"J.	c #E39489",
"K.	c #E16D64",
"L.	c #E3AEA2",
"M.	c #F1E4D4",
"N.	c #6F6F67",
"O.	c #26250C",
"P.	c #868424",
"Q.	c #A1A029",
"R.	c #898723",
"S.	c #9A9927",
"T.	c #929129",
"U.	c #8E8D27",
"V.	c #9D9B29",
"W.	c #A1A074",
"X.	c #DBDBCB",
"Y.	c #F2F2E0",
"Z.	c #FDFCE9",
"`.	c #F5F4E2",
" +	c #E29588",
".+	c #D6978B",
"++	c #E55C54",
"@+	c #D5A195",
"#+	c #EA7A70",
"$+	c #E8B6A8",
"%+	c #F0CFBE",
"&+	c #F3EFDC",
"*+	c #ECECD9",
"=+	c #E5E5D4",
"-+	c #53534E",
";+	c #0C0C05",
">+	c #565616",
",+	c #A4A32A",
"'+	c #999826",
")+	c #7C7C23",
"!+	c #9B9A27",
"~+	c #A5A52A",
"{+	c #CACA90",
"]+	c #FCFBE8",
"^+	c #F5D9C3",
"/+	c #EBD0B8",
"(+	c #E4CABB",
"_+	c #DB7E70",
":+	c #E77970",
"<+	c #DB736B",
"[+	c #D0A99D",
"}+	c #DE8D83",
"|+	c #F0746A",
"1+	c #EBE5D4",
"2+	c #F4F4E2",
"3+	c #D9D9C9",
"4+	c #ADAD9E",
"5+	c #51514B",
"6+	c #474743",
"7+	c #29290E",
"8+	c #969626",
"9+	c #A2A12B",
"0+	c #7B7924",
"a+	c #9A9828",
"b+	c #878724",
"c+	c #908E28",
"d+	c #A3A02B",
"e+	c #B8B862",
"f+	c #F7F4DD",
"g+	c #E19787",
"h+	c #EEE3D2",
"i+	c #DAC0B1",
"j+	c #E4857A",
"k+	c #DBA498",
"l+	c #E2B1A2",
"m+	c #EFDFC7",
"n+	c #F4EEDD",
"o+	c #F5E3D2",
"p+	c #F8F8E0",
"q+	c #D5D5C6",
"r+	c #ACAC9E",
"s+	c #42423E",
"t+	c #B0B0A2",
"u+	c #828278",
"v+	c #CBCBBB",
"w+	c #4B4B46",
"x+	c #161608",
"y+	c #585716",
"z+	c #93921E",
"A+	c #78771C",
"B+	c #9C9B26",
"C+	c #8B8A25",
"D+	c #828023",
"E+	c #8B8A21",
"F+	c #A6A52C",
"G+	c #DDDDB2",
"H+	c #F0BEA8",
"I+	c #E1B5A6",
"J+	c #F2D1C0",
"K+	c #F1E5D4",
"L+	c #F9F8E5",
"M+	c #D5D1C3",
"N+	c #8A8A7F",
"O+	c #5A5A53",
"P+	c #838379",
"Q+	c #87877D",
"R+	c #E3E3D2",
"S+	c #A9A99D",
"T+	c #2A2A27",
"U+	c #020100",
"V+	c #070302",
"W+	c #22220D",
"X+	c #6F6E16",
"Y+	c #7F7E1C",
"Z+	c #92911B",
"`+	c #85841F",
" @	c #84831F",
".@	c #828021",
"+@	c #9C9B28",
"@@	c #C1C16B",
"#@	c #F0ECD2",
"$@	c #F4E6D4",
"%@	c #AEAEA2",
"&@	c #79796E",
"*@	c #A6A699",
"=@	c #CECEBF",
"-@	c #C3C3B1",
";@	c #E7E7D6",
">@	c #A8A896",
",@	c #1D1D12",
"'@	c #181313",
")@	c #967171",
"!@	c #6F5645",
"~@	c #0F0D0B",
"{@	c #84831C",
"]@	c #939217",
"^@	c #7E7E17",
"/@	c #7C7A1C",
"(@	c #7F7D1E",
"_@	c #989627",
":@	c #ACAA3A",
"<@	c #E3E3B0",
"[@	c #ECECDA",
"}@	c #D2D2C2",
"|@	c #BABAAC",
"1@	c #8F8F82",
"2@	c #8B8B7E",
"3@	c #D4D4C1",
"4@	c #C9C9BA",
"5@	c #2E2A27",
"6@	c #120F0D",
"7@	c #1F1819",
"8@	c #C59491",
"9@	c #8C5D49",
"0@	c #2C1E18",
"a@	c #787719",
"b@	c #8D8C17",
"c@	c #8D8D18",
"d@	c #8B8A17",
"e@	c #9B9924",
"f@	c #A9A731",
"g@	c #D5D59B",
"h@	c #BCBCAD",
"i@	c #949489",
"j@	c #96968A",
"k@	c #CCCCBD",
"l@	c #EDEDD5",
"m@	c #848478",
"n@	c #70574B",
"o@	c #A97C74",
"p@	c #855E45",
"q@	c #261912",
"r@	c #B58886",
"s@	c #B68E83",
"t@	c #221817",
"u@	c #656315",
"v@	c #7C7B1A",
"w@	c #919119",
"x@	c #9E9D21",
"y@	c #A6A52B",
"z@	c #CACA89",
"A@	c #E2E2CE",
"B@	c #E1E1CD",
"C@	c #F2F2D9",
"D@	c #EBEBC4",
"E@	c #CBCBA3",
"F@	c #2A1D1C",
"G@	c #7F5D59",
"H@	c #A4776F",
"I@	c #F4B2AA",
"J@	c #120902",
"K@	c #7B5C5C",
"L@	c #855644",
"M@	c #1A100D",
"N@	c #676515",
"O@	c #7C7B19",
"P@	c #8A8822",
"Q@	c #A3A129",
"R@	c #97961F",
"S@	c #9F9E28",
"T@	c #A7A72B",
"U@	c #BABA62",
"V@	c #FBFBE0",
"W@	c #F8F8DB",
"X@	c #F8F8DA",
"Y@	c #F1F1CE",
"Z@	c #EEEEC1",
"`@	c #E8E8B3",
" #	c #D1D187",
".#	c #B5B455",
"+#	c #A87A73",
"@#	c #1F1F0D",
"##	c #83831E",
"$#	c #8E8D23",
"%#	c #95942A",
"&#	c #828223",
"*#	c #8E8E2A",
"=#	c #7E7E20",
"-#	c #82821F",
";#	c #A7A529",
">#	c #B9B84E",
",#	c #F5F5DA",
"'#	c #F2F2D1",
")#	c #F0F0C1",
"!#	c #EFEFBD",
"~#	c #ECECBC",
"{#	c #EAEABB",
"]#	c #E4E4AA",
"^#	c #DBDA98",
"/#	c #CECD88",
"(#	c #B7B773",
"_#	c #9F9E48",
":#	c #5B5B28",
"<#	c #3B2B23",
"[#	c #9D6A57",
"}#	c #7C573F",
"|#	c #3D3C0C",
"1#	c #C5C533",
"2#	c #BFBE44",
"3#	c #B0AF4A",
"4#	c #A7A63A",
"5#	c #A09D29",
"6#	c #B2B130",
"7#	c #8D8A28",
"8#	c #8D8C25",
"9#	c #A09F28",
"0#	c #B6B537",
"a#	c #F3F3D1",
"b#	c #F2F2C7",
"c#	c #EDEDBF",
"d#	c #EAE9B3",
"e#	c #E2E1A0",
"f#	c #E2E2A2",
"g#	c #DDDD9B",
"h#	c #D6D690",
"i#	c #C1C17E",
"j#	c #A9A862",
"k#	c #B1AF6A",
"l#	c #ADAD56",
"m#	c #989850",
"n#	c #78784B",
"o#	c #201E18",
"p#	c #8A8827",
"q#	c #C6C538",
"r#	c #B7B538",
"s#	c #B3B24C",
"t#	c #B6B658",
"u#	c #B6B54C",
"v#	c #B9B843",
"w#	c #8C8B32",
"x#	c #908F25",
"y#	c #A7A42D",
"z#	c #BBB932",
"A#	c #F3F3D4",
"B#	c #ECECC0",
"C#	c #E0E0A3",
"D#	c #BFBF8D",
"E#	c #BDBD8D",
"F#	c #B2B27A",
"G#	c #AAA967",
"H#	c #BEBE7D",
"I#	c #C3C378",
"J#	c #A5A570",
"K#	c #B9B88E",
"L#	c #BAB895",
"M#	c #BEBEA0",
"N#	c #E9E9B8",
"O#	c #434038",
"P#	c #070502",
"Q#	c #434310",
"R#	c #C3C237",
"S#	c #C3C335",
"T#	c #B4B136",
"U#	c #ADAB42",
"V#	c #B7B558",
"W#	c #B4B152",
"X#	c #ABAA4B",
"Y#	c #BBB933",
"Z#	c #BEBD35",
"`#	c #C8C79D",
" $	c #B5B490",
".$	c #BABA8A",
"+$	c #B5B582",
"@$	c #B7B781",
"#$	c #D4D4A4",
"$$	c #D9D9A9",
"%$	c #C1BEA9",
"&$	c #D6D6C0",
"*$	c #DFDFC5",
"=$	c #D8D8C6",
"-$	c #EEEED9",
";$	c #908E7F",
">$	c #110F0B",
",$	c #0B0B0A",
"'$	c #73711E",
")$	c #A6A53D",
"!$	c #9E9C3B",
"~$	c #AFAE37",
"{$	c #C9C839",
"]$	c #C1C134",
"^$	c #AEAB33",
"/$	c #B3B145",
"($	c #B5B454",
"_$	c #B9B753",
":$	c #C5C337",
"<$	c #C3C038",
"[$	c #F3F3D5",
"}$	c #EFEFC7",
"|$	c #E2E2B4",
"1$	c #B4B497",
"2$	c #B1B191",
"3$	c #AEAE91",
"4$	c #BCBC9E",
"5$	c #E8E8CC",
"6$	c #EFEFD8",
"7$	c #CFCFBF",
"8$	c #CBCBB8",
"9$	c #CDCDBE",
"0$	c #DCDCCA",
"a$	c #F4F4D9",
"b$	c #CDCDB7",
"c$	c #322E25",
"d$	c #1F1F12",
"e$	c #979527",
"f$	c #B5B338",
"g$	c #94933C",
"h$	c #94933B",
"i$	c #B3B23C",
"j$	c #C8C838",
"k$	c #C4C235",
"l$	c #BFBC34",
"m$	c #B4B242",
"n$	c #BBB952",
"o$	c #C6C535",
"p$	c #C4C335",
"q$	c #F4F4DB",
"r$	c #F5F5D7",
"s$	c #D5D5BC",
"t$	c #C3C3B0",
"u$	c #C9C9B3",
"v$	c #CBCBB7",
"w$	c #D5D5B8",
"x$	c #F2F2DE",
"y$	c #CFCFC0",
"z$	c #E7E7D2",
"A$	c #E6E6D4",
"B$	c #D5D5C4",
"C$	c #E7E7D3",
"D$	c #696559",
"E$	c #18180B",
"F$	c #3A3913",
"G$	c #858327",
"H$	c #B0AD34",
"I$	c #989533",
"J$	c #B0AE2E",
"K$	c #AEAC33",
"L$	c #AFAE33",
"M$	c #BEBD32",
"N$	c #C5C43A",
"O$	c #C4C33C",
"P$	c #C9C538",
"Q$	c #C1C156",
"R$	c #C6C6B7",
"S$	c #C5C5B7",
"T$	c #D0D0B3",
"U$	c #F0F0DB",
"V$	c #D3D3C2",
"W$	c #D2D2C1",
"X$	c #D1D1C0",
"Y$	c #E5E5D3",
"Z$	c #F4F4E1",
"`$	c #FCFCE9",
" %	c #B1B1A3",
".%	c #1F1307",
"+%	c #060602",
"@%	c #151506",
"#%	c #62601B",
"$%	c #C0BD35",
"%%	c #ADAB3B",
"&%	c #999731",
"*%	c #9B9935",
"=%	c #B8B632",
"-%	c #C7C736",
";%	c #C6C536",
">%	c #CBCA77",
",%	c #E0E0CF",
"'%	c #CDCDB5",
")%	c #D9D9C7",
"!%	c #D6D6BE",
"~%	c #CACAB4",
"{%	c #EBEBD4",
"]%	c #F6F6E4",
"^%	c #EBEBD9",
"/%	c #F3F3DB",
"(%	c #F6F6E3",
"_%	c #CACABB",
":%	c #B5B5A9",
"<%	c #7F7F75",
"[%	c #5E5E57",
"}%	c #060605",
"|%	c #0A0A03",
"1%	c #23230E",
"2%	c #888828",
"3%	c #B9B733",
"4%	c #ADAD3B",
"5%	c #A2A136",
"6%	c #929031",
"7%	c #B0AD35",
"8%	c #C7C441",
"9%	c #DFDEAD",
"0%	c #E5E5CF",
"a%	c #D7D7C5",
"b%	c #ABAB9D",
"c%	c #7A7A6F",
"d%	c #44443E",
"e%	c #292926",
"f%	c #61601C",
"g%	c #BBBA33",
"h%	c #C2BF3B",
"i%	c #97972E",
"j%	c #B1B032",
"k%	c #C9C869",
"l%	c #F2F2DA",
"m%	c #F8F8E1",
"n%	c #DFDFCD",
"o%	c #A7A799",
"p%	c #73736A",
"q%	c #4E4E48",
"r%	c #232320",
"s%	c #131311",
"t%	c #050505",
"u%	c #3F3F15",
"v%	c #97972B",
"w%	c #C5C335",
"x%	c #C4C243",
"y%	c #E1E1BD",
"z%	c #DBDBC8",
"A%	c #B4B498",
"B%	c #808072",
"C%	c #292925",
"D%	c #181815",
"E%	c #3B3715",
"F%	c #858425",
"G%	c #999841",
"H%	c #747464",
"I%	c #4D4D46",
"J%	c #151509",
"K%	c #040404",
"L%	c #1E1E0B",
"M%	c #22220F",
". . . . . . . . . . . . . . . . . . . . . . . . . . . . . . . . ",
". + + . . . . . . . . @ # # # # @ . . . . . . . . $ % . . & * . ",
". = - ; > , . . . . ' ) ! ! ! ! ~ { . . . . . . ] ^ / ( _ : # . ",
". < [ } | 1 2 . . . 3 ! ! ! ! ! ! ~ 4 . . . 5 6 7 8 9 0 a b # . ",
". c d e f g h i j . k l ! ! m n o p q r s t u v w x y z A B # . ",
". C D E } F G H I J K L ! ! M N O P Q R S T U V W z X Y Z ` # . ",
".  ...+.@.#.$.%.&.*.=.-.;.>.,.'.).!.~.{.].^.y /.(._.:.<.[.}.# . ",
". . |.1.1.2.3.4.f 5.6.7.8.9.0.a.b.c.d.e.f.g.h.i.j.k.l.m.n.o.# . ",
". . p.q.r.F s.t.u.v.w.x.y.z.A.B.C.D.E.F.G.H.I.J.K.L.M.z /.N.$ . ",
". . O.P.Q.R.S.Q.T.U.V.W.e.X.Y./.Z.`. +.+++@+#+$+%+&+z *+=+-+. . ",
". . ;+>+,+'+)+!+s.+.~+{+]+^+/+(+_+:+<+[+}+|+1+/.2+3+4+5+B.6+. . ",
". . . 7+8+9+0+a+b+c+d+e+f+g+h+i+j+k+l+m+n+o+p+q+r+s+t+u+v+w+. . ",
". . . x+y+z+A+B+C+D+E+F+G+H+I+J+K+L+/././.M+N+O+P+Q+R+p+S+T+. . ",
". . U+V+W+X+Y+Z+`+ @.@+@@@#@$@z /././././.%@&@*@=@-@;@g.>@,@. . ",
". . '@)@!@~@{@]@^@/@(@_@:@<@/././././././.[@}@|@1@2@3@4@5@6@. . ",
". . 7@8@9@0@a@b@]@c@d@e@f@g@/././././././.h@i@j@k@l@m@n@o@p@# . ",
". . q@r@s@t@u@v@w@x@+.f y@z@/./././././.b A@B@C@D@E@F@G@H@I@# . ",
". . J@K@L@M@N@O@P@Q@R@S@T@U@/./.V@V@W@V@X@Y@Z@`@ #.#F@G@+#I@# . ",
". . . @###$#%#&#*#T@=#-#;#>#W@,#'#)#!#~#{#]#^#/#(#_#:#<#[#}#$ . ",
". . . |#1#2#3#4#5#6#7#8#9#0#a#b#c#d#e#f#g#h#i#j#k#l#m#n#o#s . . ",
". . x+p#q#r#s#t#u#v#w#x#y#z#A#B#C#D#E#F#G#H#I#J#K#L#M#N#O#P#. . ",
". . Q#,+R#S#T#U#V#V#W#X#Y#Z#A#B#`# $.$+$@$#$$$%$&$*$=$-$;$>$. . ",
". ,$'$)$!$~${$]$^$/$($_$:$<$[$}$|$1$2$3$4$5$6$7$8$9$0$a$b$c$. . ",
". d$e$f$g$h$i$j$k$l$m$n$o$p$q$r$s$t$u$v$w$x$2+y$z$A$B$C$f.D$. . ",
". E$F$G$H$I$J$K$L$M$N$O$P$Q$g./.5$R$v+S$T$U$2+V$W$X$Y$Z$`$ %.%. ",
". . +%@%#%d+$%%%&%*%=%-%;%>%/./.,%'%)%!%~%{%]%^%/%(%_%:%<%[%}%. ",
". . . . |%1%2%3%4%5%6%7%8%9%/./.0%4@W$a%R+k@b%c%d%e%& . . . . . ",
". . . . . . c f%g%h%i%j%k%l%/./.m%n%o%p%q%r%s%t%. . . . . . . . ",
". . . . . . . . u%v%w%x%y%z%A%B%C%D%. . . . . . . . . . . . . . ",
". . . . . . . . +%E%F%G%H%I%J%K%. . . . . . . . . . . . . . . . ",
". . . . . . . . . . L%M%. . . . . . . . . . . . . . . . . . . . ",
". . . . . . . . . . . . . . . . . . . . . . . . . . . . . . . . "};
