/* XPM */
static char * print_dbinfo_xpm[] = {
"32 32 428 2",
"  	c None",
". 	c #313131",
"+ 	c #636363",
"@ 	c #8E8E8E",
"# 	c #919191",
"$ 	c #939393",
"% 	c #959595",
"& 	c #979797",
"* 	c #999999",
"= 	c #9B9B9B",
"- 	c #7D8678",
"; 	c #7CB25D",
"> 	c #8FA385",
", 	c #6A6A6A",
"' 	c #252525",
") 	c #909090",
"! 	c #898C89",
"~ 	c #A0A8A0",
"{ 	c #9EA89E",
"] 	c #9AA89A",
"^ 	c #96A696",
"/ 	c #879B87",
"( 	c #6E846D",
"_ 	c #637A62",
": 	c #6B7E69",
"< 	c #9A9A9A",
"[ 	c #272727",
"} 	c #161616",
"| 	c #878787",
"1 	c #8E988E",
"2 	c #ECFFEC",
"3 	c #E6FFE6",
"4 	c #E0FFE0",
"5 	c #D9FED9",
"6 	c #C8F2C6",
"7 	c #9BCA9A",
"8 	c #7DAC7D",
"9 	c #78A477",
"0 	c #828C82",
"a 	c #6C6C6C",
"b 	c #474747",
"c 	c #A1A1A1",
"d 	c #747474",
"e 	c #E3FBE3",
"f 	c #E1FFE0",
"g 	c #DAFFDA",
"h 	c #D4FFD3",
"i 	c #C7F6C6",
"j 	c #A5D6A4",
"k 	c #86B585",
"l 	c #82B180",
"m 	c #7A9A79",
"n 	c #9D9D9D",
"o 	c #90834C",
"p 	c #D5CB9B",
"q 	c #222222",
"r 	c #A7A7A7",
"s 	c #9EB19E",
"t 	c #DAFFD9",
"u 	c #D4FFD4",
"v 	c #CFFECF",
"w 	c #C2F3C2",
"x 	c #A4D4A3",
"y 	c #89BA88",
"z 	c #88B888",
"A 	c #87B486",
"B 	c #889288",
"C 	c #6D6D6D",
"D 	c #908347",
"E 	c #908450",
"F 	c #FEF8D6",
"G 	c #FEF6C8",
"H 	c #D5CB96",
"I 	c #6E6E6E",
"J 	c #969696",
"K 	c #7C807C",
"L 	c #D3FCD2",
"M 	c #D0FECF",
"N 	c #C9FAC9",
"O 	c #B8E9B8",
"P 	c #9ACA9A",
"Q 	c #8ABC8A",
"R 	c #8DBE8D",
"S 	c #90C190",
"T 	c #7B8D66",
"U 	c #988E66",
"V 	c #D5CC9E",
"W 	c #FEF6C7",
"X 	c #FEF6C5",
"Y 	c #C0B685",
"Z 	c #7A6F40",
"` 	c #FEFAE0",
" .	c #FEF8D2",
"..	c #FEF6C6",
"+.	c #202020",
"@.	c #9E9E9E",
"#.	c #898989",
"$.	c #B0D4B0",
"%.	c #CAFCCA",
"&.	c #C3F4C4",
"*.	c #B1E1B2",
"=.	c #98C897",
"-.	c #8EBF8E",
";.	c #83A36E",
">.	c #919565",
",.	c #D5CEAF",
"'.	c #FEF9DE",
").	c #FEF8D4",
"!.	c #FEF6CA",
"~.	c #ECE5B7",
"{.	c #9E9367",
"].	c #FEFBEA",
"^.	c #FEF9DC",
"/.	c #FEF6CE",
"(.	c #FAF2C2",
"_.	c #D4CCA4",
":.	c #6D612E",
"<.	c #90834D",
"[.	c #ACA06D",
"}.	c #151515",
"|.	c #8D8D8D",
"1.	c #879887",
"2.	c #BEEEBF",
"3.	c #ADDCAE",
"4.	c #99C899",
"5.	c #92C291",
"6.	c #909366",
"7.	c #D5D0B8",
"8.	c #FEFBEB",
"9.	c #FEFAE2",
"0.	c #FEF8D8",
"a.	c #FEF7CE",
"b.	c #ACA274",
"c.	c #FEFCF4",
"d.	c #FAF7E3",
"e.	c #ECE7C9",
"f.	c #D4CDA8",
"g.	c #938853",
"h.	c #9A8F61",
"i.	c #ACA175",
"j.	c #FEF7CF",
"k.	c #908348",
"l.	c #9C9C9C",
"m.	c #7C7C7C",
"n.	c #B6E6B6",
"o.	c #B8E8B9",
"p.	c #98C698",
"q.	c #8CBC8B",
"r.	c #79A378",
"s.	c #566B42",
"t.	c #7B784D",
"u.	c #D5CEAD",
"v.	c #CAC191",
"w.	c #D5CFB6",
"x.	c #D7D3C0",
"y.	c #9A9068",
"z.	c #ACA27C",
"A.	c #FEFAE4",
"B.	c #FEF7D1",
"C.	c #9F9F9F",
"D.	c #869E85",
"E.	c #B0DDB1",
"F.	c #A4D1A5",
"G.	c #84B184",
"H.	c #6D9C6D",
"I.	c #699768",
"J.	c #618C60",
"K.	c #527551",
"L.	c #4D5F38",
"M.	c #7E7B4C",
"N.	c #D5CCA2",
"O.	c #D1C899",
"P.	c #7D7038",
"Q.	c #ADA686",
"R.	c #938961",
"S.	c #FEFBED",
"T.	c #FEFAE6",
"U.	c #FEF8D9",
"V.	c #FEF7CC",
"W.	c #808580",
"X.	c #A4CEA5",
"Y.	c #A2CFA4",
"Z.	c #8CB98C",
"`.	c #76A576",
" +	c #7EAE7E",
".+	c #85B484",
"++	c #82AE82",
"@+	c #729772",
"#+	c #565B42",
"$+	c #494535",
"%+	c #7C7249",
"&+	c #D5CEB0",
"*+	c #FEF9DB",
"=+	c #8EAD8C",
"-+	c #9FCAA1",
";+	c #98C59A",
">+	c #93C293",
",+	c #98C998",
"'+	c #A1D2A0",
")+	c #A9DBA8",
"!+	c #B3E6B2",
"~+	c #B8EAB7",
"{+	c #A8A8A8",
"]+	c #7A6F3E",
"^+	c #DEDAC1",
"/+	c #968C5E",
"(+	c #968C5B",
"_+	c #968B58",
":+	c #968B56",
"<+	c #4B3E06",
"[+	c #594908",
"}+	c #838383",
"|+	c #7A8279",
"1+	c #93B694",
"2+	c #9BC69D",
"3+	c #9CC39C",
"4+	c #9CBE9C",
"5+	c #98B298",
"6+	c #9BAE9A",
"7+	c #9DA89D",
"8+	c #9A9C9A",
"9+	c #B6B6B6",
"0+	c #C4C4C4",
"a+	c #656565",
"b+	c #A09877",
"c+	c #ACA37E",
"d+	c #FEFCF0",
"e+	c #FEFAE5",
"f+	c #FEF9E0",
"g+	c #FEF9DA",
"h+	c #FEF8D5",
"i+	c #ACA06A",
"j+	c #2F2F2F",
"k+	c #3C3C3C",
"l+	c #545454",
"m+	c #B0B0B0",
"n+	c #B1B1B1",
"o+	c #BDBDBD",
"p+	c #C2C2C2",
"q+	c #A3A3A3",
"r+	c #C6C6C6",
"s+	c #BEBEBE",
"t+	c #635A32",
"u+	c #ACA27B",
"v+	c #FEF9DF",
"w+	c #FEF6C9",
"x+	c #ACA067",
"y+	c #4C4C4C",
"z+	c #646464",
"A+	c #3E3E3E",
"B+	c #A6A6A6",
"C+	c #B5B5B5",
"D+	c #B7B7B7",
"E+	c #C1C1C1",
"F+	c #BABABA",
"G+	c #8F8F8F",
"H+	c #858585",
"I+	c #ACA278",
"J+	c #F4ECBD",
"K+	c #9E935E",
"L+	c #595959",
"M+	c #696969",
"N+	c #717171",
"O+	c #555555",
"P+	c #686868",
"Q+	c #AFAFAF",
"R+	c #AAAAAA",
"S+	c #818181",
"T+	c #848484",
"U+	c #A5A5A5",
"V+	c #808080",
"W+	c #515151",
"X+	c #ACA275",
"Y+	c #FEF8D3",
"Z+	c #F4ECC5",
"`+	c #E2DAB2",
" @	c #B2A87A",
".@	c #8C804E",
"+@	c #665E3C",
"@@	c #434343",
"#@	c #707070",
"$@	c #787878",
"%@	c #737373",
"&@	c #7B7B7B",
"*@	c #A0A0A0",
"=@	c #B8B8B8",
"-@	c #ADADAD",
";@	c #8A8A8A",
">@	c #5A5A5A",
",@	c #727272",
"'@	c #989898",
")@	c #ACA172",
"!@	c #F4EECF",
"~@	c #E2DCBB",
"{@	c #B2A980",
"]@	c #8C804F",
"^@	c #403405",
"/@	c #4E4E4E",
"(@	c #505050",
"_@	c #565656",
":@	c #5E5E5E",
"<@	c #585858",
"[@	c #685E31",
"}@	c #8C8153",
"|@	c #ACA070",
"1@	c #D5CC9F",
"2@	c #FEF6CC",
"3@	c #ACA066",
"4@	c #6B633F",
"5@	c #2D2D2D",
"6@	c #777777",
"7@	c #7F7F7F",
"8@	c #AEAEAE",
"9@	c #B2B2B2",
"0@	c #181818",
"a@	c #D5CDAC",
"b@	c #766C40",
"c@	c #887D4F",
"d@	c #868686",
"e@	c #A2A2A2",
"f@	c #A9A9A9",
"g@	c #535353",
"h@	c #171717",
"i@	c #8D8253",
"j@	c #FEFAE9",
"k@	c #FEF8DA",
"l@	c #6B6342",
"m@	c #7A6C32",
"n@	c #282828",
"o@	c #626262",
"p@	c #ACACAC",
"q@	c #B4B4B4",
"r@	c #767676",
"s@	c #232323",
"t@	c #D5CEB6",
"u@	c #FEFAEB",
"v@	c #FEF8DB",
"w@	c #FEF6CB",
"x@	c #BCBCBC",
"y@	c #B3B3B3",
"z@	c #525252",
"A@	c #827644",
"B@	c #FEFCF1",
"C@	c #FEFBEC",
"D@	c #FEFAE7",
"E@	c #FEF9E2",
"F@	c #FEF8D7",
"G@	c #FEF7D2",
"H@	c #ACA06B",
"I@	c #908453",
"J@	c #ACA276",
"K@	c #C7C09D",
"L@	c #D5D0BC",
"M@	c #FEFCF3",
"N@	c #FEFAE8",
"O@	c #FEFAE3",
"P@	c #ACA380",
"Q@	c #A49B74",
"R@	c #FEFCF8",
"S@	c #FEFBEF",
"T@	c #FEFAEA",
"U@	c #ACA173",
"V@	c #938859",
"W@	c #847A48",
"X@	c #B8AF80",
"Y@	c #F4ECCF",
"Z@	c #FEFDF8",
"`@	c #FEFCEE",
" #	c #CAC4A7",
".#	c #D5D0BD",
"+#	c #FEFDF9",
"@#	c #FEFCF5",
"##	c #93895E",
"$#	c #847A4A",
"%#	c #B8B28E",
"&#	c #BCB273",
"*#	c #E8DAA0",
"=#	c #E6D89B",
"-#	c #EADFAE",
";#	c #F7F2D8",
">#	c #B5AF95",
",#	c #938A64",
"'#	c #847B50",
")#	c #B8B39A",
"!#	c #D4CEAD",
"~#	c #ECE5BD",
"{#	c #FAF2C3",
"]#	c #E2D8A0",
"^#	c #A69A53",
"/#	c #827628",
"(#	c #7A6F22",
"_#	c #433706",
":#	c #493C07",
"<#	c #9F8F50",
"[#	c #C0B070",
"}#	c #E0D08E",
"|#	c #CEC080",
"1#	c #B6AE89",
"2#	c #D4D0BC",
"3#	c #ECE8CE",
"4#	c #FAF5D4",
"5#	c #FEF7CD",
"6#	c #CDC181",
"7#	c #958636",
"8#	c #8D8030",
"9#	c #7C6E22",
"0#	c #6C5E17",
"a#	c #3F3406",
"b#	c #7A6B2F",
"c#	c #9B8A47",
"d#	c #DAC980",
"e#	c #D8C67C",
"f#	c #E1D292",
"g#	c #E0D39C",
"h#	c #BDAE68",
"i#	c #A0903F",
"j#	c #998939",
"k#	c #76661E",
"l#	c #5C4F13",
"m#	c #2A2304",
"n#	c #473A06",
"o#	c #988740",
"p#	c #B6A459",
"q#	c #BFAC5B",
"r#	c #928134",
"s#	c #7B6B22",
"t#	c #443806",
"u#	c #2B2404",
"    . . . . . . . . . .                                         ",
"  + @ # $ % & * = - ; > ,                                       ",
"' * ) ! ~ { ] ^ / ( _ : < [                                     ",
"} & | 1 2 3 4 5 6 7 8 9 0 a                                     ",
"  b c d e f g h i j k l m n [             o p                   ",
"  q r # s t u v w x y z A B C   D D     E F G H                 ",
"    I J K L M N O P Q R S T U V W X Y Z `  ...X H               ",
"    +.@.#.$.%.&.*.=.-.;.>.,.'.).!.~.{.].^./.(.~._.:.<.[.        ",
"    }.|.$ 1.w 2.3.4.5.6.7.8.9.0.a.b.c.d.e.f.g.h.i.^.F j.k.      ",
"      b l.m.n.o.3.p.q.r.s.t.u.^. .v.w.x.y.z.8.A.'.0.B.!.H       ",
"      q C.< D.E.F.G.H.I.J.K.L.M.N.O.P.Q.R.S.T.` U. .V...X D     ",
"        , < W.X.Y.Z.`.`. +.+++@+#+$+    %+&+9.*+).a.G X X H     ",
"        +.* ) =+-+;+>+,+'+)+!+~+B {+[     ]+^+/+(+_+:+:+:+:+<+[+",
"        }.}+C.|+1+2+3+4+5+6+7+8+9+0+a+      b+c+d+8.e+f+g+h+j.i+",
"      j+k+l+& m+% $ c n+o+p+q+r+s+l.J [     t+u+].A.v+g+).j.w+x+",
"    y+, z+A+J B+C+D+s+E+F+G+c ) H+l.G+'       I+A.'.U.).a.G J+K+",
"  L+M+N+d O+P+& Q+R+S+G+T+U+U+s+m+V+W+}       X+'.0.Y+Z+`+ @.@+@",
"@@M+#@$@V+%@y+&@*@Q+=@F+-@;@M+>@W+,@'@a       )@!@~@{@]@x+H X ^@",
"/@#@$@V+| |.&@L+(@_@:@<@/@, _@) < B+-@m+[     [@}@|@1@2@W X 3@4@",
"5@6@7@| @ J l.< ) I 6@;@% 6@k+,@8@9@C+J 0@  I+a@'.0.Y+a.w+X b@c@",
"  b d@@ J @.U+-@-@@.e@U+f@R+$@8@D+d g@h@  i@j@A.v+k@).j.!.x+l@m@",
"    n@o@n U+p@q@-@r R+8@n+C+J r@s@        t@u@e+f+v@F B.w@[+    ",
"        [ I q@x@-@Q+y@9+d z@h@        [+A@B@C@D@E@^.F@G@H@      ",
"            [ <@,@d s@'           I@J@K@L@M@S.N@O@'.U.Y+[+      ",
"                            [+P@w.C@d.Q@R@c.S@T@A.U@V@W@X@3@[+  ",
"                          [+Y@Z@M@`@ #.#+#@#z.##$#%#_.~.(.X &#[+",
"                          [+*#=#-#;#>#P@,#'#)#!#~#{#X ]#^#/#(#_#",
"                            :#<#[#}#|#1#2#3#4# .5#6#7#8#9#0#a#  ",
"                                  b#c#d#e#f#g#h#i#j#k#l#m#      ",
"                                      n#o#p#q#r#s#a#            ",
"                                            t#u#                ",
"                                                                "};
