/* XPM */
static char * save_xpm[] = {
"32 32 352 2",
"  	c None",
". 	c #3E180D",
"+ 	c #6B2C19",
"@ 	c #2F110A",
"# 	c #5A3029",
"$ 	c #C94F2D",
"% 	c #ED683C",
"& 	c #C04527",
"* 	c #160301",
"= 	c #3F3F3F",
"- 	c #AD655F",
"; 	c #B63920",
"> 	c #CC4C2B",
", 	c #AA2F1A",
"' 	c #240201",
") 	c #787878",
"! 	c #A66463",
"~ 	c #7C0705",
"{ 	c #830D07",
"] 	c #821E1C",
"^ 	c #030000",
"/ 	c #545454",
"( 	c #C1C1C1",
"_ 	c #B7A5A5",
": 	c #8C4545",
"< 	c #823232",
"[ 	c #8C6969",
"} 	c #000000",
"| 	c #83807A",
"1 	c #CECECE",
"2 	c #BCBCBC",
"3 	c #ADADAD",
"4 	c #909090",
"5 	c #242424",
"6 	c #070604",
"7 	c #CDB892",
"8 	c #CAC6BE",
"9 	c #BBBBBB",
"0 	c #BABABA",
"a 	c #858585",
"b 	c #6F6145",
"c 	c #D8B474",
"d 	c #C2A169",
"e 	c #B5A17E",
"f 	c #79705F",
"g 	c #101010",
"h 	c #060606",
"i 	c #080808",
"j 	c #262118",
"k 	c #C8AB76",
"l 	c #61533A",
"m 	c #514229",
"n 	c #BF964E",
"o 	c #372C16",
"p 	c #2F2F2F",
"q 	c #343434",
"r 	c #3E3E3E",
"s 	c #828282",
"t 	c #878787",
"u 	c #4A4A4A",
"v 	c #837150",
"w 	c #CAAE7C",
"x 	c #9B9A99",
"y 	c #9E8459",
"z 	c #69542A",
"A 	c #0C0C0C",
"B 	c #4F4F4F",
"C 	c #5E5E5E",
"D 	c #5D5D5D",
"E 	c #727272",
"F 	c #707070",
"G 	c #7D7D7D",
"H 	c #464646",
"I 	c #606060",
"J 	c #6D6D6D",
"K 	c #777777",
"L 	c #36322B",
"M 	c #D5B57A",
"N 	c #94856D",
"O 	c #A39B8D",
"P 	c #A58449",
"Q 	c #271F0F",
"R 	c #141414",
"S 	c #181818",
"T 	c #202020",
"U 	c #6B6B6B",
"V 	c #747474",
"W 	c #717171",
"X 	c #7E7E7E",
"Y 	c #C4C4C4",
"Z 	c #D3D3D3",
"` 	c #696867",
" .	c #9F8B66",
"..	c #EEBE6E",
"+.	c #A27E43",
"@.	c #927139",
"#.	c #6A552A",
"$.	c #333333",
"%.	c #7C7C7C",
"&.	c #4B4B4B",
"*.	c #737373",
"=.	c #838383",
"-.	c #A2A2A2",
";.	c #C0C0C0",
">.	c #E8E8E8",
",.	c #696969",
"'.	c #AAAAAA",
").	c #D3DDE0",
"!.	c #83A2AD",
"~.	c #504F45",
"{.	c #D3AF71",
"].	c #EEB75F",
"^.	c #ECB559",
"/.	c #B08943",
"(.	c #292110",
"_.	c #020202",
":.	c #7A7A7A",
"<.	c #555555",
"[.	c #636363",
"}.	c #B98F7E",
"|.	c #E6CFC6",
"1.	c #757575",
"2.	c #B6B6B6",
"3.	c #D0D1D1",
"4.	c #889093",
"5.	c #95A8AE",
"6.	c #CCE0E7",
"7.	c #9FBFCA",
"8.	c #A9CEDB",
"9.	c #C1DFE9",
"0.	c #939A9D",
"a.	c #AC9262",
"b.	c #EDB962",
"c.	c #EAB052",
"d.	c #DEA74D",
"e.	c #584723",
"f.	c #5A5A5A",
"g.	c #9C9C9C",
"h.	c #C9C9C9",
"i.	c #B0A6A3",
"j.	c #EEB6A1",
"k.	c #7A7675",
"l.	c #8AAAB5",
"m.	c #B1D5E2",
"n.	c #ADCBD5",
"o.	c #C8DBE2",
"p.	c #D1E2E8",
"q.	c #CFE2E9",
"r.	c #B7DBE8",
"s.	c #A1C7D4",
"t.	c #5C615A",
"u.	c #EBC075",
"v.	c #E9AE4E",
"w.	c #E6AA49",
"x.	c #B48B40",
"y.	c #37342C",
"z.	c #1C1D1E",
"A.	c #050505",
"B.	c #5C5C5C",
"C.	c #A7A7A7",
"D.	c #D6D7D8",
"E.	c #87969B",
"F.	c #93B2BD",
"G.	c #B1D5E3",
"H.	c #DEB2A1",
"I.	c #D9CEC9",
"J.	c #CDE0E6",
"K.	c #CADFE7",
"L.	c #BADBE6",
"M.	c #B5DAE7",
"N.	c #C6E0E9",
"O.	c #D3E5EB",
"P.	c #8F9493",
"Q.	c #AC9366",
"R.	c #E7AB4B",
"S.	c #E6A640",
"T.	c #CF993E",
"U.	c #5D4A24",
"V.	c #9CB0B8",
"W.	c #A5BFC8",
"X.	c #222222",
"Y.	c #CACBCC",
"Z.	c #D2DEE2",
"`.	c #C9DBE3",
" +	c #B7D8E3",
".+	c #B5CFD8",
"++	c #D8B1A1",
"@+	c #CFD5D7",
"#+	c #D3E3E8",
"$+	c #C5DFE8",
"%+	c #BADCE9",
"&+	c #C5DCE4",
"*+	c #605D4E",
"=+	c #DEAF61",
"-+	c #E4A239",
";+	c #E3A137",
">+	c #997533",
",+	c #655F53",
"'+	c #D9EAF0",
")+	c #DDEEF5",
"!+	c #87A3AD",
"~+	c #151D20",
"{+	c #1B1B1B",
"]+	c #474747",
"^+	c #D5DFE2",
"/+	c #D1DFE4",
"(+	c #CCDFE5",
"_+	c #C5DEE6",
":+	c #CDAEA1",
"<+	c #BBC7CA",
"[+	c #CFE3EA",
"}+	c #D4E5EB",
"|+	c #CEE2EA",
"1+	c #778387",
"2+	c #B8985F",
"3+	c #E4A43E",
"4+	c #E19B2E",
"5+	c #CE9333",
"6+	c #594E32",
"7+	c #96AEB7",
"8+	c #BDE2F0",
"9+	c #C9E7F2",
"0+	c #DDF0F6",
"a+	c #B3C6CD",
"b+	c #1C2021",
"c+	c #3D3D3D",
"d+	c #D2D2D2",
"e+	c #D6DFE3",
"f+	c #D2E3E8",
"g+	c #C4D5DB",
"h+	c #D0AFA3",
"i+	c #BED1D8",
"j+	c #CEE4EB",
"k+	c #BCCED4",
"l+	c #6D6B5D",
"m+	c #E0B160",
"n+	c #E2A645",
"o+	c #DB9627",
"p+	c #A57C32",
"q+	c #646460",
"r+	c #BEE3F0",
"s+	c #C0E4F1",
"t+	c #D5EDF5",
"u+	c #DFF2F8",
"v+	c #ACB3B5",
"w+	c #1E2122",
"x+	c #CEDEE3",
"y+	c #B6D9E5",
"z+	c #DBB4A4",
"A+	c #CACDCE",
"B+	c #95B5C0",
"C+	c #726C54",
"D+	c #EBCB8B",
"E+	c #EDCC8D",
"F+	c #C79844",
"G+	c #544629",
"H+	c #D2EAF3",
"I+	c #E3F2F7",
"J+	c #DEF0F7",
"K+	c #D3EDF6",
"L+	c #C4E7F3",
"M+	c #C5E7F3",
"N+	c #BFCCD0",
"O+	c #232323",
"P+	c #D9E1E4",
"Q+	c #C1DDE8",
"R+	c #D0E4EB",
"S+	c #DCE0E1",
"T+	c #E2B7A6",
"U+	c #9AA1A4",
"V+	c #7A6E4C",
"W+	c #D7B877",
"X+	c #D8B977",
"Y+	c #A1874F",
"Z+	c #606963",
"`+	c #C3E5F1",
" @	c #D7EEF5",
".@	c #DEF1F8",
"+@	c #EBF7FB",
"@@	c #FBFDFE",
"#@	c #EEF8FB",
"$@	c #CAE9F4",
"%@	c #87A4AE",
"&@	c #DDE3E5",
"*@	c #C1DEE8",
"=@	c #B8DDEA",
"-@	c #C5E2ED",
";@	c #9F8074",
">@	c #554B34",
",@	c #B79B5C",
"'@	c #977F4A",
")@	c #6B6860",
"!@	c #CDD5D8",
"~@	c #FAFBFB",
"{@	c #F0F7FA",
"]@	c #DFF1F8",
"^@	c #DDF0F8",
"/@	c #C9E9F4",
"(@	c #C0E5F2",
"_@	c #D0ECF6",
":@	c #F5FBFD",
"<@	c #F4F4F4",
"[@	c #C3C3C3",
"}@	c #D0D1D2",
"|@	c #E2E5E6",
"1@	c #BBDDE9",
"2@	c #BEE0EC",
"3@	c #7F9095",
"4@	c #2B2A28",
"5@	c #4C4432",
"6@	c #6B675D",
"7@	c #C7E6F2",
"8@	c #CCEAF4",
"9@	c #E2F3F9",
"0@	c #F3F3F3",
"a@	c #E0E0E0",
"b@	c #D4D4D4",
"c@	c #CBCBCB",
"d@	c #BFBFBF",
"e@	c #E7E7E7",
"f@	c #EBEFF0",
"g@	c #727C7F",
"h@	c #1C1C1C",
"i@	c #6D6561",
"j@	c #B6C3C6",
"k@	c #CEE9F3",
"l@	c #F3F8FA",
"m@	c #F5F5F5",
"n@	c #EFEFEF",
"o@	c #E6E6E6",
"p@	c #D5D5D5",
"q@	c #B5B5B5",
"r@	c #A5A5A5",
"s@	c #D9E3E6",
"t@	c #B1BEC2",
"u@	c #9E9E9E",
"v@	c #ECE6E4",
"w@	c #F3C0AC",
"x@	c #E0DBDA",
"y@	c #D6D6D6",
"z@	c #CCCCCC",
"A@	c #494949",
"B@	c #262626",
"C@	c #131313",
"D@	c #E3E3E3",
"E@	c #BEBEBE",
"F@	c #434343",
"G@	c #171717",
"H@	c #CDCDCD",
"I@	c #C6C6C6",
"J@	c #2B2B2B",
"K@	c #424242",
"                                                                ",
"                                                  . + @         ",
"                                                # $ % & *       ",
"                                              = - ; > , '       ",
"                                              ) ! ~ { ] ^       ",
"                                            / ( _ : < [ }       ",
"                                            | 1 2 3 4 5         ",
"                                          6 7 8 9 0 a           ",
"                                          b c d e f g           ",
"                              h i       j k l m n o             ",
"                        p q r s t u     v w x y z               ",
"                A B C D E F G H I J K L M N O P Q               ",
"      R S T U V W I C ) I X E Y Z X `  ...+.@.#.                ",
"    $.E V %.&.H *.=.-.%.;.>.,.'.).!.~.{.].^./.(.                ",
"  _.:.<.I [.}.|.1.2.3.4.5.6.7.8.9.0.a.b.c.d.e.                  ",
"  A f.g.h.*.i.j.k.l.m.n.o.p.q.r.s.t.u.v.w.x.y.z.                ",
"  A.B.C.D.E.F.G.H.I.J.K.L.M.N.O.P.Q.R.S.T.U.V.W.X.              ",
"    r :.Y.Z.`. +.+++@+#+$+r.%+&+*+=+-+;+>+,+'+)+!+~+            ",
"      {+]+2 ^+/+(+_+:+<+[+}+|+1+2+3+4+5+6+7+8+9+0+a+b+          ",
"          c+d+e+(+f+g+h+i+j+k+l+m+n+o+p+q+q.r+s+t+u+v+w+        ",
"            c+2 x+y+q.}+z+A+B+C+D+E+F+G+n.H+I+J+K+L+M+N+O+      ",
"              c+d+P+Q+R+S+T+U+V+W+X+Y+Z+8+`+ @.@+@@@#@$@%@b+    ",
"                c+2 &@*@=@-@;@>@,@'@)@!@~@{@]@^@/@(@_@:@<@[@    ",
"                  c+}@|@1@2@3@4@5@6@^+7@s+8@u+9@:@0@a@b@c@d@}   ",
"                    c+2 e@f@g@h@i@j@k@l@m@n@o@p@[@d@9 q@r@4     ",
"                      c+d+s@t@u@v@w@x@y@z@( 2 d@q@u@F A@B@C@    ",
"                        c+2 D@Z ( E@9 q@r@4 U F@G@_.            ",
"                          c+H@I@q@u@F A@B@C@                    ",
"                            J@K@G@_.                            ",
"                                                                ",
"                                                                ",
"                                                                "};
