/* XPM */
static char * reset_xpm[] = {
"32 32 178 2",
"  	c None",
". 	c #020204",
"+ 	c #D2D2D3",
"@ 	c #EEEEEC",
"# 	c #D6D6D4",
"$ 	c #F2F2F4",
"% 	c #CECECA",
"& 	c #B6B6B4",
"* 	c #B2B2B4",
"= 	c #7E7E7C",
"- 	c #828284",
"; 	c #060604",
"> 	c #1A1A1C",
", 	c #5E5E5E",
"' 	c #3E3E3C",
") 	c #161614",
"! 	c #8D8D8D",
"~ 	c #5E5E5C",
"{ 	c #4A4A4C",
"] 	c #9A9A9C",
"^ 	c #363634",
"/ 	c #BDBDBD",
"( 	c #121214",
"_ 	c #C2BA3E",
": 	c #D6CE54",
"< 	c #FEFE86",
"[ 	c #F2EE84",
"} 	c #FEFA9A",
"| 	c #525254",
"1 	c #0A0A0C",
"2 	c #E2DE54",
"3 	c #323224",
"4 	c #3E3A0C",
"5 	c #CECA44",
"6 	c #FAF684",
"7 	c #E6924C",
"8 	c #E25234",
"9 	c #FEE684",
"0 	c #FEFE87",
"a 	c #222224",
"b 	c #FEFABD",
"c 	c #8A8A64",
"d 	c #625E1C",
"e 	c #E6DE5C",
"f 	c #EAAA5C",
"g 	c #DA362C",
"h 	c #EE663C",
"i 	c #FEF694",
"j 	c #C2BF90",
"k 	c #FEFEEF",
"l 	c #F6EE8C",
"m 	c #DAD654",
"n 	c #F6F67C",
"o 	c #F6DE7C",
"p 	c #D64E2C",
"q 	c #DE4A2C",
"r 	c #FADE8C",
"s 	c #C2C297",
"t 	c #D6D24C",
"u 	c #F19654",
"v 	c #EA7E44",
"w 	c #FEF69C",
"x 	c #E68E54",
"y 	c #CE1611",
"z 	c #EA6E44",
"A 	c #FEFAA7",
"B 	c #FAFADC",
"C 	c #FEFED4",
"D 	c #F2F2C4",
"E 	c #DAD644",
"F 	c #FAFA84",
"G 	c #F6C26C",
"H 	c #CE1E14",
"I 	c #CA160C",
"J 	c #CA0A0C",
"K 	c #D21A14",
"L 	c #D63A24",
"M 	c #E26A4C",
"N 	c #F29E70",
"O 	c #FABE8C",
"P 	c #FEE2AC",
"Q 	c #FEF2B8",
"R 	c #FEFEC9",
"S 	c #FEFACC",
"T 	c #9D931A",
"U 	c #9E9624",
"V 	c #B2AA1C",
"W 	c #96923C",
"X 	c #FAF28C",
"Y 	c #FEFA86",
"Z 	c #F6E274",
"` 	c #CA0E0C",
" .	c #EA825C",
"..	c #EA9E6C",
"+.	c #E6B27C",
"@.	c #EEBE8C",
"#.	c #F6CA94",
"$.	c #FADAA4",
"%.	c #FEE6A8",
"&.	c #FAEEC4",
"*.	c #FAF6BC",
"=.	c #F6F6D4",
"-.	c #A29A1C",
";.	c #B6AE1F",
">.	c #C2BA24",
",.	c #CAC224",
"'.	c #D6D23C",
").	c #B2AA04",
"!.	c #D6D254",
"~.	c #EEEA6C",
"{.	c #FEFEA4",
"].	c #FAEA9C",
"^.	c #E6764C",
"/.	c #D6261C",
"(.	c #F6F6A4",
"_.	c #FEFAB4",
":.	c #FAFAC4",
"<.	c #AAA21C",
"[.	c #BAAE1C",
"}.	c #C6BE1C",
"|.	c #C6C23C",
"1.	c #FEFA84",
"2.	c #EAE248",
"3.	c #C6BE30",
"4.	c #FAE290",
"5.	c #E65A44",
"6.	c #FEEAA4",
"7.	c #FEF6B4",
"8.	c #AEA61C",
"9.	c #D2CA30",
"0.	c #DAD22C",
"a.	c #CAC244",
"b.	c #969220",
"c.	c #8E8A1C",
"d.	c #D2CE4C",
"e.	c #F2EE9C",
"f.	c #FEFEB4",
"g.	c #FAEEB0",
"h.	c #FAE69C",
"i.	c #BAB224",
"j.	c #DED63C",
"k.	c #F6F268",
"l.	c #EEE652",
"m.	c #CEC64C",
"n.	c #A6A234",
"o.	c #8A8614",
"p.	c #827A14",
"q.	c #665E04",
"r.	c #E2DE8C",
"s.	c #EEEAB4",
"t.	c #FEF68A",
"u.	c #AEAA34",
"v.	c #A29E1C",
"w.	c #4A4A04",
"x.	c #E6E29C",
"y.	c #E6E28C",
"z.	c #E2DA50",
"A.	c #DED654",
"B.	c #AAA22C",
"C.	c #928E1C",
"D.	c #827E10",
"E.	c #F6F294",
"F.	c #F6F27C",
"G.	c #FAF677",
"H.	c #BEB64C",
"I.	c #9A961C",
"J.	c #928A1C",
"K.	c #565208",
"L.	c #F2EE77",
"M.	c #FAF284",
"N.	c #F2EA7C",
"O.	c #C6C254",
"P.	c #968E18",
"Q.	c #9E9A24",
"R.	c #8A8214",
"S.	c #666208",
"T.	c #BEB634",
"U.	c #524E04",
"                                                            . + ",
"                                                          . + @ ",
"                                                        . + @ @ ",
"                                                      . # $ @ % ",
"                                                    . + @ @ % & ",
"                                                  . # $ @ % * = ",
"                                                . + $ @ % & = . ",
"                                              . + @ @ % * - .   ",
"                                            ; & $ @ % & = .     ",
"                                          > , ' @ % * - .       ",
"                                        ) , ! ~ { ] - .         ",
"                                .     . ^ ! / , ( ; .           ",
"                            . . _ . . . > ] , ) . .             ",
"                        . . : < < [ } | ] ) 1 . .               ",
"                    . . 2 < < < } } | ] | 3 . 4 . .             ",
"                . . 5 < 6 7 8 9 0 } ' a ) . b b c d . . . .     ",
"            . . e < < < f g h i } a . . b b j j j j j k k l .   ",
"        . . m n 0 0 0 o p q r i } . . b s j j j j k k k l .     ",
"    . . t < < u v u w x y z A A A b b b b b b B C B D l .       ",
"  . E F < < G 8 p H y I J y K K L M N O P Q C R S l T U V . .   ",
". W X Y < < < < Z 8 8 ` g  ...+.@.#.$.%.&.*.=.l T -.;.>.,.'.'.. ",
". ).).!.~.0 } } {.} ].^./...(._._.:.:.:.*.l T <.[.}.,.'.'.|.U . ",
". 1.2.).).3.F } A A A 4.8 5.6.:._.b 7.l T 8.>.,.9.0.'.a.b.c.d.. ",
". ).).1.2.).).m e.A f.f.g.8 h._.(.l T i.,.0.j.k.l.m.n.o.d.p.q.. ",
"  . . ).).1.2.).).r.s.B b b 7.l T ;.,.j.2.t.k.m u.b.d.v.w.. .   ",
"      . . ).).1.2.).).r.x.y.;.;.z.z.t.t.t.A.B.C.d.D.q.. .       ",
"          . . ).).1.2.).).E.F.F.6 G.6 e H.I.d.J.K.. .           ",
"              . . ).).1.2.).).L.M.N.O.n.d.P.K.. .               ",
"                  . . ).).1.2.)._ Q.d.R.S.. .                   ",
"                      . . ).).1.T.<.U.. .                       ",
"                          . . ).p.. .                           ",
"                              . .                               "};
