/* XPM */
static char * save_xpm[] = {
"32 32 432 2",
"  	c None",
". 	c #3A3A3A",
"+ 	c #333333",
"@ 	c #6C6C6C",
"# 	c #AEAEAE",
"$ 	c #747474",
"% 	c #3F3F3F",
"& 	c #666666",
"* 	c #A9A9A9",
"= 	c #7B7B7B",
"- 	c #A4A9A9",
"; 	c #ABAFAF",
"> 	c #525252",
", 	c #626262",
"' 	c #A6A6A6",
") 	c #808080",
"! 	c #AAAAAA",
"~ 	c #C3DBDB",
"{ 	c #C0D9D9",
"] 	c #A7AAAA",
"^ 	c #505050",
"/ 	c #5F5F5F",
"( 	c #A3A3A3",
"_ 	c #949B9B",
": 	c #E8F1F1",
"< 	c #FFFFFF",
"[ 	c #BFD8D8",
"} 	c #A5A9A9",
"| 	c #4E4E4E",
"1 	c #5C5C5C",
"2 	c #A2A2A2",
"3 	c #7D7D7D",
"4 	c #A0A0A0",
"5 	c #DCEAEA",
"6 	c #B5D2D2",
"7 	c #BCD7D7",
"8 	c #A7A9A9",
"9 	c #494949",
"0 	c #5E5E5E",
"a 	c #9F9F9F",
"b 	c #6B7171",
"c 	c #3A6464",
"d 	c #C3C3C3",
"e 	c #D8E8E8",
"f 	c #B8D4D4",
"g 	c #E9F2F2",
"h 	c #BBD6D6",
"i 	c #484848",
"j 	c #989898",
"k 	c #6D6F6F",
"l 	c #255555",
"m 	c #654848",
"n 	c #406B6B",
"o 	c #C2C2C2",
"p 	c #D5E6E6",
"q 	c #ECF3F3",
"r 	c #BAD4D4",
"s 	c #A4A4A4",
"t 	c #4A4A4A",
"u 	c #919191",
"v 	c #6D6D6D",
"w 	c #666767",
"x 	c #605050",
"y 	c #077676",
"z 	c #457070",
"A 	c #C4C4C4",
"B 	c #D4E5E5",
"C 	c #F0F6F6",
"D 	c #B4CECE",
"E 	c #8C8C8C",
"F 	c #6B6B6B",
"G 	c #6A6A6A",
"H 	c #616767",
"I 	c #185B5B",
"J 	c #008080",
"K 	c #087474",
"L 	c #497171",
"M 	c #C8C8C8",
"N 	c #AFCFCF",
"O 	c #F5F9F9",
"P 	c #FCFDFD",
"Q 	c #CCE0E0",
"R 	c #F1F1F1",
"S 	c #969696",
"T 	c #2B2B2B",
"U 	c #323232",
"V 	c #737374",
"W 	c #6C6C6D",
"X 	c #8D8D8D",
"Y 	c #909090",
"Z 	c #8A8A8A",
"` 	c #5D6666",
" .	c #175C5C",
"..	c #087373",
"+.	c #4A7070",
"@.	c #CECECE",
"#.	c #D6E6E6",
"$.	c #A6CACA",
"%.	c #E1E1E1",
"&.	c #6F6F6F",
"*.	c #474747",
"=.	c #4A4A4B",
"-.	c #808081",
";.	c #848484",
">.	c #8B8B8B",
",.	c #898989",
"'.	c #828282",
").	c #586262",
"!.	c #165D5D",
"~.	c #525757",
"{.	c #BC1919",
"].	c #8E4B4B",
"^.	c #D6D6D6",
"/.	c #D9E8E8",
"(.	c #FEFEFE",
"_.	c #EAEAEA",
":.	c #696969",
"<.	c #6A6A6C",
"[.	c #282828",
"}.	c #303030",
"|.	c #535353",
"1.	c #838383",
"2.	c #535E5E",
"3.	c #892525",
"4.	c #E55050",
"5.	c #CFB9B9",
"6.	c #818181",
"7.	c #E0E0E0",
"8.	c #F6F6F6",
"9.	c #616161",
"0.	c #686869",
"a.	c #7D7D7F",
"b.	c #3D3D3D",
"c.	c #4D4D4D",
"d.	c #C1C1C1",
"e.	c #A5A5A5",
"f.	c #7F7F7F",
"g.	c #7C7C7C",
"h.	c #757575",
"i.	c #624D4D",
"j.	c #AC9797",
"k.	c #DADADA",
"l.	c #717171",
"m.	c #ECECEC",
"n.	c #5B5B5B",
"o.	c #666667",
"p.	c #848486",
"q.	c #3B3B3B",
"r.	c #444444",
"s.	c #CDCDCD",
"t.	c #9D9D9D",
"u.	c #424242",
"v.	c #787878",
"w.	c #777777",
"x.	c #595959",
"y.	c #B7B7B7",
"z.	c #D5D5D5",
"A.	c #2D8787",
"B.	c #424F4F",
"C.	c #646464",
"D.	c #8C8C90",
"E.	c #383839",
"F.	c #30395B",
"G.	c #30395A",
"H.	c #303959",
"I.	c #3B3C41",
"J.	c #929292",
"K.	c #727272",
"L.	c #707070",
"M.	c #6E6E6E",
"N.	c #1A7070",
"O.	c #284646",
"P.	c #5F6060",
"Q.	c #959599",
"R.	c #353535",
"S.	c #303B5E",
"T.	c #303C5E",
"U.	c #35597E",
"V.	c #3A6E96",
"W.	c #3B6F97",
"X.	c #383E42",
"Y.	c #D7D7D7",
"Z.	c #454545",
"`.	c #676767",
" +	c #606061",
".+	c #949498",
"++	c #34373B",
"@+	c #303A57",
"#+	c #343434",
"$+	c #383838",
"%+	c #3E4D5A",
"&+	c #305E85",
"*+	c #32648D",
"=+	c #34678F",
"-+	c #366991",
";+	c #386C93",
">+	c #3B6D94",
",+	c #31373B",
"'+	c #606060",
")+	c #464646",
"!+	c #8C8C8F",
"~+	c #3B4045",
"{+	c #21507A",
"]+	c #295376",
"^+	c #5A5A5A",
"/+	c #B0B0B1",
"(+	c #464647",
"_+	c #636363",
":+	c #D3D4D5",
"<+	c #A9AAAA",
"[+	c #415261",
"}+	c #2E5B81",
"|+	c #2F618A",
"1+	c #366A91",
"2+	c #39698D",
"3+	c #454C53",
"4+	c #858588",
"5+	c #41484F",
"6+	c #224E75",
"7+	c #285882",
"8+	c #335673",
"9+	c #717172",
"0+	c #E0E0E2",
"a+	c #D1D1D3",
"b+	c #7F8081",
"c+	c #4E4F4F",
"d+	c #3E3E3F",
"e+	c #C4C5C6",
"f+	c #CBCCCD",
"g+	c #909192",
"h+	c #2E475D",
"i+	c #2B5C86",
"j+	c #2D5F88",
"k+	c #31597B",
"l+	c #335978",
"m+	c #345C7A",
"n+	c #376384",
"o+	c #4B545B",
"p+	c #737375",
"q+	c #4F4F50",
"r+	c #626263",
"s+	c #808082",
"t+	c #474F57",
"u+	c #264562",
"v+	c #294E6E",
"w+	c #315572",
"x+	c #6E6E6F",
"y+	c #D3D3D5",
"z+	c #B7B7B9",
"A+	c #89898A",
"B+	c #9DA0A1",
"C+	c #BDC0C2",
"D+	c #646565",
"E+	c #3E3E3E",
"F+	c #BDBDBE",
"G+	c #8C8D8D",
"H+	c #2C445A",
"I+	c #275781",
"J+	c #2B5274",
"K+	c #4F575E",
"L+	c #5A5A5B",
"M+	c #5B5C5D",
"N+	c #335773",
"O+	c #355E7E",
"P+	c #33424E",
"Q+	c #565F66",
"R+	c #294157",
"S+	c #585F66",
"T+	c #656566",
"U+	c #D9D9DB",
"V+	c #ADADAE",
"W+	c #959596",
"X+	c #616263",
"Y+	c #979A9B",
"Z+	c #BBBEC0",
"`+	c #7A7B7C",
" @	c #B5B6B7",
".@	c #888989",
"+@	c #2A4258",
"@@	c #264C6D",
"#@	c #4D5760",
"$@	c #A0A1A2",
"%@	c #B8BABB",
"&@	c #BBBCBE",
"*@	c #5C6368",
"=@	c #33546E",
"-@	c #34566F",
";@	c #344654",
">@	c #535354",
",@	c #6F6F70",
"'@	c #C9C9CB",
")@	c #AAAAAB",
"!@	c #A3A3A4",
"~@	c #9B9B9C",
"{@	c #6A6C6C",
"]@	c #8A8D8E",
"^@	c #BFC2C4",
"/@	c #A3A5A7",
"(@	c #7F8080",
"_@	c #7E7E7E",
":@	c #888888",
"<@	c #404040",
"[@	c #7C7D7D",
"}@	c #8F8F90",
"|@	c #5F676F",
"1@	c #224363",
"2@	c #2A3C4E",
"3@	c #848586",
"4@	c #ADAFB0",
"5@	c #B3B4B5",
"6@	c #B9BABB",
"7@	c #BFC0C2",
"8@	c #B3B3B5",
"9@	c #727273",
"0@	c #747475",
"a@	c #AEAEB0",
"b@	c #B2B2B4",
"c@	c #98989A",
"d@	c #78797A",
"e@	c #737576",
"f@	c #818384",
"g@	c #C5C8CA",
"h@	c #9B9D9F",
"i@	c #878889",
"j@	c #797979",
"k@	c #606167",
"l@	c #2B3A54",
"m@	c #1E436E",
"n@	c #21405E",
"o@	c #586067",
"p@	c #9C9D9E",
"q@	c #B3B5B6",
"r@	c #B9BABC",
"s@	c #C5C6C7",
"t@	c #B0B1B2",
"u@	c #878788",
"v@	c #8A8A8B",
"w@	c #828384",
"x@	c #7D7F80",
"y@	c #C7CBCD",
"z@	c #959798",
"A@	c #939597",
"B@	c #8A8C8D",
"C@	c #767676",
"D@	c #868686",
"E@	c #7A7A7A",
"F@	c #272932",
"G@	c #242B44",
"H@	c #243658",
"I@	c #253F66",
"J@	c #2E3642",
"K@	c #898B8B",
"L@	c #A8AAAB",
"M@	c #A9AAAC",
"N@	c #797A7B",
"O@	c #808282",
"P@	c #B1B4B6",
"Q@	c #9FA1A2",
"R@	c #8C8E8E",
"S@	c #565656",
"T@	c #2F2F2F",
"U@	c #232A43",
"V@	c #22242B",
"W@	c #565757",
"X@	c #A4A6A7",
"Y@	c #AEB0B1",
"Z@	c #A4A5A6",
"`@	c #707172",
" #	c #818283",
".#	c #7B7C7C",
"+#	c #858585",
"@#	c #545454",
"##	c #2D2D2D",
"$#	c #274326",
"%#	c #2C522B",
"&#	c #212121",
"*#	c #5B5C5C",
"=#	c #949697",
"-#	c #9A9C9D",
";#	c #787879",
">#	c #8F8F8F",
",#	c #939393",
"'#	c #8E8E8E",
")#	c #878787",
"!#	c #2E2E2E",
"~#	c #254124",
"{#	c #90AB8E",
"]#	c #1E2E1D",
"^#	c #545555",
"/#	c #87898A",
"(#	c #979797",
"_#	c #949494",
":#	c #434343",
"<#	c #191919",
"[#	c #254125",
"}#	c #9DB19C",
"|#	c #9EE0A3",
"1#	c #0D140D",
"2#	c #232323",
"3#	c #525353",
"4#	c #838586",
"5#	c #363636",
"6#	c #151515",
"7#	c #233F23",
"8#	c #99AD99",
"9#	c #BBECC0",
"0#	c #48D440",
"a#	c #052303",
"b#	c #303131",
"c#	c #404041",
"d#	c #4B4B4B",
"e#	c #3C3C3C",
"f#	c #101010",
"g#	c #244323",
"h#	c #94AA93",
"i#	c #BDECC2",
"j#	c #64DE5B",
"k#	c #2BB720",
"l#	c #042602",
"m#	c #1F1F1F",
"n#	c #7F9D7D",
"o#	c #A3E0A6",
"p#	c #4AD443",
"q#	c #26B41D",
"r#	c #2BA126",
"s#	c #052403",
"t#	c #20371F",
"u#	c #0A1B0A",
"v#	c #042403",
"w#	c #032201",
"x#	c #032102",
"y#	c #011A00",
"                              . +                               ",
"                            @ # $ %                             ",
"                          & * = - ; >                           ",
"                        , ' ) ! ~ { ] ^                         ",
"                      / ( ) _ : < [ ~ } |                       ",
"                    1 2 3 4 5 6 : < 7 ~ 8 9                     ",
"                  0 a b c d < e f g < h { ' i                   ",
"                / j k l m n o < p f q < h r s t                 ",
"              / u v w l x y z A < B 6 C < 7 D ( t               ",
"            0 E F G u H I J K L M < B N O P Q R S T             ",
"          U V W G X Y Z `  .J ..+.@.< #.$.P < %.&.*.            ",
"            =.-.0 ;.>.,.'.).!.~.{.].^.< /.(._.:.G <.[.          ",
"            }.* * |.'.;.1.= 2.3.4.5.6.7.< 8.9.0.a.b.            ",
"              c.d.e.i f.3 g.h.i.j.k.^.l.m.n.o.p.q.              ",
"                r.s.t.u.v.w.h.&.x.y.z.A.B.C.D.E.                ",
"            F.G.H.I.k.J.u.K.L.M.F | N.O.P.Q.R.                  ",
"        S.T.U.V.W.W.X.Y.'.Z.F :.`.C.u. +.+++@+#+$+              ",
"    Z.%+&+*+=+-+;+V.>+,+#+W & C.'+)+/ !+~+{+]+^+/+(+(+b.        ",
"  _+:+<+[+}+|+*+=+1+;+2+3+p.0.1 i 0 4+5+6+7+8+9+0+0+a+b+c+      ",
"d+e+f+:+g+h+i+j+k+l+m+1+n+o+p+q+r+s+t+u+v+w+x+0+y+z+A+B+C+D+    ",
"E+F+e+f+G+H+I+J+K+L+M+N+m+O+P+Q+s+q+R+S+T+W U+V+W+X+Y+Z+`+;.u.  ",
"b. @F+e+.@+@@@#@$@%@&@D+*@=@-@;@>@,@,@'@)@!@~@{@]@^@/@(@_@:@<@  ",
"E.[@}@)@|@1@2@3@4@5@6@7@8@L.9@0@a@b@c@c@d@e@f@g@h@i@`.j@;._@%   ",
"  T r.k@l@m@n@o@p@4@q@r@7@s@t@u@v@w@x@x@y@z@A@B@@ C@D@) E@$ b.  ",
"      F@G@H@I@J@K@L@4@q@r@M@N@x@O@P@Q@R@R@h.l.h.:@1.g.C@L.S@T@  ",
"            U@V@W@X+X@Y@Z@`@z@Q@b+ #.#j@w.Y >.+#f.v.K.v @###$#%#",
"                  &#*#L@=#W@-#;#3 3 >#,#'#)#6.= h.&.x.Z.!#~#{#]#",
"                      ^#c+^#/#&.(#_#>#Z ;.3 w.l.'+:#+ <#[#}#|#1#",
"                        2#3#4#M.u E D@) E@l.u.<@5#6#  7#8#9#0#a#",
"                          b#c#0 :@'.g.d#E+e#f#      g#h#i#j#k#l#",
"                              T@e#q.q.m#            n#o#p#q#r#s#",
"                                                    t#u#v#w#x#y#"};
