/* XPM */
static char * scan1d_xpm[] = {
"32 32 186 2",
"  	c None",
". 	c #3F3831",
"+ 	c #3A322E",
"@ 	c #514740",
"# 	c #4C423D",
"$ 	c #403735",
"% 	c #514542",
"& 	c #564B45",
"* 	c #423835",
"= 	c #3C352F",
"- 	c #594F46",
"; 	c #574D46",
"> 	c #5C5545",
", 	c #574F42",
"' 	c #5E5448",
") 	c #5D5249",
"! 	c #544B44",
"~ 	c #554E3E",
"{ 	c #453E34",
"] 	c #423B32",
"^ 	c #574E42",
"/ 	c #484038",
"( 	c #413835",
"_ 	c #514442",
": 	c #3D3433",
"< 	c #4E4142",
"[ 	c #675D4C",
"} 	c #5B5244",
"| 	c #433D32",
"1 	c #423834",
"2 	c #524643",
"3 	c #362E2C",
"4 	c #473C3B",
"5 	c #5F5747",
"6 	c #6A614F",
"7 	c #69604D",
"8 	c #443D32",
"9 	c #4F453E",
"0 	c #372D2B",
"a 	c #646052",
"b 	c #413734",
"c 	c #484235",
"d 	c #6A5F4E",
"e 	c #635A4B",
"f 	c #5D5448",
"g 	c #61544A",
"h 	c #675244",
"i 	c #5D4743",
"j 	c #687B59",
"k 	c #6C965F",
"l 	c #69925C",
"m 	c #5E5C4E",
"n 	c #3C3231",
"o 	c #554C41",
"p 	c #5D5348",
"q 	c #A56841",
"r 	c #946044",
"s 	c #835037",
"t 	c #77523D",
"u 	c #69865C",
"v 	c #688C5B",
"w 	c #628354",
"x 	c #626E52",
"y 	c #4C3F40",
"z 	c #4B3E3F",
"A 	c #62584A",
"B 	c #62574B",
"C 	c #7F604C",
"D 	c #895439",
"E 	c #7B4832",
"F 	c #6B3E2E",
"G 	c #676D51",
"H 	c #648657",
"I 	c #607E54",
"J 	c #648856",
"K 	c #4E4241",
"L 	c #332B2C",
"M 	c #50493C",
"N 	c #665C4D",
"O 	c #4B4339",
"P 	c #54453B",
"Q 	c #8C5337",
"R 	c #78422C",
"S 	c #704939",
"T 	c #564B46",
"U 	c #645D4A",
"V 	c #725642",
"W 	c #79503D",
"X 	c #534542",
"Y 	c #594F45",
"Z 	c #433D33",
"` 	c #403931",
" .	c #453D37",
"..	c #41454B",
"+.	c #635E4B",
"@.	c #607355",
"#.	c #595C4C",
"$.	c #B66B42",
"%.	c #8C553A",
"&.	c #79462F",
"*.	c #62453C",
"=.	c #493A3E",
"-.	c #2D2328",
";.	c #534A41",
">.	c #3D3630",
",.	c #5B5047",
"'.	c #636A53",
").	c #6C9460",
"!.	c #698F5B",
"~.	c #5E7B53",
"{.	c #7C4F3E",
"].	c #834F35",
"^.	c #75422D",
"/.	c #6A473B",
"(.	c #392E31",
"_.	c #473A3E",
":.	c #4C453A",
"<.	c #5F554A",
"[.	c #494138",
"}.	c #5D5248",
"|.	c #5C5B4B",
"1.	c #6B8F5D",
"2.	c #648756",
"3.	c #6B975C",
"4.	c #5F4740",
"5.	c #80513C",
"6.	c #634238",
"7.	c #544342",
"8.	c #433738",
"9.	c #584F42",
"0.	c #584E47",
"a.	c #6E9560",
"b.	c #648056",
"c.	c #617152",
"d.	c #4D4243",
"e.	c #423638",
"f.	c #2D2428",
"g.	c #554A44",
"h.	c #544843",
"i.	c #43353C",
"j.	c #41343C",
"k.	c #2B2127",
"l.	c #5F5549",
"m.	c #594E47",
"n.	c #584C46",
"o.	c #372D30",
"p.	c #46383E",
"q.	c #251D21",
"r.	c #5C5148",
"s.	c #473F38",
"t.	c #372F2D",
"u.	c #4D3F40",
"v.	c #392F31",
"w.	c #372C30",
"x.	c #45373E",
"y.	c #564D41",
"z.	c #483F38",
"A.	c #000000",
"B.	c #342C2C",
"C.	c #4E4041",
"D.	c #110D10",
"E.	c #281E25",
"F.	c #2F2925",
"G.	c #3F3534",
"H.	c #473C3A",
"I.	c #50473E",
"J.	c #463A3A",
"K.	c #31272A",
"L.	c #2C2227",
"M.	c #453B36",
"N.	c #483A3E",
"O.	c #221A1E",
"P.	c #3C3232",
"Q.	c #3B3132",
"R.	c #4D433E",
"S.	c #504442",
"T.	c #4F4241",
"U.	c #3D3333",
"V.	c #161213",
"W.	c #39312D",
"X.	c #25201E",
"Y.	c #3E3433",
"Z.	c #342A2F",
"`.	c #39312E",
" +	c #302927",
".+	c #3F3536",
"                                                                ",
"                                                                ",
"                                    .       +                   ",
"                                    @       #   $ %             ",
"                                          & *                   ",
"                                  = - ;                         ",
"              >       ,     ' )       !                         ",
"      ~       {     ] ^       /       (       _ : <             ",
"              [ } |                   1   2 3 4                 ",
"      5 6 7     8       .       9 0 a   b                       ",
"  6 c   d       e       f   g h i j k l m       n               ",
"                      o p q r s t u v w x       y z             ",
"                A B       C D E F G H I J K L                   ",
"        M N       O       P Q R S T U V W X                     ",
"    Y     Z       `        ...+.@.#.$.%.&.*.      =.    -.      ",
"                    ;.>.,.  '.).!.~.{.].^./.    (._.            ",
"            :.  <.[.}.      |.1.2.3.4.5.6.7.8.                  ",
"        | 9.B               0.a.b.c.d.      e.      f.          ",
"                            g.h.                    i.j.k.      ",
"              l.      m.n.                    o.p.  q.          ",
"              [.r.s.  9       t.      u.  v.w.x.                ",
"          y.  z.    A.A.A.        B.C.y   A.A.D.A.A.A.    E.    ",
"                F.A.A.A.A.    G.H.          A.A.A.  A.A.A.A.    ",
"                I.    A.A.      J.      K.  A.A.L.      A.A.    ",
"                m.M.  A.A.              N.o.A.A.O.      D.A.A.  ",
"                      A.A.      P.Q.        A.A.          A.A.  ",
"                  R.  A.A.S.T.U.A.V.A.A.    A.A.          A.A.  ",
"                  W.X.A.A.Y.    A.A.A.A.  Z.A.A.        A.A.A.  ",
"                R.`.X.A.A.                  A.A.        A.A.    ",
"                     +A.A.  .+              A.A.A.  A.A.A.A.    ",
"                  A.A.A.A.A.              A.A.A.A.A.A.          ",
"                                                                "};
