/* XPM */
static char * send_sql_xpm[] = {
"32 32 442 2",
"  	c None",
". 	c #000000",
"+ 	c #040302",
"@ 	c #0B0904",
"# 	c #090804",
"$ 	c #1B1814",
"% 	c #5A534D",
"& 	c #0A0805",
"* 	c #0B0600",
"= 	c #1D1100",
"- 	c #1E1100",
"; 	c #100A00",
"> 	c #231C08",
", 	c #AF996C",
"' 	c #F4D787",
") 	c #FAD561",
"! 	c #FDD95C",
"~ 	c #F4C957",
"{ 	c #876822",
"] 	c #0F0700",
"^ 	c #0F0A00",
"/ 	c #3B2301",
"( 	c #3F2405",
"_ 	c #3E2205",
": 	c #382002",
"< 	c #100900",
"[ 	c #41331D",
"} 	c #D5C8A5",
"| 	c #FDEDB5",
"1 	c #FDE284",
"2 	c #FCDD72",
"3 	c #F9CD44",
"4 	c #AF780B",
"5 	c #351F00",
"6 	c #482D01",
"7 	c #714109",
"8 	c #7D4511",
"9 	c #7E4410",
"0 	c #1B0E03",
"a 	c #0F0600",
"b 	c #190D01",
"c 	c #1D160E",
"d 	c #D8C9A0",
"e 	c #FBE69E",
"f 	c #F8CD43",
"g 	c #F8C633",
"h 	c #F3B219",
"i 	c #E3920C",
"j 	c #2C1801",
"k 	c #764902",
"l 	c #84490B",
"m 	c #964E10",
"n 	c #743B09",
"o 	c #433623",
"p 	c #D3C7AC",
"q 	c #F7CC56",
"r 	c #F2BA2A",
"s 	c #EFB226",
"t 	c #EDA71A",
"u 	c #BA7209",
"v 	c #2C1904",
"w 	c #B56403",
"x 	c #BA6209",
"y 	c #B45F08",
"z 	c #4D2802",
"A 	c #070200",
"B 	c #050200",
"C 	c #433521",
"D 	c #F5D99F",
"E 	c #F1B229",
"F 	c #E99D10",
"G 	c #E89B13",
"H 	c #E69913",
"I 	c #B4700E",
"J 	c #060401",
"K 	c #060300",
"L 	c #2C1500",
"M 	c #241200",
"N 	c #D37906",
"O 	c #D47B08",
"P 	c #D27805",
"Q 	c #A45A00",
"R 	c #783F00",
"S 	c #231200",
"T 	c #020101",
"U 	c #AD864A",
"V 	c #ECAA36",
"W 	c #E79B14",
"X 	c #E49715",
"Y 	c #E09012",
"Z 	c #DB880D",
"` 	c #4F2A02",
" .	c #020100",
"..	c #0C0600",
"+.	c #997650",
"@.	c #E1A34E",
"#.	c #DB8D25",
"$.	c #D27B08",
"%.	c #CE7807",
"&.	c #C7730A",
"*.	c #B86909",
"=.	c #4E2801",
"-.	c #010201",
";.	c #53390D",
">.	c #E7A941",
",.	c #E18E0D",
"'.	c #DC8A0D",
").	c #D7840C",
"!.	c #D7830C",
"~.	c #A56208",
"{.	c #170D00",
"].	c #231404",
"^.	c #A55F07",
"/.	c #CB7609",
"(.	c #C97308",
"_.	c #C77307",
":.	c #BC6E0C",
"<.	c #7D4305",
"[.	c #0B0602",
"}.	c #060605",
"|.	c #412402",
"1.	c #DC9D43",
"2.	c #DA860C",
"3.	c #D6820B",
"4.	c #C9780A",
"5.	c #442702",
"6.	c #23251F",
"7.	c #221609",
"8.	c #714003",
"9.	c #BC6A06",
"0.	c #BF6B07",
"a.	c #854704",
"b.	c #211509",
"c.	c #999D99",
"d.	c #D0D4CF",
"e.	c #B3B6B3",
"f.	c #6A6C6A",
"g.	c #383938",
"h.	c #1E1102",
"i.	c #B5803A",
"j.	c #D88816",
"k.	c #D27C08",
"l.	c #573203",
"m.	c #20221F",
"n.	c #5B5E58",
"o.	c #72756F",
"p.	c #252420",
"q.	c #3F2000",
"r.	c #8D4A01",
"s.	c #2A1704",
"t.	c #626362",
"u.	c #D5D9D5",
"v.	c #DBDEDB",
"w.	c #D8DCD8",
"x.	c #D8DBD8",
"y.	c #C8CBC8",
"z.	c #9DA09D",
"A.	c #1E1B16",
"B.	c #9E6B25",
"C.	c #DD9735",
"D.	c #D27D08",
"E.	c #CF7806",
"F.	c #573101",
"G.	c #2B2D29",
"H.	c #676B64",
"I.	c #A4AA9E",
"J.	c #ABB0A6",
"K.	c #B7BBB4",
"L.	c #C1C6BE",
"M.	c #454645",
"N.	c #010000",
"O.	c #3B3937",
"P.	c #2C2D2C",
"Q.	c #434443",
"R.	c #C0C3C0",
"S.	c #DCDFDC",
"T.	c #DEE1DE",
"U.	c #DDE0DD",
"V.	c #50514F",
"W.	c #95611C",
"X.	c #DF9E42",
"Y.	c #D5810B",
"Z.	c #D07907",
"`.	c #D07906",
" +	c #D07805",
".+	c #5E3501",
"++	c #444740",
"@+	c #8F9589",
"#+	c #A0A79A",
"$+	c #ADB3A8",
"%+	c #B4B9B0",
"&+	c #747673",
"*+	c #C7CAC6",
"=+	c #7A7C7A",
"-+	c #050505",
";+	c #9EA19E",
">+	c #C0C2C0",
",+	c #5B5C5B",
"'+	c #9D9F9D",
")+	c #DEE0DE",
"!+	c #E1E4E1",
"~+	c #D9DCD9",
"{+	c #454642",
"]+	c #916120",
"^+	c #DA922E",
"/+	c #D17A07",
"(+	c #D27B06",
"_+	c #D37B06",
":+	c #6C3C05",
"<+	c #73766F",
"[+	c #A2A89D",
"}+	c #9FA598",
"|+	c #ACB1A7",
"1+	c #B6BBB2",
"2+	c #C1C4BD",
"3+	c #262726",
"4+	c #757775",
"5+	c #AFB1AF",
"6+	c #6E6F6E",
"7+	c #424342",
"8+	c #C6C9C6",
"9+	c #D4D7D4",
"0+	c #DFE2DF",
"a+	c #C1C4C0",
"b+	c #60635F",
"c+	c #20221D",
"d+	c #845011",
"e+	c #D38116",
"f+	c #D17A06",
"g+	c #D07806",
"h+	c #723E02",
"i+	c #0E0800",
"j+	c #121312",
"k+	c #B6BAB5",
"l+	c #9A9F97",
"m+	c #B3B7AD",
"n+	c #B4B8B0",
"o+	c #BCC1B9",
"p+	c #C5C8C3",
"q+	c #6F726E",
"r+	c #141414",
"s+	c #252525",
"t+	c #393939",
"u+	c #282828",
"v+	c #B0B2B0",
"w+	c #C6C9C4",
"x+	c #545753",
"y+	c #373934",
"z+	c #31342D",
"A+	c #7F4E11",
"B+	c #6C3C02",
"C+	c #2A1700",
"D+	c #6C6E6C",
"E+	c #D0D2D0",
"F+	c #9EA19C",
"G+	c #8B8F88",
"H+	c #A2A79F",
"I+	c #B9BEB5",
"J+	c #CBCEC8",
"K+	c #C8CBC6",
"L+	c #919391",
"M+	c #7F807F",
"N+	c #BCBEBC",
"O+	c #DBDFDB",
"P+	c #919490",
"Q+	c #41433F",
"R+	c #44473F",
"S+	c #4B4F46",
"T+	c #2F322B",
"U+	c #8B5005",
"V+	c #874D05",
"W+	c #1E1001",
"X+	c #191A19",
"Y+	c #A3A6A3",
"Z+	c #E2E5E2",
"`+	c #EFF0EF",
" @	c #E8E9E8",
".@	c #C3C4C3",
"+@	c #959894",
"@@	c #747772",
"#@	c #A4A8A0",
"$@	c #C6CAC5",
"%@	c #D3D7D2",
"&@	c #D6D9D5",
"*@	c #DADDD9",
"=@	c #3F403D",
"-@	c #4E514A",
";@	c #55594F",
">@	c #4E5248",
",@	c #30322A",
"'@	c #905507",
")@	c #CA7507",
"!@	c #774605",
"~@	c #0D0701",
"{@	c #5B5D5B",
"]@	c #E7E9E7",
"^@	c #ECEFEC",
"/@	c #EDEFED",
"(@	c #EEEFEE",
"_@	c #EFF1EF",
":@	c #E8EAE8",
"<@	c #A4A6A3",
"[@	c #828481",
"}@	c #969995",
"|@	c #ACAFAB",
"1@	c #C5C8C4",
"2@	c #B8BBB7",
"3@	c #71746F",
"4@	c #494B46",
"5@	c #61665C",
"6@	c #65695E",
"7@	c #555A50",
"8@	c #484C43",
"9@	c #603805",
"0@	c #2B1905",
"a@	c #0C0C0A",
"b@	c #9FA29F",
"c@	c #ECEDEC",
"d@	c #EAECEA",
"e@	c #E7EAE7",
"f@	c #E3E6E3",
"g@	c #E4E7E4",
"h@	c #999B98",
"i@	c #818381",
"j@	c #70736F",
"k@	c #737870",
"l@	c #6E7369",
"m@	c #6D7267",
"n@	c #64695E",
"o@	c #565A51",
"p@	c #4E5249",
"q@	c #141613",
"r@	c #0B0A08",
"s@	c #282B26",
"t@	c #272925",
"u@	c #1B1B1B",
"v@	c #E7E8E7",
"w@	c #ECEEEC",
"x@	c #EDEEED",
"y@	c #E9EBE9",
"z@	c #E0E3E0",
"A@	c #DDE1DD",
"B@	c #E0E4E0",
"C@	c #D3D6D3",
"D@	c #B2B5B1",
"E@	c #91968C",
"F@	c #787E72",
"G@	c #6E7368",
"H@	c #61665B",
"I@	c #5C6056",
"J@	c #4F5349",
"K@	c #353932",
"L@	c #3D4139",
"M@	c #3E4139",
"N@	c #42453F",
"O@	c #535553",
"P@	c #E9EAE9",
"Q@	c #DCE0DC",
"R@	c #D9DDD9",
"S@	c #CFD3CF",
"T@	c #B2B5B0",
"U@	c #8E9489",
"V@	c #787D72",
"W@	c #6B7166",
"X@	c #656B5F",
"Y@	c #5E6358",
"Z@	c #54584E",
"`@	c #42453D",
" #	c #3C3F38",
".#	c #5D6158",
"+#	c #7B7D7B",
"@#	c #DEE2DE",
"##	c #D7DBD7",
"$#	c #B0B4AF",
"%#	c #8C9187",
"&#	c #767B70",
"*#	c #70756A",
"=#	c #666B60",
"-#	c #565B50",
";#	c #484B43",
">#	c #41443D",
",#	c #252625",
"'#	c #A5A8A5",
")#	c #E5E8E5",
"!#	c #DADEDA",
"~#	c #D2D6D2",
"{#	c #B0B3AE",
"]#	c #8A9085",
"^#	c #6C7166",
"/#	c #5E6258",
"(#	c #32352F",
"_#	c #020202",
":#	c #4B4C4B",
"<#	c #AFB2AF",
"[#	c #AEB3AD",
"}#	c #878D83",
"|#	c #757A6F",
"1#	c #6A6F63",
"2#	c #60655A",
"3#	c #595E53",
"4#	c #33362F",
"5#	c #1B1C1B",
"6#	c #5C5D5C",
"7#	c #DADDDA",
"8#	c #D6DAD6",
"9#	c #ADB2AB",
"0#	c #858A7F",
"a#	c #73796E",
"b#	c #6F7468",
"c#	c #696E62",
"d#	c #63675C",
"e#	c #4A4D45",
"f#	c #181A17",
"g#	c #303130",
"h#	c #9C9F9C",
"i#	c #D3D8D3",
"j#	c #A8ACA4",
"k#	c #82877C",
"l#	c #72776C",
"m#	c #6F7469",
"n#	c #363832",
"o#	c #0F100E",
"p#	c #131413",
"q#	c #B9BCB9",
"r#	c #D0D5D0",
"s#	c #A4AAA1",
"t#	c #7F8479",
"u#	c #656A61",
"v#	c #31332E",
"w#	c #383C32",
"x#	c #8F928F",
"y#	c #BDC1BD",
"z#	c #CCD0CC",
"A#	c #CDD1CC",
"B#	c #A5AAA1",
"C#	c #656961",
"D#	c #41443E",
"E#	c #0D0D0C",
"F#	c #393A39",
"G#	c #5A5B59",
"H#	c #474945",
"I#	c #21221F",
"                                                                ",
"                              . . + @ # $ % &                   ",
"                          * = - ; > , ' ) ! ~ { ]               ",
"                        ^ / ( _ : < [ } | 1 2 3 4 5             ",
"                        6 7 8 9 0 a b c d e f g h i j           ",
"                      . k l m n .       o p q r s t u v         ",
"                      . w x y z A B .     C D E F G H I J       ",
"                . K L M N O P Q R S .     T U V W X Y Z `  .    ",
"                ..+.@.#.$.%.&.*.=.-.        ;.>.,.'.).!.~.{.    ",
"                  ].^./.(._.:.<.[.}.        |.1.2.!.).3.4.5.    ",
"                  6.7.8.9.0.a.b.c.d.e.f.g.  h.i.j.3.3.3.k.l..   ",
"                m.n.o.p.q.r.s.t.u.v.w.x.y.z.A.B.C.!.3.D.E.F..   ",
"            G.H.I.J.K.L.M.N.O.P.Q.R.S.T.U.S.V.W.X.Y.Z.`. +.+.   ",
"          ++@+#+$+%+&+*+=+-+;+>+,+'+)+!+T.~+{+]+^+/+(+_+Z.:+N.  ",
"        <+[+}+|+1+2+3+4+5+6+7+8+9+9+0+T.a+b+c+d+e+f+E.`.g+h+i+  ",
"      j+k+l+m+n+o+p+q+r+s+t+u+v+U.0+U.w+x+y+z+A+f+f+`.E.B+C+    ",
"      D+v.E+F+G+H+I+J+K+L+M+N+v.S.O+P+Q+R+S+T+U+%.%.V+W+.       ",
"    X+Y+Z+`+ @.@+@@@#@$@%@&@v.v.*@+@=@-@;@>@,@'@)@!@~@          ",
"    {@u.]@^@/@(@_@:@<@[@}@|@1@2@3@4@5@6@7@8@c+9@0@a@            ",
"    b@!+c@/@d@e@f@g@d@ @>+h@i@j@k@l@m@n@o@p@q@r@s@t@            ",
"  u@x.v@w@x@y@f@z@A@S.U.B@z@C@D@E@F@G@H@I@J@K@L@M@N@            ",
"  O@U.P@w@c@e@!+0+O+U.Q@w.R@S@T@U@V@W@X@Y@Z@>@`@ #.#            ",
"  +#T.d@d@ @!+z@@#Q@w.R@####S@$#%#&#*#=#Y@-#p@;#>#              ",
"  ,#'#z@)#f@0+0+v.!#########~#{#]#&#^#=#/#7@>@(#                ",
"    _#:#<#U.A@Q@############u.[#}#|#*#1#2#3#4#                  ",
"        5#6#S.7#############8#9#0#a#b#c#d#e#f#                  ",
"          . g#h#############i#j#k#l#m#2#n#o#                    ",
"              p#6#q#########r#s#t#l#u#v#w#                      ",
"                  . Q.x#y#z#A#B#C#D#E#                          ",
"                        F#Q.G#H#I#                              ",
"                                                                ",
"                                                                "};
