/* XPM */
static char * sql_xpm[] = {
"32 32 297 2",
"  	c None",
". 	c #868686",
"+ 	c #7D7D7D",
"@ 	c #777777",
"# 	c #6F6F6F",
"$ 	c #6A6A6A",
"% 	c #676767",
"& 	c #656565",
"* 	c #626262",
"= 	c #606060",
"- 	c #585858",
"; 	c #515151",
"> 	c #4A4A4A",
", 	c #484848",
"' 	c #3D3D3D",
") 	c #2E2E2E",
"! 	c #020202",
"~ 	c #C9C9C9",
"{ 	c #C1C1C1",
"] 	c #BABABA",
"^ 	c #ACACAC",
"/ 	c #9D9D9D",
"( 	c #464646",
"_ 	c #000000",
": 	c #7A7A7A",
"< 	c #FFFFFF",
"[ 	c #FEFEFE",
"} 	c #F5F5F5",
"| 	c #E3E3E3",
"1 	c #D8D8D8",
"2 	c #898989",
"3 	c #707070",
"4 	c #4D4D4D",
"5 	c #6E6E6E",
"6 	c #545454",
"7 	c #6D6D6D",
"8 	c #5C5C5C",
"9 	c #E0E0E0",
"0 	c #6C6C6C",
"a 	c #616161",
"b 	c #C6C6C6",
"c 	c #696969",
"d 	c #505050",
"e 	c #4C4C4C",
"f 	c #444444",
"g 	c #3E3E3E",
"h 	c #3A3A3A",
"i 	c #333333",
"j 	c #929292",
"k 	c #DADADA",
"l 	c #FAFAFA",
"m 	c #DCDBD9",
"n 	c #D1D1CC",
"o 	c #BCBAB3",
"p 	c #A4A197",
"q 	c #87837E",
"r 	c #797674",
"s 	c #5C5957",
"t 	c #E6E6E6",
"u 	c #E4E4E4",
"v 	c #C8C7C5",
"w 	c #B8B3AB",
"x 	c #7C7875",
"y 	c #AAAAAA",
"z 	c #F2F2F1",
"A 	c #E7E5E2",
"B 	c #DEDCD9",
"C 	c #D3CDC0",
"D 	c #968F85",
"E 	c #CECECE",
"F 	c #C2C2C2",
"G 	c #FCFCFB",
"H 	c #FBF9F6",
"I 	c #F5F2EE",
"J 	c #EFEBE4",
"K 	c #E4DFD9",
"L 	c #DBD7CE",
"M 	c #D2CCC1",
"N 	c #A7A194",
"O 	c #B6B6B6",
"P 	c #FAF6F1",
"Q 	c #F4EFE9",
"R 	c #F3EDE4",
"S 	c #EDE6DE",
"T 	c #E1DBD2",
"U 	c #DFDACE",
"V 	c #B2A89B",
"W 	c #FCFAF9",
"X 	c #F9F4EE",
"Y 	c #F8F1E9",
"Z 	c #F0EBE1",
"` 	c #EAE3D9",
" .	c #E9E1D6",
"..	c #E0D8C9",
"+.	c #B6AB97",
"@.	c #FBF8F6",
"#.	c #F9F6F0",
"$.	c #F8F4ED",
"%.	c #F7F1E8",
"&.	c #F5EFE6",
"*.	c #F0E8DD",
"=.	c #EEE6DB",
"-.	c #E8E0D1",
";.	c #E7DDCC",
">.	c #B5A894",
",.	c #565656",
"'.	c #323232",
").	c #FBFAF8",
"!.	c #FAF8F5",
"~.	c #F9F5F0",
"{.	c #F4EDE1",
"].	c #F3EBDC",
"^.	c #EDE4D6",
"/.	c #ECE1D1",
"(.	c #E6DBC9",
"_.	c #BCAE97",
":.	c #9E9E9E",
"<.	c #F8F3EB",
"[.	c #F7F2E8",
"}.	c #F5EEE4",
"|.	c #F2E8D9",
"1.	c #EBDFCC",
"2.	c #E5DAC4",
"3.	c #BCAB93",
"4.	c #262626",
"5.	c #F9F7F2",
"6.	c #F3EADC",
"7.	c #F2E8D7",
"8.	c #F1E6D4",
"9.	c #F0E2CF",
"0.	c #EADEC9",
"a.	c #E9DBC4",
"b.	c #BBAA90",
"c.	c #F4F1EB",
"d.	c #F5F0E8",
"e.	c #F6F1E7",
"f.	c #F4ECDF",
"g.	c #F0E3CF",
"h.	c #EFE1CA",
"i.	c #E8D8BF",
"j.	c #BFAB90",
"k.	c #EEEAE1",
"l.	c #F1EAE0",
"m.	c #F4EBDF",
"n.	c #F1E4D2",
"o.	c #EEDEC7",
"p.	c #EDDAC2",
"q.	c #E6D6BB",
"r.	c #BFA98C",
"s.	c #E5E0D7",
"t.	c #EBE4D8",
"u.	c #EEE5D9",
"v.	c #F1E7D8",
"w.	c #EEE0C9",
"x.	c #EDDEC6",
"y.	c #ECDBC1",
"z.	c #EAD9BF",
"A.	c #E5D4B6",
"B.	c #BEA989",
"C.	c #D8D3C8",
"D.	c #E5DCD1",
"E.	c #EBE1D2",
"F.	c #EFE3D4",
"G.	c #F0E5D1",
"H.	c #EFE2CE",
"I.	c #E9D6BA",
"J.	c #E8D5B5",
"K.	c #E6D2B2",
"L.	c #BDA784",
"M.	c #D3CBC0",
"N.	c #DED5C8",
"O.	c #E7DDCD",
"P.	c #ECDFCD",
"Q.	c #EDE0CC",
"R.	c #EDDCC4",
"S.	c #ECDCC1",
"T.	c #EAD9BD",
"U.	c #E8D4B5",
"V.	c #E7D2B2",
"W.	c #BCA481",
"X.	c #BFB8AF",
"Y.	c #CDC4B8",
"Z.	c #DBD2C2",
"`.	c #E5D8C7",
" +	c #EBDDC8",
".+	c #ECDEC7",
"++	c #E7D0B0",
"@+	c #E6CFAD",
"#+	c #E6CEAA",
"$+	c #BEA481",
"%+	c #2E261E",
"&+	c #9D9991",
"*+	c #ADA69D",
"=+	c #BCB3A8",
"-+	c #CCC3B4",
";+	c #DCD1BF",
">+	c #E3D6C2",
",+	c #E9DBC5",
"'+	c #EBDAC2",
")+	c #ECDABF",
"!+	c #E9D7B8",
"~+	c #E5CDA8",
"{+	c #E2CAA6",
"]+	c #BFA37C",
"^+	c #2E2A1E",
"/+	c #8F8C86",
"(+	c #949089",
"_+	c #A09B90",
":+	c #AEA79D",
"<+	c #BFB6A8",
"[+	c #CDC4B2",
"}+	c #DCCFBB",
"|+	c #E2D3BD",
"1+	c #E8D7C0",
"2+	c #E9D5B8",
"3+	c #E6CFAB",
"4+	c #E4C9A3",
"5+	c #E2C69E",
"6+	c #BEA279",
"7+	c #2E261A",
"8+	c #8C8A85",
"9+	c #8E8A85",
"0+	c #938F88",
"a+	c #9A948B",
"b+	c #A7A096",
"c+	c #B6AEA0",
"d+	c #C3B8A8",
"e+	c #D1C6B3",
"f+	c #DFD0BA",
"g+	c #E6D5BE",
"h+	c #E7D5BB",
"i+	c #EAD8BB",
"j+	c #E8D3B3",
"k+	c #E3C8A2",
"l+	c #BE9E75",
"m+	c #787878",
"n+	c #95918B",
"o+	c #959089",
"p+	c #9D978D",
"q+	c #A8A195",
"r+	c #B4AC9F",
"s+	c #C0B4A5",
"t+	c #CCC1AF",
"u+	c #DACBB5",
"v+	c #E0CFB8",
"w+	c #E5D4B9",
"x+	c #E5CEAA",
"y+	c #E4CCA7",
"z+	c #BC9F71",
"A+	c #2F2F2F",
"B+	c #828282",
"C+	c #999691",
"D+	c #A19C94",
"E+	c #A9A69D",
"F+	c #B2ACA3",
"G+	c #C2B5A5",
"H+	c #CABFAE",
"I+	c #D3CCBD",
"J+	c #E1D2BF",
"K+	c #E2D3BB",
"L+	c #E5D5BA",
"M+	c #EAD6BA",
"N+	c #E6CEAE",
"O+	c #E2CAA2",
"P+	c #BC9C6D",
"Q+	c #2C2C2C",
"R+	c #8C8981",
"S+	c #908B84",
"T+	c #958F87",
"U+	c #9A9284",
"V+	c #A2988A",
"W+	c #A99C8B",
"X+	c #B3A691",
"Y+	c #B9AA94",
"Z+	c #BDAB93",
"`+	c #BFAF93",
" @	c #C3AE92",
".@	c #C4AD8F",
"+@	c #C2AB8B",
"@@	c #C1AA86",
"#@	c #C0A583",
"$@	c #10100D",
"%@	c #27211A",
"&@	c #272421",
"*@	c #29221B",
"=@	c #292623",
"-@	c #282421",
";@	c #2D251E",
">@	c #2F2B27",
",@	c #2C2925",
"'@	c #2D2921",
")@	c #2E2A22",
"!@	c #2E2A26",
"~@	c #322A22",
"{@	c #322A1E",
"]@	c #2A2622",
"^@	c #0A0A06",
"                . + @ # $ % & * = - ; > , ' ) !                 ",
"                @ ~ ~ ~ ~ ~ ~ ~ ~ ~ { ] ^ / / ( _               ",
"                : ~ < < < < < < < < [ < } | 1 ( 2 _             ",
"                3 ~ < < < < < < < < [ < < } | 4 ~ 2 _           ",
"                5 ~ < < < < < < < < [ < < < } 4 < ~ 2 _         ",
"                5 ~ < < < < < < < < [ < < < < 6 < < ~ 2 _       ",
"                7 ~ < < < < < < < < [ < < < < 8 9 < < ~ 2 _     ",
"                0 ~ < < < < < < < < [ < < < < a b 9 < < ~ 2 _   ",
"              _ _ _ < < < < < < < < [ < < < < c d e , f g h i _ ",
"          _ _ j k j _ _ < < < < < < [ < < < < l m n o p q r s _ ",
"      _ _ j k t k k k j _ _ < < < < < < < < < < l u m v w p x _ ",
"  _ _ j k t k y y y k k k j _ _ < < < < < < < l l z A B C w D _ ",
"_ j k E E 5 _ g g g _ 5 k k F j _ < < < < < G H I I J K L M N _ ",
"_ O O E _ g 5 5 5 * * g _ O O O _ < < < < G H P Q Q R S T U V _ ",
"_ k E O O 5 5 5 5 * * > : : O y _ < < < W H P X Y Z Z `  ...+._ ",
"_ k 5 g . O O : * * : : g _ 5 y _ < < W @.#.$.%.&.*.*.=.-.;.>._ ",
"_ k g > ,.* . O O : > g g '._ y _ < ).!.~.$.%.&.{.].^.^./.(._._ ",
"_ k g > ,.* 5 5 :.> g g '.'._ y _ ).!.~.<.[.}.{.].|././.1.2.3._ ",
"_ k g > ,.* * 5 :.g g '.'.4._ y _ 5.#.<.%.}.{.6.7.8.9.0.0.a.b._ ",
"_ k g > ,.,.* * :.'.'.'.4.4._ y _ c.d.e.}.f.6.7.8.g.h.a.a.i.j._ ",
"_ k g g > ,.,.* :.'.'.4.4.4._ y _ k.Z l.m.6.7.n.g.h.o.p.q.q.r._ ",
"_ k 5 g g > > ,.:.4.4.4.4._ ,.y _ s.t.u.v.7.n.9.w.x.y.z.A.A.B._ ",
"_ k E g g g > > :.4.4.4.4.g : j _ C.D.E.F.G.H.w.x.y.z.I.J.K.L._ ",
"_ j k E g g g g :.4.4._ g : : : _ M.N.O.P.Q.w.R.S.T.I.U.V.K.W._ ",
"  _ _ j k 5 g g :._ _ 5 : : _ _ X.Y.Z.`. +.+R.y.T.I.U.++@+#+$+%+",
"      _ _ j y * :.* . . _ _ &+*+=+-+;+>+,+'+)+T.!+U.++@+~+{+]+^+",
"          _ _ j :.. _ _ /+(+_+:+<+[+}+|+1+)+T.2+U.++3+~+4+5+6+7+",
"              _ _ _ 8+9+0+a+b+c+d+e+f+g+h+i+2+j+++3+~+k+k+5+l+7+",
"                i m+n+o+p+q+r+s+t+u+v+w+i+2+j+++x+y+k+k+k+5+z+7+",
"                A+B+C+D+E+F+G+H+I+J+K+L+M+K.K.N+#+{+O+5+5+5+P+%+",
"                Q+R+S+T+U+V+W+X+Y+Z+`+ @.@+@@@#@$+]+6+l+z+P+P+7+",
"                $@%@&@*@=@-@;@>@,@'@)@!@%+~@%+{@7+]@^+^+7+^+7+^@"};
