/* XPM */
static char * sql_file_xpm[] = {
"32 32 421 2",
"  	c None",
". 	c #000000",
"+ 	c #292319",
"@ 	c #776749",
"# 	c #64573E",
"$ 	c #383023",
"% 	c #6A5B42",
"& 	c #403827",
"* 	c #5A4E37",
"= 	c #8D7B57",
"- 	c #D3B783",
"; 	c #F7D699",
"> 	c #FBDA9C",
", 	c #FCDB9D",
"' 	c #A08B64",
") 	c #16130E",
"! 	c #393124",
"~ 	c #5B4E38",
"{ 	c #9B8560",
"] 	c #D1B381",
"^ 	c #F2D095",
"/ 	c #F1CE95",
"( 	c #947F5B",
"_ 	c #6C6C6C",
": 	c #C0A879",
"< 	c #D9BC86",
"[ 	c #F8D79A",
"} 	c #FDDC9E",
"| 	c #FCDB9E",
"1 	c #E8C991",
"2 	c #5C4F39",
"3 	c #231E16",
"4 	c #584B36",
"5 	c #98835E",
"6 	c #B99F73",
"7 	c #DBBB87",
"8 	c #EECC93",
"9 	c #F0CE94",
"0 	c #EFCD94",
"a 	c #EDCB92",
"b 	c #C7A97A",
"c 	c #352D20",
"d 	c #BFBFBF",
"e 	c #FDDB9E",
"f 	c #FBDA9D",
"g 	c #FBD99C",
"h 	c #F9D89C",
"i 	c #F7D59A",
"j 	c #F6D499",
"k 	c #F5D398",
"l 	c #C4A979",
"m 	c #CAAE7D",
"n 	c #EFCC93",
"o 	c #EECB92",
"p 	c #EDCA92",
"q 	c #ECC991",
"r 	c #EBC890",
"s 	c #EAC78F",
"t 	c #E5C28C",
"u 	c #504431",
"v 	c #B1B1B1",
"w 	c #FBDEA8",
"x 	c #FAD89C",
"y 	c #F9D79B",
"z 	c #F7D69A",
"A 	c #F7D599",
"B 	c #F4D297",
"C 	c #F3D197",
"D 	c #F2D096",
"E 	c #F1CF95",
"F 	c #ECCA91",
"G 	c #E9C68F",
"H 	c #E8C58E",
"I 	c #E7C48D",
"J 	c #E7C38D",
"K 	c #E4C18A",
"L 	c #6D5C3F",
"M 	c #8E8E8D",
"N 	c #F8DFB2",
"O 	c #F3D096",
"P 	c #E9C58E",
"Q 	c #E8C58D",
"R 	c #E4C28A",
"S 	c #DFBC83",
"T 	c #DAB87E",
"U 	c #CFAF71",
"V 	c #BF9F60",
"W 	c #AB8B4C",
"X 	c #7C653B",
"Y 	c #383836",
"Z 	c #5F5F5B",
"` 	c #75736C",
" .	c #3B3832",
"..	c #888887",
"+.	c #F7E2BE",
"@.	c #DBB97F",
"#.	c #D1B073",
"$.	c #CBAC6B",
"%.	c #B99958",
"&.	c #A58343",
"*.	c #9C7C44",
"=.	c #AF976B",
"-.	c #C8B99D",
";.	c #D5CBB6",
">.	c #DED4BF",
",.	c #F3E2C1",
"'.	c #F0D6AB",
").	c #4E4536",
"!.	c #6A6A69",
"~.	c #F7E6CA",
"{.	c #D0B072",
"].	c #C4A363",
"^.	c #B59451",
"/.	c #B39353",
"(.	c #B3965F",
"_.	c #B19768",
":.	c #C5B291",
"<.	c #DFD1B7",
"[.	c #FBF1DB",
"}.	c #F8E8CA",
"|.	c #F3DAAE",
"1.	c #EECE98",
"2.	c #EAC790",
"3.	c #CFB07E",
"4.	c #423829",
"5.	c #3F3F3F",
"6.	c #F8EBD5",
"7.	c #DDBB81",
"8.	c #D3B274",
"9.	c #CBAC6C",
"0.	c #C1A15F",
"a.	c #B3904D",
"b.	c #A98644",
"c.	c #B69963",
"d.	c #CAB692",
"e.	c #776A55",
"f.	c #635D52",
"g.	c #A19C90",
"h.	c #E1CDA9",
"i.	c #F3D6A7",
"j.	c #EFCE98",
"k.	c #E6C38C",
"l.	c #B2966C",
"m.	c #0B0B0B",
"n.	c #F8EEDD",
"o.	c #E8C693",
"p.	c #E5C18B",
"q.	c #DEBC83",
"r.	c #D2B275",
"s.	c #C8A767",
"t.	c #B89754",
"u.	c #B49350",
"v.	c #B5965C",
"w.	c #B79A66",
"x.	c #B39E7A",
"y.	c #9F937F",
"z.	c #BAB8B2",
"A.	c #BCB9B0",
"B.	c #A39986",
"C.	c #77746E",
"D.	c #DDDDDD",
"E.	c #747373",
"F.	c #6B665D",
"G.	c #8A7B63",
"H.	c #A08966",
"I.	c #B89C70",
"J.	c #D0B07F",
"K.	c #E3BF8A",
"L.	c #E2BE89",
"M.	c #8A7454",
"N.	c #EAE0D1",
"O.	c #E6C594",
"P.	c #DCB981",
"Q.	c #C7A866",
"R.	c #B18F4B",
"S.	c #B3945B",
"T.	c #CBB690",
"U.	c #DBCDB2",
"V.	c #EADDC4",
"W.	c #F4E4C6",
"X.	c #AB9E85",
"Y.	c #787878",
"Z.	c #ADADAD",
"`.	c #AEAEAE",
" +	c #808080",
".+	c #8F8F8F",
"++	c #E9E9E9",
"@+	c #E0E0E0",
"#+	c #C2C2C2",
"$+	c #ABABAA",
"%+	c #908C85",
"&+	c #766D60",
"*+	c #675841",
"=+	c #937C59",
"-+	c #514431",
";+	c #CFC9BD",
">+	c #E7C99C",
",+	c #CBAB6D",
"'+	c #AF8D4A",
")+	c #DAC8A8",
"!+	c #FBF0DB",
"~+	c #FAE5C0",
"{+	c #F7DAA7",
"]+	c #F3D196",
"^+	c #A18A64",
"/+	c #9B9B9B",
"(+	c #EAEAEA",
"_+	c #969696",
":+	c #ACACAC",
"<+	c #E8E8E8",
"[+	c #EBEBEB",
"}+	c #ECECEC",
"|+	c #EDEDED",
"1+	c #EEEEEE",
"2+	c #E4E4E4",
"3+	c #B6B6B6",
"4+	c #747474",
"5+	c #4A4A4A",
"6+	c #C1BAAF",
"7+	c #E6C89B",
"8+	c #BD9C5C",
"9+	c #B0935C",
"0+	c #FAEED7",
"a+	c #F6D7A0",
"b+	c #F1CE94",
"c+	c #9E8761",
"d+	c #9C9C9C",
"e+	c #D8D8D8",
"f+	c #CFCFCF",
"g+	c #C8C8C8",
"h+	c #C7C7C7",
"i+	c #D3D3D3",
"j+	c #EFEFEF",
"k+	c #F0F0F0",
"l+	c #F1F1F1",
"m+	c #E7E7E7",
"n+	c #525252",
"o+	c #A7A49C",
"p+	c #E8CDA3",
"q+	c #AB8948",
"r+	c #CCBA98",
"s+	c #F5DEB5",
"t+	c #F0CE95",
"u+	c #9B835F",
"v+	c #9E9E9E",
"w+	c #DCDCDC",
"x+	c #626262",
"y+	c #DEDEDE",
"z+	c #E3E3E3",
"A+	c #D2D2D2",
"B+	c #CECECE",
"C+	c #D5D5D5",
"D+	c #F3F3F3",
"E+	c #1E1E1E",
"F+	c #E7CCA2",
"G+	c #9D7B3A",
"H+	c #D6C8AE",
"I+	c #EFD19F",
"J+	c #EBC790",
"K+	c #E9C68E",
"L+	c #98805C",
"M+	c #A0A0A0",
"N+	c #B5B5B5",
"O+	c #7F7F7F",
"P+	c #D7D7D7",
"Q+	c #D0D0D0",
"R+	c #C9C9C9",
"S+	c #D1D1D1",
"T+	c #E6E6E6",
"U+	c #DFDFDF",
"V+	c #CDCDCD",
"W+	c #8A8881",
"X+	c #E6CCA2",
"Y+	c #9A7A3F",
"Z+	c #DDD2BC",
"`+	c #E6C28C",
" @	c #E4C08B",
".@	c #E2BF89",
"+@	c #977F5B",
"@@	c #A1A1A1",
"#@	c #D6D6D6",
"$@	c #C3C3C3",
"%@	c #E5E5E5",
"&@	c #D4D4D4",
"*@	c #E2E2E2",
"=@	c #CBCBCB",
"-@	c #F5F5F5",
";@	c #8C8C8C",
">@	c #7E7D79",
",@	c #E7CFA7",
"'@	c #997A44",
")@	c #E1D3BB",
"!@	c #E3BF89",
"~@	c #E1BD88",
"{@	c #967E5B",
"]@	c #A2A2A2",
"^@	c #595959",
"/@	c #DADADA",
"(@	c #F4F4F4",
"_@	c #7F7F7B",
":@	c #E5CDA5",
"<@	c #937643",
"[@	c #E0D0B3",
"}@	c #E2BE88",
"|@	c #E0BC87",
"1@	c #957D5A",
"2@	c #A4A4A4",
"3@	c #C6C6C6",
"4@	c #E1E1E1",
"5@	c #D9D9D9",
"6@	c #CCCCCC",
"7@	c #404040",
"8@	c #DAC39A",
"9@	c #967B4D",
"0@	c #E7D7BC",
"a@	c #DFBB86",
"b@	c #DEBA85",
"c@	c #947C58",
"d@	c #A5A5A5",
"e@	c #B0B0B0",
"f@	c #959595",
"g@	c #CACACA",
"h@	c #BEBEBE",
"i@	c #7F7F7A",
"j@	c #D6BE94",
"k@	c #8C7147",
"l@	c #E4D0B0",
"m@	c #DDB984",
"n@	c #DCB883",
"o@	c #DBB781",
"p@	c #917955",
"q@	c #A6A6A6",
"r@	c #949494",
"s@	c #B7B7B7",
"t@	c #F2F2F2",
"u@	c #909090",
"v@	c #7F7E7A",
"w@	c #CEB78C",
"x@	c #917751",
"y@	c #EAD6B6",
"z@	c #DEBA84",
"A@	c #DDB983",
"B@	c #DBB782",
"C@	c #DAB680",
"D@	c #D9B57F",
"E@	c #D7B37D",
"F@	c #927A55",
"G@	c #ABABAB",
"H@	c #848484",
"I@	c #FCFCFC",
"J@	c #717171",
"K@	c #BFA77B",
"L@	c #8F7654",
"M@	c #ECD7B6",
"N@	c #D8B47F",
"O@	c #D7B37C",
"P@	c #D5B17A",
"Q@	c #D2AE78",
"R@	c #D0AC75",
"S@	c #9F8762",
"T@	c #BBBBBB",
"U@	c #696969",
"V@	c #FAFAFA",
"W@	c #1F1F1F",
"X@	c #B49B6E",
"Y@	c #A08B6E",
"Z@	c #E5CDA6",
"`@	c #D6B27B",
" #	c #D4B079",
".#	c #D1AD77",
"+#	c #CFAB74",
"@#	c #CCA871",
"##	c #C9A56E",
"$#	c #9A825C",
"%#	c #989898",
"&#	c #868686",
"*#	c #FEFEFE",
"=#	c #FFFFFF",
"-#	c #F8F8F8",
";#	c #81807B",
">#	c #9A8256",
",#	c #AF9E83",
"'#	c #DFC69E",
")#	c #C9A56D",
"!#	c #C09E68",
"~#	c #A58757",
"{#	c #8E744A",
"]#	c #554631",
"^#	c #3C3C3C",
"/#	c #F9F9F9",
"(#	c #6E6E69",
"_#	c #B8A789",
":#	c #D6C9B3",
"<#	c #D6BA8E",
"[#	c #BF9D67",
"}#	c #977C51",
"|#	c #625033",
"1#	c #413522",
"2#	c #2C2417",
"3#	c #121212",
"4#	c #4E4E4E",
"5#	c #8E8C86",
"6#	c #8D887C",
"7#	c #50432F",
"8#	c #080704",
"9#	c #6E6E6E",
"0#	c #A3A3A3",
"a#	c #858585",
"b#	c #181818",
"c#	c #3E3E3E",
"d#	c #6D6D6D",
"e#	c #F7F7F7",
"f#	c #B9B9B9",
"g#	c #8E8E8E",
"h#	c #2C2C2C",
"i#	c #050505",
"j#	c #3A3A3A",
"k#	c #515151",
"l#	c #545454",
"m#	c #353535",
"n#	c #0D0D0D",
"                                                                ",
"                                                                ",
"                                                                ",
"            . + @ #                       . $ %                 ",
"      & * = - ; > , ' )             ! ~ { ] ^ / (               ",
"  _ : < [ , } } | | 1 2 . . 3 4 5 6 7 8 9 0 8 a b c             ",
"  d } } e f g h [ i j k l m ^ / 9 n o p q r s s t u             ",
"  v w x y z A k B C D E 9 0 8 a F q r s G H I J K L             ",
"  M N k B O ^ / 9 n o p q r s s P Q I R S T U V W X Y Z `  .    ",
"  ..+.E 9 0 8 a F q r s G H I J K @.#.$.%.&.*.=.-.;.>.,.'.).    ",
"  !.~.p q r s s P Q I K S T {.].^./.(._.:.<.[.}.|.1.q 2.3.4.    ",
"  5.6.s G H I J K 7.8.9.0.a.b.c.d.e.f.g.h.i.j.p r G H k.l.      ",
"  m.n.o.p.q.r.s.t.u.v.w.x.y.z.A.B.C.D.v E.F.G.H.I.J.K.L.M.      ",
"  . N.O.P.Q.R.S.T.U.V.W.X.Y.Z.`. +.+++++++@+#+$+%+&+*+=+-+      ",
"  . ;+>+,+'+)+!+~+{+k ]+^+/+++(+_+:+<+(+[+}+}+|+|+1+2+3+4+5+    ",
"  . 6+7+8+9+0+a+B D b+n c+d+e+f+4+g+e+h+i+@+1+j+j+k+k+l+l+m+n+  ",
"    o+p+q+r+s+t+n p r s u+v+w+i+x+<+y+z+D.A+g+B+C+y+<+j+D+k+E+  ",
"    o+F+G+H+I+q J+K+I t L+M+y+N+O+k+P+Q+R+S+@+T+U+P+V+g+T+f+.   ",
"    W+X+Y+Z+K+I `+ @.@L.+@@@#@4+$@%@&@D.T+*@C+=@Q+P+*@<+-@;@    ",
"    >@,@'@)@p.K.!@L.L.~@{@]@&@^@|+j+z+/@f+g+A+U+<+%@/@#@(@^@    ",
"    _@:@<@[@L.L.}@~@~@|@1@2@3@Y.D+&@f+P+4@<+z+5@6@Q+5@(+5@7@    ",
"    _@8@9@0@~@~@|@|@a@b@c@d@e@f@j+4@++m+w+i+g@Q+*@[+<+|+h@      ",
"    i@j@k@l@|@a@b@m@n@o@p@q@r@s@t@@+B+f+5@4@[+(+w+V+&@(@u@      ",
"    v@w@x@y@z@A@B@C@D@E@F@G@H@i+y+B+@+(+[+*@P+f+i+*@k+I@J@      ",
"    v@K@L@M@C@N@O@P@Q@R@S@T@U@-@I@-@@+Q+f+P+z+|+|+*@*@V@W@      ",
"    v@X@Y@Z@`@ #.#+#@###$#%#&#*#*#*#=#=#-#j+2+/@Q+Q+(@e+.       ",
"    ;#>#,#'#+#@#)#!#~#{#]#^#V+=#=#=#=#=#=#=#=#=#=#-#/#.+        ",
"    (#_#:#<#[#}#|#1#2#    3#-#=#=#=#=#=#=#=#=#=#=#=#1+4#        ",
"      5#6#7#8#.             9#0#=@<+=#=#=#=#=#=#(+A+a#b#        ",
"                                ^#c#d#q@(+=#=#e#f#g#h#          ",
"                                        i#j#k#l#m#n#            ",
"                                                                "};
