/* XPM */
static char * up2date_xpm[] = {
"32 32 410 2",
"  	c None",
". 	c #000000",
"+ 	c #384851",
"@ 	c #688A9E",
"# 	c #89BDE0",
"$ 	c #8DCDFB",
"% 	c #78BFF9",
"& 	c #63B1F8",
"* 	c #4290DE",
"= 	c #255E9B",
"- 	c #0E2643",
"; 	c #212A2E",
"> 	c #7998A6",
", 	c #B0DCF0",
"' 	c #B9E8FE",
") 	c #B4E5FE",
"! 	c #AAE0FD",
"~ 	c #93D1FB",
"{ 	c #7CC2FA",
"] 	c #5DACF7",
"^ 	c #439AF3",
"/ 	c #2E7CD5",
"( 	c #1A4C8B",
"_ 	c #01050A",
": 	c #464E48",
"< 	c #D2EBE1",
"[ 	c #DFFAEA",
"} 	c #D2F4F1",
"| 	c #D1F4EE",
"1 	c #D5F7EA",
"2 	c #D0F8DF",
"3 	c #CEF7E0",
"4 	c #B7EAE3",
"5 	c #80C5F2",
"6 	c #4D95D7",
"7 	c #1A4C61",
"8 	c #0D4B18",
"9 	c #188219",
"0 	c #219922",
"a 	c #259B26",
"b 	c #219323",
"c 	c #0C570D",
"d 	c #031D03",
"e 	c #313B33",
"f 	c #BCD7C2",
"g 	c #F5FEF5",
"h 	c #F1FEF1",
"i 	c #ECFEEC",
"j 	c #E7FEE7",
"k 	c #DAFCDA",
"l 	c #D0FAD0",
"m 	c #D6FDD6",
"n 	c #A2CDBB",
"o 	c #295548",
"p 	c #0B940B",
"q 	c #10C211",
"r 	c #23D323",
"s 	c #35D935",
"t 	c #4BDE4B",
"u 	c #54DC55",
"v 	c #44CA45",
"w 	c #19961A",
"x 	c #011401",
"y 	c #080B0D",
"z 	c #9AC5D8",
"A 	c #D4F3EF",
"B 	c #FAFEFA",
"C 	c #FBFEFB",
"D 	c #F6FEF6",
"E 	c #EFFEEF",
"F 	c #CEF4D3",
"G 	c #D4F8D8",
"H 	c #D2F8D6",
"I 	c #BEF1CF",
"J 	c #254725",
"K 	c #017601",
"L 	c #079615",
"M 	c #0E9213",
"N 	c #26B826",
"O 	c #3FDA3F",
"P 	c #58E258",
"Q 	c #6BE76B",
"R 	c #81EC81",
"S 	c #6DDF6E",
"T 	c #0F8310",
"U 	c #3D5361",
"V 	c #BCE9F5",
"W 	c #E9FAEF",
"X 	c #F9FEF9",
"Y 	c #DEF9E3",
"Z 	c #E0FBE2",
"` 	c #DBFCDC",
" .	c #C5F2D7",
"..	c #3A605A",
"+.	c #427A91",
"@.	c #3778B7",
"#.	c #2562A1",
"$.	c #164E40",
"%.	c #3AB43A",
"&.	c #5EE35E",
"*.	c #73E973",
"=.	c #8BEF8B",
"-.	c #9EF39E",
";.	c #3EBC3F",
">.	c #032E03",
",.	c #72A2C0",
"'.	c #CEF0E7",
").	c #F4FEF4",
"!.	c #F2FEF2",
"~.	c #E9FCE9",
"{.	c #E8FEE8",
"].	c #E4FEE4",
"^.	c #DFFEDF",
"/.	c #D3FAD3",
"(.	c #B4E8CC",
"_.	c #76BEEE",
":.	c #499EF5",
"<.	c #3488E6",
"[.	c #205CAB",
"}.	c #205E3B",
"|.	c #61E461",
"1.	c #76E976",
"2.	c #90F090",
"3.	c #A4F5A4",
"4.	c #7DE57E",
"5.	c #095F09",
"6.	c #1C2C39",
"7.	c #7EB7D0",
"8.	c #E5FCE6",
"9.	c #EDFEED",
"0.	c #EEFEEE",
"a.	c #DFF9DF",
"b.	c #DFFADF",
"c.	c #DFFCDF",
"d.	c #DDFEDD",
"e.	c #CCF7CC",
"f.	c #9AD7CA",
"g.	c #6FBAED",
"h.	c #449BF3",
"i.	c #3285E3",
"j.	c #2266BF",
"k.	c #164445",
"l.	c #5EE45E",
"m.	c #72E872",
"n.	c #9DF39D",
"o.	c #85E985",
"p.	c #157E15",
"q.	c #233C52",
"r.	c #84C6E2",
"s.	c #E9FEE9",
"t.	c #E6FEE6",
"u.	c #DEFCDE",
"v.	c #D3F7D3",
"w.	c #B3E6C8",
"x.	c #96D4D6",
"y.	c #7CC1FA",
"z.	c #457AAC",
"A.	c #0A4028",
"B.	c #0B4928",
"C.	c #0F4629",
"D.	c #185721",
"E.	c #55E155",
"F.	c #68E668",
"G.	c #7DEB7D",
"H.	c #8AEF8A",
"I.	c #7DE97D",
"J.	c #1D981D",
"K.	c #013101",
"L.	c #003200",
"M.	c #003100",
"N.	c #000F00",
"O.	c #1D3852",
"P.	c #6AB6E2",
"Q.	c #E0FEE0",
"R.	c #E2FEE2",
"S.	c #E3FEE3",
"T.	c #E1FEE1",
"U.	c #DEFEDE",
"V.	c #BAEAC3",
"W.	c #9FD9ED",
"X.	c #8BCCF9",
"Y.	c #6BB6F8",
"Z.	c #3C7BB9",
"`.	c #006300",
" +	c #09BB09",
".+	c #1FC31F",
"++	c #30CA30",
"@+	c #4BDF4B",
"#+	c #5BE35B",
"$+	c #6EE76E",
"%+	c #78EA78",
"&+	c #75E875",
"*+	c #4AD54A",
"=+	c #39C739",
"-+	c #30C630",
";+	c #009D00",
">+	c #002000",
",+	c #163351",
"'+	c #52A5E4",
")+	c #CBF3CB",
"!+	c #D6FAD6",
"~+	c #CDF3D1",
"{+	c #C4EECF",
"]+	c #CCF4D1",
"^+	c #B7E7C3",
"/+	c #93D1DA",
"(+	c #85C7FA",
"_+	c #6FB9F9",
":+	c #51A4F6",
"<+	c #3C93F0",
"[+	c #195277",
"}+	c #04840B",
"|+	c #15D215",
"1+	c #26D626",
"2+	c #3ADB3A",
"3+	c #49DE49",
"4+	c #60E460",
"5+	c #66E566",
"6+	c #29CB29",
"7+	c #003300",
"8+	c #112C4B",
"9+	c #3C92E9",
"0+	c #86C6B2",
"a+	c #BDECC6",
"b+	c #D1F9D1",
"c+	c #97D2C8",
"d+	c #89CAE1",
"e+	c #9CD6CB",
"f+	c #A2DBC6",
"g+	c #7BC1F5",
"h+	c #68B4F8",
"i+	c #55A7F7",
"j+	c #3D95F1",
"k+	c #2466BC",
"l+	c #093235",
"m+	c #09B809",
"n+	c #19D219",
"o+	c #2BD72B",
"p+	c #38DA38",
"q+	c #45DD45",
"r+	c #4CDF4C",
"s+	c #51E151",
"t+	c #51E051",
"u+	c #30D530",
"v+	c #056A05",
"w+	c #08182A",
"x+	c #296FBF",
"y+	c #3A90E5",
"z+	c #92CFC9",
"A+	c #CCFACC",
"B+	c #98D5D0",
"C+	c #90D0CD",
"D+	c #85C8B3",
"E+	c #8ACCA9",
"F+	c #71BBD7",
"G+	c #428DD2",
"H+	c #2E73BB",
"I+	c #2C5F99",
"J+	c #355378",
"K+	c #474F59",
"L+	c #6B6B6B",
"M+	c #285928",
"N+	c #07B307",
"O+	c #16D216",
"P+	c #21D521",
"Q+	c #2DD72D",
"R+	c #33D933",
"S+	c #36DA36",
"T+	c #017401",
"U+	c #1B4E8F",
"V+	c #2D7CDA",
"W+	c #4A97C9",
"X+	c #ABE3B0",
"Y+	c #C4F7C4",
"Z+	c #B9EEB9",
"`+	c #5DA1A1",
" @	c #477477",
".@	c #475F50",
"+@	c #50636E",
"@@	c #747E88",
"#@	c #979797",
"$@	c #ACACAC",
"%@	c #C6C6C6",
"&@	c #CBCBCB",
"*@	c #939793",
"=@	c #176717",
"-@	c #06CE06",
";@	c #0FD00F",
">@	c #1FD41F",
",@	c #1ED41E",
"'@	c #09AC09",
")@	c #001000",
"!@	c #081B37",
"~@	c #2063BF",
"{@	c #256DCB",
"]@	c #2F7ACA",
"^@	c #538480",
"/@	c #666D66",
"(@	c #777777",
"_@	c #B3B3B3",
":@	c #D5D5D5",
"<@	c #D7D7D7",
"[@	c #D1D1D1",
"}@	c #CECECE",
"|@	c #CCCCCC",
"1@	c #C9C9C9",
"2@	c #858585",
"3@	c #078007",
"4@	c #00C800",
"5@	c #04CD04",
"6@	c #07CE07",
"7@	c #05AF05",
"8@	c #144114",
"9@	c #103B7C",
"0@	c #1A58B5",
"a@	c #1F61BD",
"b@	c #0C2444",
"c@	c #E6E6E6",
"d@	c #E5E5E5",
"e@	c #E0E0E0",
"f@	c #DDDDDD",
"g@	c #DADADA",
"h@	c #D4D4D4",
"i@	c #CDCDCD",
"j@	c #C8C8C8",
"k@	c #BEBEBE",
"l@	c #4D634D",
"m@	c #029A02",
"n@	c #00CC00",
"o@	c #1D621D",
"p@	c #919491",
"q@	c #383838",
"r@	c #010915",
"s@	c #0A3072",
"t@	c #1045A1",
"u@	c #051836",
"v@	c #F6F6F6",
"w@	c #F2F2F2",
"x@	c #E1E1E1",
"y@	c #DBDBDB",
"z@	c #AAAAAA",
"A@	c #3D543D",
"B@	c #00AB00",
"C@	c #067106",
"D@	c #949494",
"E@	c #CACACA",
"F@	c #505050",
"G@	c #010714",
"H@	c #052870",
"I@	c #021130",
"J@	c #EBEBEB",
"K@	c #F0F0F0",
"L@	c #A0A0A0",
"M@	c #1B3F1B",
"N@	c #5C6C5C",
"O@	c #D8D8D8",
"P@	c #E4E4E4",
"Q@	c #4C4C4C",
"R@	c #000208",
"S@	c #DCDCDC",
"T@	c #E7E7E7",
"U@	c #D0D0D0",
"V@	c #E2E2E2",
"W@	c #6C6C6C",
"X@	c #D3D3D3",
"Y@	c #DEDEDE",
"Z@	c #1D1D1D",
"`@	c #8C8C8C",
" #	c #D6D6D6",
".#	c #E9E9E9",
"+#	c #E8E8E8",
"@#	c #EAEAEA",
"##	c #252525",
"$#	c #171717",
"%#	c #ECECEC",
"&#	c #242424",
"*#	c #050505",
"=#	c #8B8B8B",
"-#	c #EDEDED",
";#	c #DFDFDF",
">#	c #E3E3E3",
",#	c #E4E6E4",
"'#	c #CADACA",
")#	c #C7DBC7",
"!#	c #DBDDDB",
"~#	c #232323",
"{#	c #F3F3F3",
"]#	c #AED0AE",
"^#	c #57B557",
"/#	c #67B466",
"(#	c #CED5CE",
"_#	c #222222",
":#	c #D9D9D9",
"<#	c #CDD9CC",
"[#	c #A9C6A8",
"}#	c #B2B9B2",
"|#	c #0D0D0D",
"1#	c #141414",
"2#	c #7F7F7F",
"3#	c #4F4F4F",
"4#	c #2D2D2D",
"5#	c #727272",
"6#	c #C7C7C7",
"7#	c #ADADAD",
"8#	c #818181",
"9#	c #515151",
"0#	c #797979",
"a#	c #8F8F8F",
"b#	c #606060",
"c#	c #333333",
"                                                                ",
"                      . . .                                     ",
"                + @ # $ % & * = -                               ",
"            ; > , ' ) ! ~ { ] ^ / ( _ . .                       ",
"          : < [ } | 1 2 3 4 5 6 7 8 9 0 a b c d                 ",
"        e f g g h i j k l m n o p q r s t u v w x               ",
"      y z A B C D E F G H I J K L M N O P Q R S T               ",
"      U V W X B D E Y Z `  ...+.@.#.$.%.&.*.=.-.;.>.            ",
"      ,.'.E ).).!.~.{.].^./.(._.:.<.[.}.|.1.2.3.4.5.            ",
"    6.7.8.9.E E 0.a.b.c.d.e.f.g.h.i.j.k.l.m.=.n.o.p.            ",
"    q.r.].j s.s.{.t.u.v.w.x.y.z.A.B.C.D.E.F.G.H.I.J.K.L.M.N.    ",
"    O.P.Q.R.].].S.T.U.V.W.X.Y.Z.`. +.+++@+#+$+%+&+*+=+-+;+>+    ",
"    ,+'+)+!+U.~+{+]+^+/+(+_+:+<+[+}+|+1+2+3+P 4+5+5+#+6+7+      ",
"    8+9+0+a+b+c+d+e+f+g+h+i+j+i.k+l+m+n+o+p+q+r+s+t+u+v+        ",
"    w+x+y+z+A+B+C+D+E+F+G+H+I+J+K+L+M+N+O+P+Q+R+S+o+T+          ",
"      U+V+W+X+Y+Z+`+ @.@+@@@#@$@%@&@*@=@-@;@n+>@,@'@)@          ",
"      !@~@{@]@^@/@(@_@:@<@:@[@}@|@&@1@2@3@4@5@6@7@8@            ",
"        9@0@a@b@c@d@e@f@g@<@h@[@i@|@j@k@l@m@n@n@o@p@q@          ",
"        r@s@t@u@v@w@d@x@f@y@<@:@[@}@|@j@z@A@B@C@D@d@E@F@        ",
"          G@H@I@J@v@K@d@e@f@g@<@h@[@i@|@%@L@M@N@O@P@d@E@Q@      ",
"            R@R@S@T@v@w@d@x@f@y@<@:@[@}@|@&@j@U@e@V@V@V@[@W@    ",
"              . X@f@J@v@K@d@e@f@g@<@h@[@i@|@[@g@y@f@V@d@c@Y@Z@  ",
"                `@[@f@T@v@w@d@x@f@y@<@ # #O@e@P@.#.#+#+#@#T@##  ",
"                $#`@<@f@J@v@K@d@x@V@d@.#+#T@d@P@P@d@+#@#%#P@&#  ",
"                  *#=#U@S@T@v@w@-#T@x@f@f@;#x@>#c@+#,#'#)#!#~#  ",
"                    $#=# #S@.#{#x@O@g@S@;#x@>#d@+#@#]#^#/#(#_#  ",
"                      *#=#U@:#d@;#g@f@;#x@>#c@+#.#+#<#[#}#D@|#  ",
"                        1#(@:@e@;#S@;#x@>#d@P@e@:#k@2#3#4#      ",
"                            5#i@;#Y@;#Y@6#7#8#9#$#              ",
"                              0#Y@1@a#b#c#                      ",
"                                $#                              ",
"                                                                "};
